<?xml version="1.0" encoding="utf-8"?>
<svg fill="#000000" width="800px" height="800px" viewBox="0 0 32 32" version="1.1" xmlns="http://www.w3.org/2000/svg">
<title>pencil</title>
<metadata>
  <rdf:RDF xmlns:rdf="http://www.w3.org/1999/02/22-rdf-syntax-ns#"
           xmlns:dc="http://purl.org/dc/elements/1.1/"
           xmlns:cc="http://creativecommons.org/ns#">
    <rdf:Description rdf:about="">
      <dc:title>Pencil Icon</dc:title>
      <dc:creator>Brankic1979</dc:creator>
      <dc:source>Brankic Glyph Icons Collection</dc:source>
      <dc:publisher>Brankic1979</dc:publisher>
      
      <dc:rights>Public Domain - No restrictions</dc:rights>
      <dc:license rdf:resource="http://creativecommons.org/publicdomain/zero/1.0/"/>
      <cc:license rdf:resource="http://creativecommons.org/publicdomain/zero/1.0/"/>
      
      <dc:description>Pencil icon from Brankic Glyph Icons collection, released to Public Domain</dc:description>
      <dc:type>StillImage</dc:type>
      <dc:format>image/svg+xml</dc:format>
      
      <dc:contributor>Based on original work by Brankic1979</dc:contributor>
    </rdf:Description>
  </rdf:RDF>
</metadata>
<path d="M5.582 20.054l14.886-14.886 6.369 6.369-14.886 14.886-6.369-6.369zM21.153 8.758l-0.698-0.697-11.981 11.98 0.698 0.698 11.981-11.981zM22.549 10.154l-0.698-0.698-11.981 11.982 0.697 0.697 11.982-11.981zM23.945 11.55l-0.698-0.698-11.981 11.981 0.698 0.698 11.981-11.981zM23.319 2.356c0.781-0.783 2.045-0.788 2.82-0.013l3.512 3.512c0.775 0.775 0.77 2.038-0.012 2.82l-2.17 2.17-6.32-6.32 2.17-2.169zM5.092 20.883l6.030 6.030-5.284 1.877-2.623-2.623 1.877-5.284zM4.837 29.117l-3.066 1.117 1.117-3.066 1.949 1.949z"></path>
</svg>
