<?xml version="1.0" encoding="UTF-8"?>
<!DOCTYPE svg PUBLIC "-//W3C//DTD SVG 1.1//EN" "http://www.w3.org/Graphics/SVG/1.1/DTD/svg11.dtd">
<svg xmlns="http://www.w3.org/2000/svg" xml:space="preserve" width="2400mm" height="1200mm" version="1.1" style="shape-rendering:geometricPrecision; text-rendering:geometricPrecision; image-rendering:optimizeQuality; fill-rule:evenodd; clip-rule:evenodd"
viewBox="0 0 240000 120000"
 xmlns:xlink="http://www.w3.org/1999/xlink"
 xmlns:dc="http://purl.org/dc/elements/1.1/"
 xmlns:cc="http://creativecommons.org/ns#"
 xmlns:rdf="http://www.w3.org/1999/02/22-rdf-syntax-ns#">
 <defs>
  <style type="text/css">
   <![CDATA[
    .str0 {stroke:#E31E24;stroke-width:100;stroke-miterlimit:22.9256}
    .str1 {stroke:#2B2A29;stroke-width:2000;stroke-miterlimit:22.9256}
    .fil0 {fill:none}
    .fil1 {fill:#07A241}
    .fil2 {fill:white;fill-rule:nonzero}
   ]]>
  </style>
 </defs>
 <metadata>
   <rdf:RDF>
     <cc:Work rdf:about="">
       <dc:title>Practical Olympiad TRIK</dc:title>
       <dc:creator>
         <cc:Agent>
           <dc:title>CyberTech Labs Ltd</dc:title>
         </cc:Agent>
       </dc:creator>
       <dc:date>2025</dc:date>
       <dc:license rdf:resource="https://creativecommons.org/licenses/by/4.0/"/>
     </cc:Work>
   </rdf:RDF>
 </metadata>
 <g id="Слой_x0020_1">
  <metadata id="layer-info"/>
  <path id="Штрих-код" class="fil0 str0" d="M57493.47 52503.25l2500 0 0 2500.01m0 10000l0 2499.99 -2500 0m-15000 0l-2500 0 0 -2499.99m0 -10000l0 -2500.01 2500 0"/>
  <rect id="Старт" class="fil1" x="-6.53" y="47503.26" width="30000" height="25000"/>
  <g id="Линии_x0020_разметки">
   <line id="Линия_x0020_Д" class="fil0 str1" x1="239993.47" y1="100003.26" x2="59993.47" y2= "100003.26" />
   <line id="Линия_x0020_Г" class="fil0 str1" x1="59993.47" y1="80003.26" x2="239993.47" y2= "80003.26" />
   <line id="Линия_x0020_В" class="fil0 str1" x1="239993.47" y1="60003.26" x2="-6.53" y2= "60003.26" />
   <line id="Линия_x0020_Б" class="fil0 str1" x1="59993.47" y1="40003.26" x2="239993.47" y2= "40003.26" />
   <line id="Линия_x0020_А" class="fil0 str1" x1="59993.47" y1="20003.26" x2="239993.47" y2= "20003.26" />
   <line id="Линия_x0020_8" class="fil0 str1" x1="219993.47" y1="3.26" x2="219993.47" y2= "120003.26" />
   <line id="Линия_x0020_7" class="fil0 str1" x1="199993.47" y1="3.26" x2="199993.47" y2= "120003.26" />
   <line id="Линия_x0020_6" class="fil0 str1" x1="179993.47" y1="3.26" x2="179993.47" y2= "120003.26" />
   <line id="Линия_x0020_5" class="fil0 str1" x1="159993.47" y1="3.26" x2="159993.47" y2= "120003.26" />
   <line id="Линия_x0020_4" class="fil0 str1" x1="139993.47" y1="3.26" x2="139993.46" y2= "120003.26" />
   <line id="Линия_x0020_3" class="fil0 str1" x1="119993.47" y1="3.26" x2="119993.47" y2= "120003.26" />
   <line id="Линия_x0020_2" class="fil0 str1" x1="99993.48" y1="3.26" x2="99993.47" y2= "120003.26" />
   <line id="Линия_x0020_1" class="fil0 str1" x1="79993.47" y1="3.26" x2="79993.47" y2= "120003.26" />
  </g>
  <image id="Лого_x0020_ТРИК" transform="matrix(8.75867E-15 0.330709 -0.330709 8.75867E-15 6993.47 3.2593)" x="0" y="0" width="105833.34" height="21166.66" xlink:href="ПОТ_2025_полигон_1_Images\ПОТ_2025_полигон_1_ImgID1.png"/>
  <image id="Лого_x0020_студии" transform="matrix(2.62761E-14 0.992128 -0.992128 2.62761E-14 6993.47 102503)" x="0" y="0" width="17638.88" height="7055.54" xlink:href="ПОТ_2025_полигон_1_Images\ПОТ_2025_полигон_1_ImgID2.png"/>
  <g id="Подписи">
   <path id="Д_п" class="fil2" d="M62127.97 99624.38l0 922.86 -1337.72 0 0 135.47 -531.28 0 0 -177.8 353.48 0 0 -1003.29 -353.48 0 0 -177.8 531.28 0 0 116.42c184.15,122.76 556.32,184.14 1116.18,184.14l221.54 0zm-177.8 721.78l0 -529.16 -77.61 0c-129.11,0 -305.85,-11.64 -529.87,-34.93 -224.01,-22.93 -408.16,-68.79 -552.44,-136.52l0 700.61 1159.92 0z"/>
   <polygon id="Г_п" class="fil2" points="61951.23,79513.25 61951.23,80493.25 61773.43,80493.25 61773.43,79714.33 60435.71,79714.33 60435.71,79513.25 "/>
   <path id="Б_п" class="fil2" d="M61951.23 39431.77l0 984.24 -177.8 0 0 -783.16 -467.78 0 0 361.95c0,133.7 -12.7,239.88 -38.45,318.91 -25.4,79.02 -73.38,142.16 -144.28,189.79 -70.56,47.62 -152.76,71.26 -246.59,71.26 -76.56,0 -148.17,-16.93 -214.49,-51.15 -66.68,-34.22 -121,-85.02 -162.98,-152.75 -41.98,-67.38 -63.15,-182.74 -63.15,-345.37l0 -593.72 1515.52 0zm-1344.07 201.08l0 401.11c0,108.3 21.87,189.44 65.97,243.76 44.09,53.98 110.06,81.14 197.9,81.14 62.8,0 115.01,-15.52 156.99,-46.56 41.98,-31.05 69.85,-74.09 83.61,-129.12 13.76,-55.39 20.46,-149.58 20.46,-282.57l0 -267.76 -524.93 0z"/>
   <path id="А_п" class="fil2" d="M60435.71 19293.65l1515.52 581.37 0 220.48 -1515.52 617.36 0 -228.6 459.31 -175.33 0 -638.17 -459.31 -164.39 0 -212.72zm622.3 436.02l0 516.47 420.15 -158.05c127.7,-47.62 233.18,-83.6 316.44,-108.65 -98.78,-20.81 -195.79,-48.68 -291.75,-83.61l-444.84 -166.16z"/>
   <path id="Д" class="fil2" d="M237858.97 100382.14l0 -922.86 1337.72 0 0 -135.47 531.28 0 0 177.8 -353.48 0 0 1003.29 353.48 0 0 177.8 -531.28 0 0 -116.42c-184.15,-122.76 -556.32,-184.14 -1116.18,-184.14l-221.54 0zm177.8 -721.78l0 529.16 77.61 0c129.11,0 305.85,11.64 529.87,34.93 224.01,22.93 408.16,68.79 552.44,136.52l0 -700.61 -1159.92 0z"/>
   <polygon id="Г" class="fil2" points="238035.71,80493.26 238035.71,79513.25 238213.51,79513.25 238213.51,80292.18 239551.24,80292.18 239551.24,80493.26 "/>
   <path id="В" class="fil2" d="M239551.24 60575.81l-1515.53 0 0 -568.67c0,-115.71 15.17,-208.49 45.86,-278.7 30.69,-69.85 77.97,-124.53 141.82,-164.04 63.5,-39.86 130.17,-59.62 200.02,-59.62 64.56,0 125.59,17.64 182.74,52.57 57.5,34.92 103.36,87.84 138.64,158.75 26.81,-91.72 72.67,-162.28 137.59,-211.32 64.55,-49.38 141.11,-74.08 229.3,-74.08 71.26,0 137.23,15.17 198.26,45.16 61.03,29.98 107.95,67.02 141.11,111.12 32.81,44.1 57.86,99.48 74.79,165.81 16.93,66.67 25.4,148.16 25.4,244.82l0 578.2zm-878.41 -201.08l0 -327.73c0,-88.9 -6,-152.75 -17.64,-191.2 -15.17,-51.16 -40.57,-89.61 -75.85,-115.36 -34.92,-25.75 -79.37,-38.81 -132.64,-38.81 -50.45,0 -94.9,12 -133,36.34 -38.45,23.99 -64.91,58.56 -79.02,103.36 -14.11,44.81 -21.17,121.71 -21.17,230.37l0 303.03 459.32 0zm700.61 0l0 -377.47c0,-64.91 -2.47,-110.42 -7.41,-136.88 -8.11,-45.86 -21.87,-84.66 -41.27,-115.71 -19.41,-31.04 -47.63,-56.44 -84.67,-76.55 -37.04,-20.11 -79.73,-29.99 -128.06,-29.99 -56.79,0 -105.83,14.47 -147.81,43.75 -41.98,28.93 -71.26,69.14 -88.19,120.65 -16.94,51.15 -25.4,125.23 -25.4,221.54l0 350.66 522.81 0z"/>
   <path id="Б" class="fil2" d="M238035.71 40574.76l0 -984.25 177.8 0 0 783.17 467.78 0 0 -361.95c0,-133.7 12.7,-239.89 38.46,-318.91 25.4,-79.02 73.37,-142.17 144.28,-189.79 70.56,-47.63 152.75,-71.27 246.59,-71.27 76.55,0 148.17,16.94 214.49,51.16 66.67,34.22 121,85.02 162.98,152.75 41.98,67.38 63.15,182.74 63.15,345.37l0 593.72 -1515.53 0zm1344.08 -201.08l0 -401.11c0,-108.3 -21.87,-189.44 -65.97,-243.77 -44.1,-53.97 -110.07,-81.14 -197.91,-81.14 -62.79,0 -115,15.53 -156.98,46.57 -41.98,31.04 -69.85,74.08 -83.61,129.12 -13.76,55.38 -20.46,149.57 -20.46,282.57l0 267.76 524.93 0z"/>
   <path id="А" class="fil2" d="M239551.24 20712.87l-1515.53 -581.37 0 -220.49 1515.53 -617.36 0 228.6 -459.32 175.33 0 638.18 459.32 164.39 0 212.72zm-622.3 -436.03l0 -516.46 -420.16 158.04c-127.7,47.63 -233.18,83.61 -316.44,108.66 98.78,20.81 195.8,48.68 291.75,83.61l444.85 166.15z"/>
   <path id="_8_п" class="fil2" d="M220203.02 1276.64c77.26,28.22 134.41,68.79 171.81,121 37.04,52.56 55.73,115.36 55.73,188.38 0,110.42 -39.51,202.85 -118.53,277.99 -79.37,75.14 -184.5,112.89 -316.09,112.89 -131.94,0 -238.47,-38.45 -318.91,-115.36 -80.43,-76.9 -120.65,-170.39 -120.65,-280.81 0,-70.2 18.35,-131.59 55.04,-183.44 36.69,-52.21 92.42,-92.43 167.57,-120.65 -92.78,-30.34 -162.99,-79.03 -211.32,-146.76 -48.33,-67.38 -72.67,-147.81 -72.67,-241.65 0,-129.47 45.86,-238.12 137.23,-326.32 91.72,-88.19 212.02,-132.29 361.24,-132.29 149.23,0 269.52,44.1 361.25,132.64 91.37,88.55 137.23,198.97 137.23,331.26 0,98.43 -25.05,180.98 -75.14,247.3 -50.1,66.67 -121.36,111.83 -213.79,135.82zm37.04 316.08c0,-71.96 -22.93,-130.52 -68.43,-176.03 -45.87,-45.51 -105.84,-68.44 -180.27,-68.44 -72.32,0 -130.88,22.58 -176.39,67.73 -45.51,45.16 -68.09,100.54 -68.09,166.16 0,68.44 23.29,125.94 70.21,172.51 46.56,46.57 105.48,69.85 176.38,69.85 71.62,0 130.53,-22.93 177.1,-68.44 46.21,-45.51 69.49,-99.84 69.49,-163.34zm61.39 -700.61c0,-53.27 -12.35,-104.42 -37.04,-154.16 -24.7,-49.39 -62.09,-87.84 -112.19,-115.01 -49.74,-27.16 -103.36,-40.92 -160.16,-40.92 -89.6,0 -162.98,28.57 -220.48,85.72 -57.51,57.15 -86.08,129.83 -86.08,218.02 0,89.61 29.63,163.69 88.55,222.25 59.26,58.56 134.05,87.84 224.01,87.84 88.19,0 160.51,-28.93 217.66,-86.78 57.15,-57.86 85.73,-130.18 85.73,-216.96z"/>
   <path id="_7_п" class="fil2" d="M200483.48 1773.7l0 177.8 -980.02 0 0 -143.93c96.66,-102.66 192.27,-239.19 286.81,-409.58 94.9,-170.39 167.92,-345.72 219.78,-525.99 37.04,-126.64 61.03,-265.99 71.26,-416.98l190.5 0c-2.12,119.24 -25.4,263.52 -70.2,432.5 -44.8,169.34 -108.66,332.32 -192.26,489.31 -83.61,156.98 -172.51,289.27 -266.7,396.87l740.83 0z"/>
   <path id="_6_п" class="fil2" d="M179518.28 1600.13l184.15 -14.81c16.58,73.02 40.21,126.29 70.9,159.45 50.45,53.27 112.89,79.73 186.98,79.73 59.62,0 112.53,-16.58 158.04,-49.74 58.56,-42.69 104.42,-104.78 138.64,-186.62 33.87,-82.2 51.51,-198.97 52.92,-350.31 -44.81,68.09 -99.84,118.89 -164.75,151.7 -64.91,33.16 -132.64,49.74 -203.9,49.74 -124.18,0 -230.01,-45.86 -317.5,-137.23 -87.14,-91.37 -130.88,-209.2 -130.88,-354.19 0,-95.25 20.46,-183.44 61.38,-265.29 41.27,-81.84 97.37,-144.28 169.33,-187.68 71.62,-43.39 153.11,-65.26 244.12,-65.26 155.23,0 281.52,57.15 379.59,171.1 97.72,113.94 146.76,301.97 146.76,563.73 0,292.81 -54.33,505.89 -162.63,638.88 -94.55,115.71 -221.9,173.57 -382.41,173.57 -119.24,0 -217.31,-33.52 -293.51,-100.19 -76.2,-66.67 -122.06,-158.75 -137.23,-276.58zm761.99 -654.04c0,-64.21 -13.75,-125.59 -40.92,-184.15 -27.16,-58.57 -65.26,-103.37 -113.59,-134.06 -48.69,-30.69 -100.19,-45.86 -154.87,-45.86 -79.38,0 -147.11,31.75 -203.2,95.25 -56.09,63.5 -84.31,149.58 -84.31,258.58 0,104.78 27.87,187.33 83.25,247.65 55.39,60.33 125.94,90.67 211.67,90.67 83.96,0 155.57,-30.34 214.13,-90.67 58.56,-60.32 87.84,-139.34 87.84,-237.41z"/>
   <path id="_5_п" class="fil2" d="M160495.12 865.65l-194.73 14.82c-14.47,-94.9 -47.98,-166.16 -100.19,-214.14 -52.21,-47.62 -116.06,-71.61 -191.21,-71.61 -90.66,0 -166.51,33.87 -228.24,101.25 -61.39,67.73 -92.08,157.33 -92.08,268.81 0,106.19 29.28,189.8 88.2,251.18 58.91,61.38 136.87,92.07 233.89,92.07 60.32,0 114.3,-13.75 162.28,-41.27 47.62,-27.52 85.01,-63.15 112.53,-106.89l175.68 25.4 -146.05 778.93 -751.41 0 0 -177.8 602.9 0 80.78 -408.87c-90.66,63.85 -185.91,95.6 -285.4,95.6 -131.93,0 -243.41,-45.86 -334.07,-137.58 -90.67,-91.72 -136.18,-209.55 -136.18,-353.48 0,-137.23 39.87,-255.76 119.59,-355.6 97.02,-122.77 229.66,-184.15 397.58,-184.15 137.59,0 249.77,38.81 336.91,116.06 87.13,77.26 136.87,179.57 149.22,307.27z"/>
   <path id="_4_п" class="fil2" d="M139860.12 445.49l0 361.95 658.28 0 0 171.45 -692.15 982.13 -152.4 0 0 -982.13 -205.31 0 0 -171.45 205.31 0 0 -361.95 186.27 0zm0 533.4l0 681.56 475.19 -681.56 -475.19 0z"/>
   <path id="_3_п" class="fil2" d="M120489.82 857.19l-186.27 25.4c-21.52,-105.84 -57.5,-182.04 -108.65,-228.6 -51.15,-46.57 -113.95,-69.85 -188.38,-69.85 -88.2,0 -162.63,30.34 -222.61,91.01 -59.97,60.68 -89.95,135.82 -89.95,225.43 0,85.37 27.87,155.92 83.96,211.66 55.74,55.39 126.64,83.26 213.07,83.26 35.28,0 79.03,-7.06 131.59,-20.82l-20.81 162.99c-12.35,-1.41 -22.58,-2.12 -29.99,-2.12 -79.73,0 -150.99,20.81 -214.84,62.09 -63.5,41.27 -95.25,104.77 -95.25,190.5 0,68.08 23.28,124.53 69.5,169.33 46.21,44.8 105.83,67.03 178.85,67.03 72.68,0 133,-22.93 181.33,-68.79 48.33,-45.86 79.38,-114.65 93.13,-206.38l186.27 33.87c-22.58,124.88 -74.44,221.9 -155.22,290.69 -80.43,68.79 -180.98,103.01 -300.92,103.01 -82.55,0 -158.75,-17.64 -228.25,-53.27 -69.85,-35.28 -123.12,-83.61 -159.8,-144.64 -37.05,-61.38 -55.39,-126.29 -55.39,-195.08 0,-65.27 17.64,-124.53 52.56,-178.16 35.28,-53.62 87.49,-96.3 156.28,-128.05 -89.6,-20.47 -159.1,-63.5 -208.84,-128.77 -49.39,-64.91 -74.08,-146.75 -74.08,-244.47 0,-132.29 48.33,-244.83 144.64,-336.9 96.66,-92.08 218.72,-137.94 366.18,-137.94 132.99,0 243.41,39.51 331.25,118.89 88.2,79.37 138.29,182.38 150.64,308.68z"/>
   <path id="_2_п" class="fil2" d="M99491.12 620.12l0 -177.8 1003.3 0c1.41,44.8 -6,87.84 -21.88,129.47 -25.75,68.08 -67.02,135.47 -123.82,201.43 -56.8,65.97 -137.94,142.17 -243.42,228.6 -164.04,135.12 -275.51,242.01 -333.72,321.03 -58.56,79.02 -87.84,153.81 -87.84,224.37 0,73.73 26.45,135.82 79.37,186.62 52.92,50.44 122.06,75.84 207.08,75.84 89.96,0 161.93,-26.81 215.9,-80.43 53.97,-53.27 81.14,-127.71 81.84,-222.25l190.5 19.05c-13.05,142.52 -62.44,251.18 -147.81,325.97 -85.72,74.78 -200.38,112.18 -344.66,112.18 -145.35,0 -260.7,-40.22 -345.37,-121 -85.02,-80.79 -127.35,-180.98 -127.35,-300.22 0,-60.67 12.34,-120.29 37.39,-178.85 24.7,-58.92 65.97,-120.65 123.47,-185.57 57.86,-64.55 153.46,-153.81 286.81,-266.69 111.83,-93.84 183.8,-157.34 215.55,-190.86 31.75,-33.51 57.85,-67.02 78.67,-100.89l-744.01 0z"/>
   <path id="_1_п" class="fil2" d="M79714.07 442.32l186.27 0 0 1186.04c44.8,-43.04 103.71,-85.73 176.39,-128.42 72.67,-42.68 138.29,-74.78 196.14,-95.95l0 179.92c-104.07,48.68 -195.08,107.94 -273.05,177.79 -77.96,69.5 -133.35,136.88 -165.8,202.5l-119.95 0 0 -1521.88z"/>
   <path id="_8" class="fil2" d="M219783.93 118729.88c-77.26,-28.22 -134.41,-68.79 -171.81,-121 -37.04,-52.56 -55.73,-115.36 -55.73,-188.38 0,-110.42 39.51,-202.85 118.53,-277.99 79.37,-75.14 184.5,-112.89 316.09,-112.89 131.94,0 238.47,38.45 318.91,115.36 80.43,76.9 120.65,170.39 120.65,280.81 0,70.2 -18.35,131.59 -55.04,183.44 -36.69,52.21 -92.42,92.43 -167.57,120.65 92.78,30.34 162.99,79.03 211.32,146.76 48.33,67.38 72.67,147.81 72.67,241.65 0,129.47 -45.86,238.12 -137.23,326.32 -91.72,88.19 -212.02,132.29 -361.24,132.29 -149.23,0 -269.52,-44.1 -361.25,-132.64 -91.37,-88.55 -137.23,-198.97 -137.23,-331.26 0,-98.43 25.05,-180.98 75.14,-247.3 50.1,-66.67 121.36,-111.83 213.79,-135.82zm-37.04 -316.08c0,71.96 22.93,130.52 68.43,176.03 45.87,45.51 105.84,68.44 180.27,68.44 72.32,0 130.88,-22.58 176.39,-67.73 45.51,-45.16 68.09,-100.54 68.09,-166.16 0,-68.44 -23.29,-125.94 -70.21,-172.51 -46.56,-46.57 -105.48,-69.85 -176.38,-69.85 -71.62,0 -130.53,22.93 -177.1,68.44 -46.21,45.51 -69.49,99.84 -69.49,163.34zm-61.39 700.61c0,53.27 12.35,104.42 37.04,154.16 24.7,49.39 62.09,87.84 112.19,115.01 49.74,27.16 103.36,40.92 160.16,40.92 89.6,0 162.98,-28.57 220.48,-85.72 57.51,-57.15 86.08,-129.83 86.08,-218.02 0,-89.61 -29.63,-163.69 -88.55,-222.25 -59.26,-58.56 -134.05,-87.84 -224.01,-87.84 -88.19,0 -160.51,28.93 -217.66,86.78 -57.15,57.86 -85.73,130.18 -85.73,216.96z"/>
   <path id="_7" class="fil2" d="M199503.46 118232.82l0 -177.8 980.02 0 0 143.93c-96.31,102.66 -192.27,239.19 -286.81,409.58 -94.9,170.39 -167.92,345.72 -219.78,525.99 -37.04,126.64 -61.03,265.99 -71.26,416.98l-190.5 0c2.12,-119.24 25.4,-263.52 70.2,-432.5 44.8,-169.34 108.66,-332.32 192.26,-489.31 83.61,-156.98 172.51,-289.27 266.7,-396.87l-740.83 0z"/>
   <path id="_6" class="fil2" d="M180468.66 118406.39l-184.15 14.81c-16.58,-73.02 -40.21,-126.29 -70.9,-159.45 -50.45,-53.27 -112.89,-79.73 -186.98,-79.73 -59.62,0 -112.53,16.58 -158.04,49.74 -58.56,42.69 -104.42,104.78 -138.64,186.62 -33.87,82.2 -51.51,198.97 -52.92,350.31 44.81,-68.09 99.84,-118.89 164.75,-151.7 64.91,-33.16 132.64,-49.74 203.9,-49.74 124.18,0 230.01,45.86 317.5,137.23 87.14,91.37 130.88,209.2 130.88,354.19 0,95.25 -20.46,183.44 -61.38,265.29 -41.27,81.84 -97.37,144.28 -169.33,187.68 -71.62,43.39 -153.11,65.26 -244.12,65.26 -154.87,0 -281.52,-57.15 -379.59,-171.1 -97.72,-113.94 -146.76,-301.97 -146.76,-563.73 0,-292.81 54.33,-505.89 162.63,-638.88 94.55,-115.71 221.9,-173.57 382.41,-173.57 119.24,0 217.31,33.52 293.51,100.19 76.2,66.67 122.06,158.75 137.23,276.58zm-761.99 654.04c0,64.21 13.75,125.59 40.92,184.15 27.16,58.57 65.26,103.02 113.59,133.71 48.69,30.69 100.19,46.21 154.87,46.21 79.38,0 147.11,-31.75 203.2,-95.25 56.09,-63.5 84.31,-149.58 84.31,-258.58 0,-104.78 -27.87,-187.33 -83.25,-247.65 -55.39,-60.33 -125.94,-90.67 -211.67,-90.67 -83.96,0 -155.57,30.34 -214.13,90.67 -58.56,60.32 -87.84,139.34 -87.84,237.41z"/>
   <path id="_5" class="fil2" d="M159491.82 119140.87l194.73 -14.82c14.47,94.9 47.98,166.16 100.19,214.14 52.21,47.62 116.06,71.61 191.21,71.61 90.66,0 166.51,-33.87 228.24,-101.25 61.39,-67.73 92.08,-157.33 92.08,-268.81 0,-106.19 -29.28,-189.8 -88.2,-251.18 -58.91,-61.38 -136.87,-92.07 -233.89,-92.07 -60.32,0 -114.3,13.75 -162.28,41.27 -47.62,27.52 -85.01,63.15 -112.53,106.89l-175.68 -25.4 146.05 -778.93 751.41 0 0 177.8 -602.9 0 -80.78 408.87c90.66,-63.85 185.91,-95.6 285.4,-95.6 131.93,0 243.41,45.86 334.07,137.58 90.67,91.72 136.18,209.55 136.18,353.48 0,137.23 -39.87,255.76 -119.59,355.6 -97.02,122.77 -229.66,184.15 -397.58,184.15 -137.59,0 -249.77,-38.81 -336.91,-116.06 -87.13,-77.26 -136.87,-179.57 -149.22,-307.27z"/>
   <path id="_4" class="fil2" d="M140126.81 119561.03l0 -361.95 -658.28 0 0 -171.45 692.15 -982.13 152.4 0 0 982.13 205.31 0 0 171.45 -205.31 0 0 361.95 -186.27 0zm0 -533.4l0 -681.56 -475.19 681.56 475.19 0z"/>
   <path id="_3" class="fil2" d="M119497.12 119149.33l186.27 -25.4c21.52,105.84 57.5,182.04 108.65,228.6 51.15,46.57 113.95,69.85 188.38,69.85 88.2,0 162.63,-30.34 222.61,-91.01 59.97,-60.68 89.95,-135.82 89.95,-225.43 0,-85.37 -27.87,-155.92 -83.96,-211.66 -55.74,-55.39 -126.64,-83.26 -213.07,-83.26 -35.28,0 -79.03,7.06 -131.59,20.82l20.81 -162.99c12.35,1.41 22.58,2.12 29.99,2.12 79.73,0 150.99,-20.81 214.84,-62.09 63.5,-41.27 95.25,-104.77 95.25,-190.5 0,-68.08 -23.28,-124.53 -69.5,-169.33 -46.21,-44.8 -105.83,-67.03 -178.85,-67.03 -72.68,0 -133,22.93 -181.33,68.79 -48.33,45.86 -79.38,114.65 -93.13,206.38l-186.27 -33.87c22.93,-124.88 74.44,-221.9 155.22,-290.69 80.43,-68.79 180.98,-103.01 300.92,-103.01 82.55,0 158.75,17.64 228.25,53.27 69.85,35.28 123.12,83.61 159.8,144.64 37.05,61.38 55.39,126.29 55.39,195.08 0,65.27 -17.64,124.53 -52.56,178.16 -35.28,53.62 -87.49,96.3 -156.28,128.05 89.6,20.47 159.1,63.5 208.84,128.77 49.39,64.91 74.08,146.75 74.08,244.47 0,132.29 -48.33,244.83 -144.64,336.9 -96.66,92.08 -218.72,137.94 -366.18,137.94 -132.99,0 -243.41,-39.86 -331.25,-119.24 -88.2,-79.37 -138.29,-182.03 -150.64,-308.33z"/>
   <path id="_2" class="fil2" d="M100495.82 119386.4l0 177.8 -1003.3 0c-1.41,-44.8 6,-87.84 21.88,-129.47 25.75,-68.08 67.02,-135.47 123.82,-201.43 56.8,-65.97 137.94,-142.17 243.42,-228.6 164.04,-135.12 275.51,-242.01 333.72,-321.03 58.56,-79.02 87.84,-153.81 87.84,-224.37 0,-73.73 -26.45,-135.82 -79.37,-186.62 -52.92,-50.44 -122.06,-75.84 -207.08,-75.84 -89.96,0 -161.93,26.81 -215.9,80.43 -53.97,53.27 -81.14,127.35 -81.84,222.25l-190.5 -19.05c13.05,-142.52 62.44,-251.18 147.81,-325.97 85.72,-74.78 200.38,-112.18 344.66,-112.18 145.35,0 260.7,40.22 345.37,121 85.02,80.79 127.35,180.98 127.35,300.22 0,60.67 -12.34,120.29 -37.39,178.85 -24.7,58.92 -65.97,120.65 -123.47,185.57 -57.86,64.55 -153.46,153.81 -286.81,266.69 -111.83,93.84 -183.8,157.34 -215.55,190.86 -31.75,33.51 -57.85,67.02 -78.67,100.89l744.01 0z"/>
   <path class="fil2" d="M80272.87 119564.2l-186.27 0 0 -1186.04c-44.8,43.04 -103.71,85.73 -176.39,128.42 -72.67,42.68 -138.29,74.78 -196.14,95.95l0 -179.92c104.07,-48.68 195.08,-107.94 273.05,-177.79 77.96,-69.5 133.35,-136.88 165.8,-202.5l119.95 0 0 1521.88z"/>
  </g>
 </g>
</svg>
