<svg width="50" height="50" viewBox="0 0 50 50" fill="none" xmlns="http://www.w3.org/2000/svg">
<g clip-path="url(#clip0)">
<path d="M43.2481 0.436668H7.4586C3.53447 0.436668 0.353333 3.6178 0.353333 7.54193V43.3314C0.353333 47.2555 3.53447 50.4367 7.4586 50.4367H43.2481C47.1722 50.4367 50.3533 47.2555 50.3533 43.3314V7.54193C50.3533 3.6178 47.1722 0.436668 43.2481 0.436668Z" fill="#D1C313"/>
<path fill-rule="evenodd" clip-rule="evenodd" d="M3.34253 47.4475V3.42587L3.63605 3.7194H47.0706V47.1539H3.63605V3.7194L3.34253 3.42587H47.3641V47.4475H3.34253Z" fill="#D1C313"/>
<path fill-rule="evenodd" clip-rule="evenodd" d="M3.49097 47.299V3.57095L3.78449 3.86447H46.9255V47.0055H3.78449V3.86447L3.49097 3.57095H47.219V47.299H3.49097Z" fill="#D2C413"/>
<path fill-rule="evenodd" clip-rule="evenodd" d="M3.63605 47.1539V3.71939L3.92957 4.01292H46.7771V46.8604H3.92957V4.01292L3.63605 3.71939H47.0706V47.1539H3.63605Z" fill="#D3C513"/>
<path fill-rule="evenodd" clip-rule="evenodd" d="M3.78448 47.0055V3.86447L4.07801 4.15799H46.632V46.712H4.07801V4.15799L3.78448 3.86447H46.9255V47.0055H3.78448Z" fill="#D5C712"/>
<path fill-rule="evenodd" clip-rule="evenodd" d="M3.92957 46.8604V4.01292L4.22309 4.30644H46.4835V46.5669H4.22309V4.30644L3.92957 4.01292H46.7771V46.8604H3.92957Z" fill="#D6C812"/>
<path fill-rule="evenodd" clip-rule="evenodd" d="M4.078 46.712V4.15799L4.37153 4.45151H46.3385V46.4185H4.37153V4.45151L4.078 4.15799H46.632V46.712H4.078Z" fill="#D7C912"/>
<path fill-rule="evenodd" clip-rule="evenodd" d="M4.22308 46.5669V4.30644L4.51661 4.59996H46.19V46.2734H4.51661V4.59996L4.22308 4.30644H46.4835V46.5669H4.22308Z" fill="#DACB11"/>
<path fill-rule="evenodd" clip-rule="evenodd" d="M4.37152 46.4185V4.45152L4.66504 4.74504H46.0449V46.1249H4.66504V4.74504L4.37152 4.45152H46.3385V46.4185H4.37152Z" fill="#DBCC11"/>
<path fill-rule="evenodd" clip-rule="evenodd" d="M4.5166 46.2734V4.59996L4.81012 4.89348H45.8965V45.9798H4.81012V4.89348L4.5166 4.59996H46.19V46.2734H4.5166Z" fill="#DCCD10"/>
<path fill-rule="evenodd" clip-rule="evenodd" d="M4.66504 46.1249V4.74504L4.95856 5.03856H45.7514V45.8314H4.95856V5.03856L4.66504 4.74504H46.0449V46.1249H4.66504Z" fill="#DECF10"/>
<path fill-rule="evenodd" clip-rule="evenodd" d="M4.81012 45.9799V4.89348L5.10364 5.187H45.603V45.6863H5.10364V5.187L4.81012 4.89348H45.8965V45.9799H4.81012Z" fill="#DFD010"/>
<path fill-rule="evenodd" clip-rule="evenodd" d="M4.95856 45.8314V5.03856L5.25208 5.33208H45.4579V45.5379H5.25208V5.33208L4.95856 5.03856H45.7514V45.8314H4.95856Z" fill="#E0D10F"/>
<path fill-rule="evenodd" clip-rule="evenodd" d="M5.10364 45.6863V5.18701L5.39716 5.48053H45.3094V45.3928H5.39716V5.48053L5.10364 5.18701H45.603V45.6863H5.10364Z" fill="#E3D30F"/>
<path fill-rule="evenodd" clip-rule="evenodd" d="M5.25214 45.5379V5.33208L5.54566 5.6256H45.1644V45.2444H5.54566V5.6256L5.25214 5.33208H45.4579V45.5379H5.25214Z" fill="#E4D40E"/>
<path fill-rule="evenodd" clip-rule="evenodd" d="M5.39722 45.3928V5.48053L5.69074 5.77405H45.016V45.0993H5.69074V5.77405L5.39722 5.48053H45.3095V45.3928H5.39722Z" fill="#E5D60E"/>
<path fill-rule="evenodd" clip-rule="evenodd" d="M5.54565 45.2444V5.6256L5.83918 5.91912H44.8709V44.9508H5.83918V5.91912L5.54565 5.6256H45.1644V45.2444H5.54565Z" fill="#E7D80D"/>
<path fill-rule="evenodd" clip-rule="evenodd" d="M5.69073 45.0993V5.77405L5.98426 6.06757H44.7225V44.8058H5.98426V6.06757L5.69073 5.77405H45.016V45.0993H5.69073Z" fill="#E8D90D"/>
<path fill-rule="evenodd" clip-rule="evenodd" d="M5.83917 44.9508V5.91912L6.13269 6.21265H44.5774V44.6573H6.13269V6.21265L5.83917 5.91912H44.8709V44.9508H5.83917Z" fill="#EADA0D"/>
<path fill-rule="evenodd" clip-rule="evenodd" d="M5.98425 44.8058V6.06757L6.27778 6.3611H44.4289V44.5122H6.27778V6.3611L5.98425 6.06757H44.7224V44.8058H5.98425Z" fill="#ECDC0C"/>
<path fill-rule="evenodd" clip-rule="evenodd" d="M6.13269 44.6573V6.21265L6.42621 6.50617H44.2838V44.3638H6.42621V6.50617L6.13269 6.21265H44.5774V44.6573H6.13269Z" fill="#EDDD0C"/>
<path fill-rule="evenodd" clip-rule="evenodd" d="M6.27777 44.5122V6.3611L6.57129 6.65462H44.1354V44.2187H6.57129V6.65462L6.27777 6.3611H44.4289V44.5122H6.27777Z" fill="#EEDE0C"/>
<path fill-rule="evenodd" clip-rule="evenodd" d="M6.42621 44.3638V6.50617L6.71973 6.79969H43.9903V44.0703H6.71973V6.79969L6.42621 6.50617H44.2838V44.3638H6.42621Z" fill="#F0E00B"/>
<path fill-rule="evenodd" clip-rule="evenodd" d="M6.57123 44.2187V6.65462L6.86475 6.94814H43.8418V43.9252H6.86475V6.94814L6.57123 6.65462H44.1353V44.2187H6.57123Z" fill="#F2E10B"/>
<path fill-rule="evenodd" clip-rule="evenodd" d="M6.71973 44.0703V6.79969L7.01325 7.09321H43.6968V43.7768H7.01325V7.09321L6.71973 6.79969H43.9903V44.0703H6.71973Z" fill="#F3E20A"/>
<path fill-rule="evenodd" clip-rule="evenodd" d="M6.86481 43.9252V6.94814L7.15833 7.24166H43.5483V43.6317H7.15833V7.24166L6.86481 6.94814H43.8419V43.9252H6.86481Z" fill="#F5E40A"/>
<path fill-rule="evenodd" clip-rule="evenodd" d="M7.01324 43.7768V7.09321L7.30339 7.38673H43.4033V43.4866H7.30339V7.38673L7.01324 7.09321H43.6968V43.7768H7.01324Z" fill="#F6E509"/>
<path fill-rule="evenodd" clip-rule="evenodd" d="M7.15833 43.6317V7.24166L7.45185 7.53518H43.2548V43.3382H7.45185V7.53518L7.15833 7.24166H43.5483V43.6317H7.15833Z" fill="#F7E609"/>
<path fill-rule="evenodd" clip-rule="evenodd" d="M7.30341 43.4866V7.38673L7.59693 7.68026H43.1097V43.1931H7.59693V7.68026L7.30341 7.38673H43.4033V43.4866H7.30341Z" fill="#FAE908"/>
<path fill-rule="evenodd" clip-rule="evenodd" d="M7.45184 43.3382V7.53518L7.74537 7.82871H42.9613V43.0446H7.74537V7.82871L7.45184 7.53518H43.2548V43.3382H7.45184Z" fill="#FAE908"/>
<path fill-rule="evenodd" clip-rule="evenodd" d="M7.59692 43.1931V7.68026L7.89045 7.97378H42.8162V42.8996H7.89045V7.97378L7.59692 7.68026H43.1097V43.1931H7.59692Z" fill="#FAE908"/>
<path fill-rule="evenodd" clip-rule="evenodd" d="M7.74536 43.0446V7.82871L8.03888 8.12223H42.6678V42.7511H8.03888V8.12223L7.74536 7.82871H42.9613V43.0446H7.74536Z" fill="#FAE908"/>
<path fill-rule="evenodd" clip-rule="evenodd" d="M7.89044 42.8996V7.97378L8.18396 8.2673H42.5227V42.606H8.18396V8.2673L7.89044 7.97378H42.8162V42.8996H7.89044Z" fill="#FAE908"/>
<path fill-rule="evenodd" clip-rule="evenodd" d="M8.03888 42.7511V8.12223L8.3324 8.41238H42.3776V42.4576H8.3324V8.41238L8.03888 8.12223H42.6678V42.7511H8.03888Z" fill="#FAE908"/>
<path fill-rule="evenodd" clip-rule="evenodd" d="M8.18396 42.606V8.2673L8.47748 8.56083H42.2292V42.3125H8.47748V8.56083L8.18396 8.2673H42.5227V42.606H8.18396Z" fill="#FAE908"/>
<path fill-rule="evenodd" clip-rule="evenodd" d="M8.3324 42.4576V8.41238L8.62592 8.7059H42.0841V42.1641H8.62592V8.7059L8.3324 8.41238H42.3776V42.4576H8.3324Z" fill="#FAE908"/>
<path fill-rule="evenodd" clip-rule="evenodd" d="M8.47748 42.3125V8.56083L8.771 8.85435H41.9356V42.019H8.771V8.85435L8.47748 8.56083H42.2292V42.3125H8.47748Z" fill="#FAE908"/>
<path fill-rule="evenodd" clip-rule="evenodd" d="M8.62592 42.1641V8.7059L8.91944 8.99942H41.7906V41.8705H8.91944V8.99942L8.62592 8.7059H42.0841V42.1641H8.62592Z" fill="#FAE908"/>
<path fill-rule="evenodd" clip-rule="evenodd" d="M8.771 42.019V8.85435L9.06452 9.14787H41.6421V41.7255H9.06452V9.14787L8.771 8.85435H41.9356V42.019H8.771Z" fill="#FAE908"/>
<path fill-rule="evenodd" clip-rule="evenodd" d="M8.91943 41.8705V8.99942L9.21296 9.29295H41.497V41.577H9.21296V9.29295L8.91943 8.99942H41.7906V41.8705H8.91943Z" fill="#FAE908"/>
<path fill-rule="evenodd" clip-rule="evenodd" d="M9.06451 41.7255V9.14787L9.35804 9.44139H41.3486V41.4319H9.35804V9.44139L9.06451 9.14787H41.6421V41.7255H9.06451Z" fill="#FAE908"/>
<path fill-rule="evenodd" clip-rule="evenodd" d="M9.21301 41.577V9.29295L9.50653 9.58647H41.2036V41.2835H9.50653V9.58647L9.21301 9.29295H41.4971V41.577H9.21301Z" fill="#FAE908"/>
<path fill-rule="evenodd" clip-rule="evenodd" d="M9.35803 41.4319V9.44139L9.65155 9.73492H41.0551V41.1384H9.65155V9.73492L9.35803 9.44139H41.3486V41.4319H9.35803Z" fill="#FAE908"/>
<path fill-rule="evenodd" clip-rule="evenodd" d="M9.50653 41.2835V9.58647L9.80005 9.87999H40.91V40.99H9.80005V9.87999L9.50653 9.58647H41.2036V41.2835H9.50653Z" fill="#FAE908"/>
<path fill-rule="evenodd" clip-rule="evenodd" d="M9.65161 41.1384V9.73492L9.94513 10.0284H40.7616V40.8449H9.94513V10.0284L9.65161 9.73492H41.0551V41.1384H9.65161Z" fill="#FAE908"/>
<path fill-rule="evenodd" clip-rule="evenodd" d="M9.80005 40.99V9.87999L10.0936 10.1735H40.6165V40.6965H10.0936V10.1735L9.80005 9.87999H40.91V40.99H9.80005Z" fill="#FAE908"/>
<path fill-rule="evenodd" clip-rule="evenodd" d="M9.94513 40.8449V10.0284L10.2387 10.322H40.4681V40.5514H10.2387V10.322L9.94513 10.0284H40.7616V40.8449H9.94513Z" fill="#FAE908"/>
<path fill-rule="evenodd" clip-rule="evenodd" d="M10.0936 40.6965V10.1735L10.3871 10.467H40.323V40.4029H10.3871V10.467L10.0936 10.1735H40.6165V40.6965H10.0936Z" fill="#FAE908"/>
<path fill-rule="evenodd" clip-rule="evenodd" d="M10.2386 40.5514V10.322L10.5321 10.6155H40.1745V40.2579H10.5321V10.6155L10.2386 10.322H40.468V40.5514H10.2386Z" fill="#FAE908"/>
<path fill-rule="evenodd" clip-rule="evenodd" d="M10.3871 40.4029V10.467L10.6806 10.7606H40.0295V40.1094H10.6806V10.7606L10.3871 10.467H40.323V40.4029H10.3871Z" fill="#FAE908"/>
<path fill-rule="evenodd" clip-rule="evenodd" d="M10.5322 40.2579V10.6155L10.8257 10.909H39.881V39.9643H10.8257V10.909L10.5322 10.6155H40.1745V40.2579H10.5322Z" fill="#FAE908"/>
<path fill-rule="evenodd" clip-rule="evenodd" d="M10.6806 40.1094V10.7606L10.9741 11.0541H39.7359V39.8159H10.9741V11.0541L10.6806 10.7606H40.0295V40.1094H10.6806Z" fill="#FAE908"/>
<path fill-rule="evenodd" clip-rule="evenodd" d="M10.8257 39.9643V10.909L11.1192 11.2025H39.5875V39.6708H11.1192V11.2025L10.8257 10.909H39.881V39.9643H10.8257Z" fill="#FAE908"/>
<path fill-rule="evenodd" clip-rule="evenodd" d="M10.9741 39.8159V11.0541L11.2676 11.3476H39.4424V39.5224H11.2676V11.3476L10.9741 11.0541H39.7359V39.8159H10.9741Z" fill="#FAE908"/>
<path fill-rule="evenodd" clip-rule="evenodd" d="M11.1192 39.6708V11.2025L11.4127 11.496H39.294V39.3773H11.4127V11.496L11.1192 11.2025H39.5875V39.6708H11.1192Z" fill="#FAE908"/>
<path fill-rule="evenodd" clip-rule="evenodd" d="M11.2676 39.5224V11.3476L11.5612 11.6411H39.1489V39.2288H11.5612V11.6411L11.2676 11.3476H39.4424V39.5224H11.2676Z" fill="#FAE908"/>
<path fill-rule="evenodd" clip-rule="evenodd" d="M11.4127 39.3773V11.496L11.7062 11.7896H39.0004V39.0838H11.7062V11.7896L11.4127 11.496H39.294V39.3773H11.4127Z" fill="#FAE908"/>
<path fill-rule="evenodd" clip-rule="evenodd" d="M11.5612 39.2288V11.6411L11.8547 11.9346H38.8554V38.9353H11.8547V11.9346L11.5612 11.6411H39.1489V39.2288H11.5612Z" fill="#FAE908"/>
<path fill-rule="evenodd" clip-rule="evenodd" d="M11.7062 39.0838V11.7896L11.9998 12.0831H38.7069V38.7902H11.9998V12.0831L11.7062 11.7896H39.0004V39.0838H11.7062Z" fill="#FAE908"/>
<path fill-rule="evenodd" clip-rule="evenodd" d="M11.8547 38.9353V11.9346L12.1482 12.2282H38.5618V38.6418H12.1482V12.2282L11.8547 11.9346H38.8554V38.9353H11.8547Z" fill="#FAE908"/>
<path fill-rule="evenodd" clip-rule="evenodd" d="M11.9998 38.7902V12.0831L12.2933 12.3766H38.4134V38.4967H12.2933V12.3766L11.9998 12.0831H38.7069V38.7902H11.9998Z" fill="#FAE908"/>
<path fill-rule="evenodd" clip-rule="evenodd" d="M12.1482 38.6418V12.2282L12.4417 12.5217H38.2683V38.3483H12.4417V12.5217L12.1482 12.2282H38.5618V38.6418H12.1482Z" fill="#FAE908"/>
<path fill-rule="evenodd" clip-rule="evenodd" d="M12.2933 38.4967V12.3766L12.5868 12.6701H38.1199V38.2032H12.5868V12.6701L12.2933 12.3766H38.4134V38.4967H12.2933Z" fill="#FAE908"/>
<path fill-rule="evenodd" clip-rule="evenodd" d="M12.4417 38.3483V12.5217L12.7352 12.8152H37.9748V38.0548H12.7352V12.8152L12.4417 12.5217H38.2683V38.3483H12.4417Z" fill="#FAE908"/>
<path fill-rule="evenodd" clip-rule="evenodd" d="M12.5868 38.2032V12.6701L12.8803 12.9637H37.8263V37.9097H12.8803V12.9637L12.5868 12.6701H38.1199V38.2032H12.5868Z" fill="#FAE908"/>
<path fill-rule="evenodd" clip-rule="evenodd" d="M12.7352 38.0547V12.8152L13.0288 13.1087H37.6812V37.7612H13.0288V13.1087L12.7352 12.8152H37.9748V38.0547H12.7352Z" fill="#FAE908"/>
<path fill-rule="evenodd" clip-rule="evenodd" d="M12.8803 37.9097V12.9637L13.1738 13.2572H37.5328V37.6162H13.1738V13.2572L12.8803 12.9637H37.8263V37.9097H12.8803Z" fill="#FAE908"/>
<path fill-rule="evenodd" clip-rule="evenodd" d="M13.0287 37.7612V13.1087L13.3223 13.4023H37.3877V37.4677H13.3223V13.4023L13.0287 13.1087H37.6812V37.7612H13.0287Z" fill="#FAE908"/>
<path fill-rule="evenodd" clip-rule="evenodd" d="M13.1739 37.6162V13.2572L13.4674 13.5507H37.2393V37.3226H13.4674V13.5507L13.1739 13.2572H37.5329V37.6162H13.1739Z" fill="#FAE908"/>
<path fill-rule="evenodd" clip-rule="evenodd" d="M13.3223 37.4677V13.4023L13.6158 13.6958H37.0943V37.1742H13.6158V13.6958L13.3223 13.4023H37.3878V37.4677H13.3223Z" fill="#FAE908"/>
<path fill-rule="evenodd" clip-rule="evenodd" d="M13.4673 37.3226V13.5507L13.7609 13.8442H36.9458V37.0291H13.7609V13.8442L13.4673 13.5507H37.2393V37.3226H13.4673Z" fill="#FAE908"/>
<path fill-rule="evenodd" clip-rule="evenodd" d="M13.6158 37.1742V13.6958L13.9093 13.9893H36.8007V36.8807H13.9093V13.9893L13.6158 13.6958H37.0942V37.1742H13.6158Z" fill="#FAE908"/>
<path fill-rule="evenodd" clip-rule="evenodd" d="M13.7609 37.0291V13.8442L14.0544 14.1377H36.6522V36.7356H14.0544V14.1377L13.7609 13.8442H36.9457V37.0291H13.7609Z" fill="#FAE908"/>
<path fill-rule="evenodd" clip-rule="evenodd" d="M13.9093 36.8807V13.9893L14.2028 14.2828H36.5071V36.5871H14.2028V14.2828L13.9093 13.9893H36.8007V36.8807H13.9093Z" fill="#FAE908"/>
<path fill-rule="evenodd" clip-rule="evenodd" d="M14.0544 36.7356V14.1377L14.3479 14.4313H36.3587V36.4421H14.3479V14.4313L14.0544 14.1377H36.6522V36.7356H14.0544Z" fill="#FAE908"/>
<path fill-rule="evenodd" clip-rule="evenodd" d="M14.2029 36.5871V14.2828L14.4964 14.5763H36.2137V36.2936H14.4964V14.5763L14.2029 14.2828H36.5072V36.5871H14.2029Z" fill="#FAE908"/>
<path fill-rule="evenodd" clip-rule="evenodd" d="M14.348 36.4421V14.4313L14.6415 14.7248H36.0652V36.1485H14.6415V14.7248L14.348 14.4313H36.3588V36.4421H14.348Z" fill="#FAE908"/>
<path fill-rule="evenodd" clip-rule="evenodd" d="M14.4964 36.2936V14.5763L14.7899 14.8699H35.9201V36.0001H14.7899V14.8699L14.4964 14.5763H36.2137V36.2936H14.4964Z" fill="#FAE908"/>
<path fill-rule="evenodd" clip-rule="evenodd" d="M14.6415 36.1485V14.7248L14.935 15.0183H35.7717V35.855H14.935V15.0183L14.6415 14.7248H36.0652V36.1485H14.6415Z" fill="#FAE908"/>
<path fill-rule="evenodd" clip-rule="evenodd" d="M14.7899 36.0001V14.8699L15.0834 15.1634H35.6266V35.7066H15.0834V15.1634L14.7899 14.8699H35.9201V36.0001H14.7899Z" fill="#FAE908"/>
<path fill-rule="evenodd" clip-rule="evenodd" d="M14.9349 35.855V15.0183L15.2285 15.3118H35.4781V35.5615H15.2285V15.3118L14.9349 15.0183H35.7716V35.855H14.9349Z" fill="#FAE908"/>
<path fill-rule="evenodd" clip-rule="evenodd" d="M15.0834 35.7066V15.1634L15.3769 15.4569H35.333V35.4131H15.3769V15.4569L15.0834 15.1634H35.6266V35.7066H15.0834Z" fill="#FAE908"/>
<path fill-rule="evenodd" clip-rule="evenodd" d="M15.2285 35.5615V15.3118L15.522 15.6054H35.1847V35.268H15.522V15.6054L15.2285 15.3118H35.4782V35.5615H15.2285Z" fill="#FAE908"/>
<path fill-rule="evenodd" clip-rule="evenodd" d="M15.377 35.4131V15.4569L15.6705 15.7504H35.0396V35.1195H15.6705V15.7504L15.377 15.4569H35.3331V35.4131H15.377Z" fill="#FAE908"/>
<path fill-rule="evenodd" clip-rule="evenodd" d="M15.522 35.268V15.6054L15.8156 15.8989H34.8911V34.9745H15.8156V15.8989L15.522 15.6054H35.1847V35.268H15.522Z" fill="#FAE908"/>
<path fill-rule="evenodd" clip-rule="evenodd" d="M15.6705 35.1195V15.7504L15.964 16.044H34.746V34.826H15.964V16.044L15.6705 15.7504H35.0396V35.1195H15.6705Z" fill="#FAE908"/>
<path fill-rule="evenodd" clip-rule="evenodd" d="M15.8156 34.9745V15.8989L16.1091 16.1924H34.5976V34.6809H16.1091V16.1924L15.8156 15.8989H34.8911V34.9745H15.8156Z" fill="#FAE908"/>
<path fill-rule="evenodd" clip-rule="evenodd" d="M15.964 34.826V16.044L16.2575 16.3375H34.4525V34.5325H16.2575V16.3375L15.964 16.044H34.746V34.826H15.964Z" fill="#FAE908"/>
<path fill-rule="evenodd" clip-rule="evenodd" d="M16.1091 34.6809V16.1924L16.4026 16.4859H34.3041V34.3874H16.4026V16.4859L16.1091 16.1924H34.5976V34.6809H16.1091Z" fill="#FAE908"/>
<path fill-rule="evenodd" clip-rule="evenodd" d="M16.2575 34.5325V16.3375L16.551 16.631H34.159V34.239H16.551V16.631L16.2575 16.3375H34.4525V34.5325H16.2575Z" fill="#FAE908"/>
<path fill-rule="evenodd" clip-rule="evenodd" d="M16.4026 34.3874V16.4859L16.6961 16.7794H34.0105V34.0939H16.6961V16.7794L16.4026 16.4859H34.3041V34.3874H16.4026Z" fill="#FAE908"/>
<path fill-rule="evenodd" clip-rule="evenodd" d="M16.5511 34.239V16.631L16.8446 16.9245H33.8655V33.9454H16.8446V16.9245L16.5511 16.631H34.159V34.239H16.5511Z" fill="#FAE908"/>
<path fill-rule="evenodd" clip-rule="evenodd" d="M16.6961 34.0939V16.7794L16.9896 17.073H33.717V33.8004H16.9896V17.073L16.6961 16.7794H34.0105V34.0939H16.6961Z" fill="#FAE908"/>
<path fill-rule="evenodd" clip-rule="evenodd" d="M16.8445 33.9454V16.9245L17.1381 17.218H33.5719V33.6519H17.1381V17.218L16.8445 16.9245H33.8655V33.9454H16.8445Z" fill="#FAE908"/>
<path fill-rule="evenodd" clip-rule="evenodd" d="M16.9897 33.8004V17.073L17.2832 17.3665H33.4236V33.5068H17.2832V17.3665L16.9897 17.073H33.7171V33.8004H16.9897Z" fill="#FAE908"/>
<path fill-rule="evenodd" clip-rule="evenodd" d="M17.1381 33.6519V17.218L17.4316 17.5116H33.2784V33.3584H17.4316V17.5116L17.1381 17.218H33.5719V33.6519H17.1381Z" fill="#FAE908"/>
<path fill-rule="evenodd" clip-rule="evenodd" d="M17.2831 33.5068V17.3665L17.5767 17.66H33.13V33.2133H17.5767V17.66L17.2831 17.3665H33.4235V33.5068H17.2831Z" fill="#FAE908"/>
<path fill-rule="evenodd" clip-rule="evenodd" d="M17.4316 33.3584V17.5116L17.7251 17.8051H32.9849V33.0649H17.7251V17.8051L17.4316 17.5116H33.2784V33.3584H17.4316Z" fill="#FAE908"/>
<path fill-rule="evenodd" clip-rule="evenodd" d="M17.5767 33.2133V17.66L17.8702 17.9535H32.8364V32.9198H17.8702V17.9535L17.5767 17.66H33.13V33.2133H17.5767Z" fill="#FAE908"/>
<path fill-rule="evenodd" clip-rule="evenodd" d="M17.7251 33.0649V17.8051L18.0186 18.0986H32.6914V32.7714H18.0186V18.0986L17.7251 17.8051H32.9849V33.0649H17.7251Z" fill="#FAE908"/>
<path fill-rule="evenodd" clip-rule="evenodd" d="M17.8702 32.9198V17.9535L18.1638 18.2471H32.543V32.6263H18.1638V18.2471L17.8702 17.9535H32.8365V32.9198H17.8702Z" fill="#FAE908"/>
<path fill-rule="evenodd" clip-rule="evenodd" d="M18.0187 32.7714V18.0986L18.3122 18.3921H32.3979V32.4778H18.3122V18.3921L18.0187 18.0986H32.6914V32.7714H18.0187Z" fill="#FAE908"/>
<path fill-rule="evenodd" clip-rule="evenodd" d="M18.1637 32.6263V18.2471L18.4572 18.5406H32.2494V32.3328H18.4572V18.5406L18.1637 18.2471H32.5429V32.6263H18.1637Z" fill="#FAE908"/>
<path fill-rule="evenodd" clip-rule="evenodd" d="M18.3121 32.4778V18.3921L18.6057 18.6857H32.1043V32.1843H18.6057V18.6857L18.3121 18.3921H32.3978V32.4778H18.3121Z" fill="#FAE908"/>
<path fill-rule="evenodd" clip-rule="evenodd" d="M18.4572 32.3328V18.5406L18.7507 18.8341H31.9559V32.0392H18.7507V18.8341L18.4572 18.5406H32.2494V32.3328H18.4572Z" fill="#FAE908"/>
<path fill-rule="evenodd" clip-rule="evenodd" d="M18.6057 32.1843V18.6857L18.8992 18.9792H31.8108V31.8908H18.8992V18.9792L18.6057 18.6857H32.1044V32.1843H18.6057Z" fill="#FAE908"/>
<path fill-rule="evenodd" clip-rule="evenodd" d="M18.7507 32.0392V18.8341L19.0443 19.1276H31.6623V31.7457H19.0443V19.1276L18.7507 18.8341H31.9559V32.0392H18.7507Z" fill="#FAE908"/>
<path fill-rule="evenodd" clip-rule="evenodd" d="M18.8992 31.8908V18.9792L19.1894 19.2727H31.5173V31.6006H19.1894V19.2727L18.8992 18.9792H31.8108V31.8908H18.8992Z" fill="#FAE908"/>
<path fill-rule="evenodd" clip-rule="evenodd" d="M19.0443 31.7457V19.1276L19.3378 19.4211H31.3689V31.4522H19.3378V19.4211L19.0443 19.1276H31.6624V31.7457H19.0443Z" fill="#FAE908"/>
<path fill-rule="evenodd" clip-rule="evenodd" d="M19.1893 31.6006V19.2727L19.4829 19.5662H31.2237V31.3071H19.4829V19.5662L19.1893 19.2727H31.5173V31.6006H19.1893Z" fill="#FAE908"/>
<path fill-rule="evenodd" clip-rule="evenodd" d="M19.3378 31.4522V19.4212L19.6313 19.7147H31.0753V31.1587H19.6313V19.7147L19.3378 19.4212H31.3688V31.4522H19.3378Z" fill="#FAE908"/>
<path fill-rule="evenodd" clip-rule="evenodd" d="M19.4829 31.3071V19.5662L19.7764 19.8597H30.9303V31.0136H19.7764V19.8597L19.4829 19.5662H31.2238V31.3071H19.4829Z" fill="#FAE908"/>
<path fill-rule="evenodd" clip-rule="evenodd" d="M19.6313 31.1587V19.7147L19.9249 20.0082H30.7818V30.8651H19.9249V20.0082L19.6313 19.7147H31.0753V31.1587H19.6313Z" fill="#FAE908"/>
<path fill-rule="evenodd" clip-rule="evenodd" d="M19.7764 31.0136V19.8597L20.07 20.1533H30.6367V30.7201H20.07V20.1533L19.7764 19.8597H30.9303V31.0136H19.7764Z" fill="#FAE908"/>
<path fill-rule="evenodd" clip-rule="evenodd" d="M19.9249 30.8651V20.0048L20.2184 20.2983H30.4917V30.5716H20.2184V20.2983L19.9249 20.0048H30.7818V30.8651H19.9249Z" fill="#FAE908"/>
<path fill-rule="evenodd" clip-rule="evenodd" d="M20.0699 30.7201V20.1533L20.3635 20.4468H30.3432V30.4265H20.3635V20.4468L20.0699 20.1533H30.6367V30.7201H20.0699Z" fill="#FAE908"/>
<path fill-rule="evenodd" clip-rule="evenodd" d="M20.2184 30.5716V20.2983L20.5119 20.5919H30.1981V30.2781H20.5119V20.5919L20.2184 20.2983H30.4917V30.5716H20.2184Z" fill="#FAE908"/>
<path fill-rule="evenodd" clip-rule="evenodd" d="M20.3635 30.4265V20.4468L20.657 20.7403H30.0497V30.133H20.657V20.7403L20.3635 20.4468H30.3432V30.4265H20.3635Z" fill="#FAE908"/>
<path fill-rule="evenodd" clip-rule="evenodd" d="M20.5119 30.2781V20.5919L20.8054 20.8854H29.9046V29.9846H20.8054V20.8854L20.5119 20.5919H30.1981V30.2781H20.5119Z" fill="#FAE908"/>
<path fill-rule="evenodd" clip-rule="evenodd" d="M20.657 30.133V20.7403L20.9505 21.0338H29.7562V29.8395H20.9505V21.0338L20.657 20.7403H30.0497V30.133H20.657Z" fill="#FAE908"/>
<path fill-rule="evenodd" clip-rule="evenodd" d="M20.8054 29.9846V20.8854L21.0989 21.1789H29.6111V29.6911H21.0989V21.1789L20.8054 20.8854H29.9046V29.9846H20.8054Z" fill="#FAE908"/>
<path fill-rule="evenodd" clip-rule="evenodd" d="M20.9505 29.8395V21.0338L21.244 21.3274H29.4626V29.546H21.244V21.3274L20.9505 21.0338H29.7562V29.8395H20.9505Z" fill="#FAE908"/>
<path fill-rule="evenodd" clip-rule="evenodd" d="M21.0989 29.6911V21.1789L21.3925 21.4724H29.3176V29.3975H21.3925V21.4724L21.0989 21.1789H29.6111V29.6911H21.0989Z" fill="#FAE908"/>
<path fill-rule="evenodd" clip-rule="evenodd" d="M21.244 29.546V21.3274L21.5375 21.6209H29.1691V29.2525H21.5375V21.6209L21.244 21.3274H29.4626V29.546H21.244Z" fill="#FAE908"/>
<path fill-rule="evenodd" clip-rule="evenodd" d="M21.3925 29.3975V21.4724L21.686 21.7659H29.024V29.104H21.686V21.7659L21.3925 21.4724H29.3176V29.3975H21.3925Z" fill="#FAE908"/>
<path fill-rule="evenodd" clip-rule="evenodd" d="M21.5375 29.2525V21.6209L21.8311 21.9144H28.8756V28.9589H21.8311V21.9144L21.5375 21.6209H29.1691V29.2525H21.5375Z" fill="#FAE908"/>
<path fill-rule="evenodd" clip-rule="evenodd" d="M21.686 29.104V21.766L21.9795 22.0595H28.7305V28.8105H21.9795V22.0595L21.686 21.766H29.024V29.104H21.686Z" fill="#FAE908"/>
<path fill-rule="evenodd" clip-rule="evenodd" d="M21.8311 28.9589V21.9144L22.1246 22.2079H28.5821V28.6654H22.1246V22.2079L21.8311 21.9144H28.8756V28.9589H21.8311Z" fill="#FAE908"/>
<path fill-rule="evenodd" clip-rule="evenodd" d="M21.9795 28.8105V22.0595L22.273 22.353H28.437V28.517H22.273V22.353L21.9795 22.0595H28.7305V28.8105H21.9795Z" fill="#FAE908"/>
<path fill-rule="evenodd" clip-rule="evenodd" d="M22.1246 28.6654V22.2079L22.4181 22.5014H28.2885V28.3719H22.4181V22.5014L22.1246 22.2079H28.5821V28.6654H22.1246Z" fill="#FAE908"/>
<path fill-rule="evenodd" clip-rule="evenodd" d="M22.2731 28.517V22.353L22.5666 22.6465H28.1435V28.2234H22.5666V22.6465L22.2731 22.353H28.437V28.517H22.2731Z" fill="#FAE908"/>
<path fill-rule="evenodd" clip-rule="evenodd" d="M22.4181 28.3719V22.5014L22.7116 22.795H27.995V28.0784H22.7116V22.795L22.4181 22.5014H28.2885V28.3719H22.4181Z" fill="#FAE908"/>
<path fill-rule="evenodd" clip-rule="evenodd" d="M22.5665 28.2234V22.6465L22.8601 22.94H27.8499V27.9299H22.8601V22.94L22.5665 22.6465H28.1434V28.2234H22.5665Z" fill="#FAE908"/>
<path fill-rule="evenodd" clip-rule="evenodd" d="M22.7116 28.0784V22.795L23.0051 23.0885H27.7015V27.7848H23.0051V23.0885L22.7116 22.795H27.995V28.0784H22.7116Z" fill="#FAE908"/>
<path fill-rule="evenodd" clip-rule="evenodd" d="M22.86 27.9299V22.94L23.1536 23.2336H27.5564V27.6364H23.1536V23.2336L22.86 22.94H27.8499V27.9299H22.86Z" fill="#FAE908"/>
<path fill-rule="evenodd" clip-rule="evenodd" d="M23.0051 27.7848V23.0885L23.2986 23.382H27.408V27.4913H23.2986V23.382L23.0051 23.0885H27.7015V27.7848H23.0051Z" fill="#FAE908"/>
<path fill-rule="evenodd" clip-rule="evenodd" d="M23.1536 27.6364V23.2336L23.4471 23.5271H27.2629V27.3429H23.4471V23.5271L23.1536 23.2336H27.5564V27.6364H23.1536Z" fill="#FAE908"/>
<path fill-rule="evenodd" clip-rule="evenodd" d="M23.2987 27.4913V23.382L23.5922 23.6755H27.1145V27.1978H23.5922V23.6755L23.2987 23.382H27.408V27.4913H23.2987Z" fill="#FAE908"/>
<path fill-rule="evenodd" clip-rule="evenodd" d="M23.4471 27.3429V23.5271L23.7407 23.8206H26.9694V27.0494H23.7407V23.8206L23.4471 23.5271H27.2629V27.3429H23.4471Z" fill="#FAE908"/>
<path fill-rule="evenodd" clip-rule="evenodd" d="M23.5922 27.1978V23.6755L23.8857 23.9691H26.821V26.9043H23.8857V23.9691L23.5922 23.6755H27.1145V27.1978H23.5922Z" fill="#FAE908"/>
<path fill-rule="evenodd" clip-rule="evenodd" d="M23.7407 27.0494V23.8206L24.0342 24.1141H26.6759V26.7558H24.0342V24.1141L23.7407 23.8206H26.9694V27.0494H23.7407Z" fill="#FAE908"/>
<path fill-rule="evenodd" clip-rule="evenodd" d="M23.8857 26.9043V23.9691L24.1793 24.2626H26.5274V26.6108H24.1793V24.2626L23.8857 23.9691H26.821V26.9043H23.8857Z" fill="#FAE908"/>
<path fill-rule="evenodd" clip-rule="evenodd" d="M24.0342 26.7558V24.1141L24.3277 24.4077H26.3824V26.4623H24.3277V24.4077L24.0342 24.1141H26.6759V26.7558H24.0342Z" fill="#FAE908"/>
<path fill-rule="evenodd" clip-rule="evenodd" d="M24.1793 26.6108V24.2626L24.4728 24.5561H26.2339V26.3172H24.4728V24.5561L24.1793 24.2626H26.5274V26.6108H24.1793Z" fill="#FAE908"/>
<path fill-rule="evenodd" clip-rule="evenodd" d="M24.3277 26.4623V24.4077L24.6212 24.7012H26.0888V26.1688H24.6212V24.7012L24.3277 24.4077H26.3824V26.4623H24.3277Z" fill="#FAE908"/>
<path fill-rule="evenodd" clip-rule="evenodd" d="M24.4728 26.3172V24.5561L24.7663 24.8496H25.9404V26.0237H24.7663V24.8496L24.4728 24.5561H26.2339V26.3172H24.4728Z" fill="#FAE908"/>
<path fill-rule="evenodd" clip-rule="evenodd" d="M24.6212 26.1688V24.7012L24.9147 24.9947H25.7953V25.8753H24.9147V24.9947L24.6212 24.7012H26.0888V26.1688H24.6212Z" fill="#FAE908"/>
<path fill-rule="evenodd" clip-rule="evenodd" d="M24.7663 26.0237V24.8496L25.0598 25.1431H25.6469V25.7302H25.0598V25.1431L24.7663 24.8496H25.9404V26.0237H24.7663Z" fill="#FAE908"/>
<path fill-rule="evenodd" clip-rule="evenodd" d="M24.9147 25.8753V24.9947L25.2083 25.2882H25.5018V25.5817H25.2083V25.2882L24.9147 24.9947H25.7953V25.8753H24.9147Z" fill="#FAE908"/>
<path fill-rule="evenodd" clip-rule="evenodd" d="M25.0598 25.7302V25.1431L25.3533 25.4367L25.0598 25.1431H25.6469V25.7302H25.0598Z" fill="#FAE908"/>
<path fill-rule="evenodd" clip-rule="evenodd" d="M25.5018 25.2882V25.5817H25.2083V25.2882H25.5018Z" fill="#FAE908"/>
<g clip-path="url(#clip1)">
<path d="M36.694 18.5805C36.6931 18.5739 36.692 18.5674 36.691 18.5608C36.6871 18.5365 36.682 18.5126 36.6755 18.4892C36.6745 18.4856 36.6738 18.4821 36.6727 18.4785C36.6647 18.4515 36.6549 18.4252 36.6434 18.3998C36.6415 18.3955 36.6393 18.3913 36.6373 18.387C36.6269 18.365 36.6153 18.3437 36.6026 18.3232C36.6001 18.319 36.5977 18.3148 36.5951 18.3108C36.5802 18.2879 36.564 18.2661 36.5464 18.2454C36.5429 18.2413 36.5392 18.2375 36.5356 18.2335C36.5202 18.2162 36.5038 18.1998 36.4866 18.1843C36.4822 18.1803 36.478 18.1762 36.4736 18.1724C36.4527 18.1545 36.4307 18.1379 36.4076 18.1228C36.404 18.1205 36.4003 18.1184 36.3967 18.1162C36.3748 18.1024 36.352 18.09 36.3285 18.079C36.3261 18.0778 36.3239 18.0763 36.3215 18.0752L25.2664 13.0577C25.0972 12.9807 24.9028 12.9807 24.7336 13.0577L17.095 16.5247C16.7707 16.6719 16.6272 17.054 16.7744 17.3782C16.9215 17.7024 17.3038 17.8463 17.6279 17.6988L25 14.3527L34.4743 18.6528L25 22.8165L14.2044 18.0722C14.2036 18.0718 14.2028 18.0716 14.2021 18.0713C14.1862 18.0644 14.1699 18.0585 14.1535 18.0528C14.1494 18.0514 14.1452 18.0496 14.1411 18.0483C14.1276 18.044 14.1137 18.0406 14.0998 18.0372C14.0925 18.0354 14.0852 18.0331 14.0778 18.0316C14.069 18.0297 14.0599 18.0287 14.0508 18.0271C14.0383 18.0251 14.0257 18.0227 14.0132 18.0214C14.0074 18.0208 14.0012 18.0207 13.9953 18.0202C13.9796 18.019 13.9639 18.018 13.9483 18.0179C13.9472 18.0179 13.9461 18.0177 13.945 18.0177C13.9389 18.0177 13.933 18.0185 13.927 18.0187C13.9131 18.019 13.8991 18.0195 13.8854 18.0208C13.8746 18.0217 13.8641 18.0234 13.8536 18.025C13.8439 18.0264 13.8341 18.0275 13.8245 18.0294C13.8114 18.0319 13.7986 18.0352 13.7857 18.0384C13.7787 18.0402 13.7717 18.0417 13.7649 18.0438C13.7509 18.0478 13.7374 18.0526 13.7239 18.0575C13.718 18.0596 13.7122 18.0616 13.7064 18.0639C13.6931 18.0692 13.6801 18.0752 13.6672 18.0814C13.6613 18.0843 13.6552 18.0869 13.6493 18.09C13.6376 18.0961 13.6262 18.1027 13.6149 18.1095C13.608 18.1136 13.601 18.1176 13.5943 18.122C13.5846 18.1283 13.5752 18.1351 13.5659 18.1419C13.558 18.1475 13.5502 18.1532 13.5427 18.1592C13.5347 18.1656 13.5271 18.1723 13.5195 18.179C13.5113 18.1862 13.5031 18.1934 13.4953 18.201C13.4885 18.2076 13.482 18.2147 13.4756 18.2216C13.4679 18.2298 13.4601 18.238 13.4527 18.2467C13.4462 18.2544 13.4401 18.2627 13.4338 18.2707C13.4275 18.279 13.4211 18.2871 13.4151 18.2957C13.408 18.3061 13.4015 18.3168 13.395 18.3276C13.3908 18.3345 13.3863 18.3413 13.3822 18.3484C13.3745 18.3624 13.3676 18.3767 13.3608 18.3912C13.359 18.3953 13.3566 18.399 13.3548 18.4032C13.3545 18.404 13.3543 18.4048 13.354 18.4055C13.3471 18.4213 13.3412 18.4376 13.3356 18.4539C13.3341 18.4581 13.3323 18.4622 13.3309 18.4665C13.3267 18.4798 13.3234 18.4935 13.32 18.5072C13.3181 18.5148 13.3158 18.5222 13.3142 18.5299C13.3124 18.5383 13.3114 18.5469 13.31 18.5554C13.3077 18.5685 13.3053 18.5816 13.3039 18.5947C13.3034 18.5999 13.3034 18.605 13.303 18.6102C13.3016 18.6267 13.3006 18.6433 13.3005 18.6598C13.3005 18.6607 13.3004 18.6616 13.3004 18.6626V31.2495C13.3004 31.5009 13.4465 31.7294 13.6748 31.8348L24.7298 36.9407C24.7298 36.9407 24.7313 36.9412 24.732 36.9416C24.7367 36.9437 24.7415 36.9452 24.7463 36.9472C24.7678 36.9564 24.7893 36.9645 24.8113 36.9712C24.8189 36.9735 24.8266 36.9755 24.8345 36.9776C24.8554 36.9831 24.8762 36.9876 24.8972 36.9911C24.9037 36.9921 24.9101 36.9934 24.9166 36.9942C24.9443 36.9978 24.9721 37.0003 24.9997 37.0003C25.0024 37.0003 25.0051 36.9997 25.0078 36.9997C25.0322 36.9994 25.0565 36.9976 25.0807 36.9945C25.0897 36.9934 25.0985 36.9917 25.1072 36.9902C25.126 36.987 25.1448 36.9831 25.1634 36.9782C25.172 36.9759 25.1805 36.9737 25.1891 36.971C25.2096 36.9648 25.2297 36.9573 25.2497 36.9488C25.2553 36.9465 25.261 36.9446 25.2665 36.9421C25.2678 36.9415 25.2692 36.9412 25.2704 36.9406L36.3254 31.8347C36.5536 31.7293 36.6997 31.5009 36.6997 31.2494V18.6624C36.6997 18.6346 36.6974 18.6074 36.694 18.5805ZM25.6447 35.3472V26.6905C25.6447 26.3344 25.3562 26.0458 25 26.0458C24.6439 26.0458 24.3553 26.3344 24.3553 26.6905V35.3473L14.5897 30.837V19.6499L24.7407 24.1109C24.8234 24.1472 24.9117 24.1654 25.0001 24.1654C25.0886 24.1654 25.1768 24.1472 25.2595 24.1109L35.4103 19.6499V30.8369L25.6447 35.3472Z" fill="#222220"/>
</g>
</g>
<defs>
<clipPath id="clip0">
<rect width="50" height="50" fill="white"/>
</clipPath>
<clipPath id="clip1">
<rect width="24" height="24" fill="white" transform="translate(13 13)"/>
</clipPath>
</defs>
</svg>
