<svg width="50" height="50" viewBox="0 0 50 50" fill="none" xmlns="http://www.w3.org/2000/svg">
<g clip-path="url(#clip0)">
<path fill-rule="evenodd" clip-rule="evenodd" d="M7.10002 0.190002H42.76C46.67 0.190002 49.84 3.36 49.84 7.27V42.93C49.84 46.84 46.67 50.01 42.76 50.01H7.10002C3.19002 50.01 0.0200195 46.84 0.0200195 42.93V7.27C0.0200195 3.36 3.19002 0.190002 7.10002 0.190002Z" fill="#568B71"/>
<path fill-rule="evenodd" clip-rule="evenodd" d="M3 3.17H46.865V47.035H3V3.17L3.145 3.315H46.72V46.89H3.145V3.315L3 3.17Z" fill="#538A6D"/>
<path fill-rule="evenodd" clip-rule="evenodd" d="M3.07501 3.245H46.79V46.96H3.07501V3.245L3.22001 3.39H46.645V46.815H3.22001V3.39L3.07501 3.245Z" fill="#538A6D"/>
<path fill-rule="evenodd" clip-rule="evenodd" d="M3.14502 3.315H46.72V46.89H3.14502V3.315L3.29002 3.465H46.57V46.745H3.29002V3.465L3.14502 3.315Z" fill="#538A6D"/>
<path fill-rule="evenodd" clip-rule="evenodd" d="M3.21997 3.39H46.645V46.815H3.21997V3.39L3.36497 3.535H46.5V46.67H3.36497V3.535L3.21997 3.39Z" fill="#538B6E"/>
<path fill-rule="evenodd" clip-rule="evenodd" d="M3.28998 3.465H46.57V46.745H3.28998V3.465L3.43998 3.61H46.425V46.595H3.43998V3.61L3.28998 3.465Z" fill="#548B6E"/>
<path fill-rule="evenodd" clip-rule="evenodd" d="M3.36499 3.535H46.5V46.67H3.36499V3.535L3.50999 3.68H46.355V46.525H3.50999V3.68L3.36499 3.535Z" fill="#548C6F"/>
<path fill-rule="evenodd" clip-rule="evenodd" d="M3.44 3.61H46.425V46.595H3.44V3.61L3.585 3.755H46.28V46.45H3.585V3.755L3.44 3.61Z" fill="#548C6F"/>
<path fill-rule="evenodd" clip-rule="evenodd" d="M3.51001 3.68H46.355V46.525H3.51001V3.68L3.66001 3.83H46.205V46.375H3.66001V3.83L3.51001 3.68Z" fill="#558D6F"/>
<path fill-rule="evenodd" clip-rule="evenodd" d="M3.58502 3.755H46.28V46.45H3.58502V3.755L3.73002 3.9H46.135V46.305H3.73002V3.9L3.58502 3.755Z" fill="#558D70"/>
<path fill-rule="evenodd" clip-rule="evenodd" d="M3.65997 3.83H46.205V46.375H3.65997V3.83L3.80497 3.975H46.06V46.23H3.80497V3.975L3.65997 3.83Z" fill="#558E70"/>
<path fill-rule="evenodd" clip-rule="evenodd" d="M3.72998 3.9H46.135V46.305H3.72998V3.9L3.87498 4.05H45.985V46.16H3.87498V4.05L3.72998 3.9Z" fill="#568E71"/>
<path fill-rule="evenodd" clip-rule="evenodd" d="M3.80499 3.975H46.06V46.23H3.80499V3.975L3.94999 4.12H45.915V46.085H3.94999V4.12L3.80499 3.975Z" fill="#568F71"/>
<path fill-rule="evenodd" clip-rule="evenodd" d="M3.875 4.05H45.985V46.16H3.875V4.05L4.025 4.195H45.84V46.01H4.025V4.195L3.875 4.05Z" fill="#568F72"/>
<path fill-rule="evenodd" clip-rule="evenodd" d="M3.95001 4.12H45.915V46.085H3.95001V4.12L4.09501 4.265H45.77V45.94H4.09501V4.265L3.95001 4.12Z" fill="#569072"/>
<path fill-rule="evenodd" clip-rule="evenodd" d="M4.02496 4.195H45.84V46.01H4.02496V4.195L4.16996 4.34H45.695V45.865H4.16996V4.34L4.02496 4.195Z" fill="#579072"/>
<path fill-rule="evenodd" clip-rule="evenodd" d="M4.09503 4.265H45.77V45.94H4.09503V4.265L4.24503 4.415H45.62V45.79H4.24503V4.415L4.09503 4.265Z" fill="#579173"/>
<path fill-rule="evenodd" clip-rule="evenodd" d="M4.17004 4.34H45.695V45.865H4.17004V4.34L4.31504 4.485H45.55V45.72H4.31504V4.485L4.17004 4.34Z" fill="#579173"/>
<path fill-rule="evenodd" clip-rule="evenodd" d="M4.245 4.415H45.62V45.79H4.245V4.415L4.39 4.56H45.475V45.645H4.39V4.56L4.245 4.415Z" fill="#589274"/>
<path fill-rule="evenodd" clip-rule="evenodd" d="M4.315 4.485H45.55V45.72H4.315V4.485L4.46 4.635H45.4V45.575H4.46V4.635L4.315 4.485Z" fill="#589274"/>
<path fill-rule="evenodd" clip-rule="evenodd" d="M4.39001 4.56H45.475V45.645H4.39001V4.56L4.53501 4.705H45.33V45.5H4.53501V4.705L4.39001 4.56Z" fill="#589375"/>
<path fill-rule="evenodd" clip-rule="evenodd" d="M4.45996 4.635H45.4V45.575H4.45996V4.635L4.60996 4.78H45.255V45.425H4.60996V4.78L4.45996 4.635Z" fill="#599375"/>
<path fill-rule="evenodd" clip-rule="evenodd" d="M4.53503 4.705H45.33V45.5H4.53503V4.705L4.68003 4.85H45.185V45.355H4.68003V4.85L4.53503 4.705Z" fill="#599475"/>
<path fill-rule="evenodd" clip-rule="evenodd" d="M4.60999 4.78H45.255V45.425H4.60999V4.78L4.75499 4.925H45.11V45.28H4.75499V4.925L4.60999 4.78Z" fill="#599476"/>
<path fill-rule="evenodd" clip-rule="evenodd" d="M4.67999 4.85H45.185V45.355H4.67999V4.85L4.82499 5H45.035V45.21H4.82499V5L4.67999 4.85Z" fill="#599576"/>
<path fill-rule="evenodd" clip-rule="evenodd" d="M4.755 4.925H45.11V45.28H4.755V4.925L4.9 5.07H44.965V45.135H4.9V5.07L4.755 4.925Z" fill="#5A9577"/>
<path fill-rule="evenodd" clip-rule="evenodd" d="M4.82501 5H45.035V45.21H4.82501V5L4.97501 5.145H44.89V45.06H4.97501V5.145L4.82501 5Z" fill="#5A9677"/>
<path fill-rule="evenodd" clip-rule="evenodd" d="M4.89996 5.07H44.965V45.135H4.89996V5.07L5.04496 5.22H44.815V44.99H5.04496V5.22L4.89996 5.07Z" fill="#5A9678"/>
<path fill-rule="evenodd" clip-rule="evenodd" d="M4.97504 5.145H44.89V45.06H4.97504V5.145L5.12004 5.29H44.745V44.915H5.12004V5.29L4.97504 5.145Z" fill="#5B9778"/>
<path fill-rule="evenodd" clip-rule="evenodd" d="M5.04504 5.22H44.815V44.99H5.04504V5.22L5.19504 5.365H44.67V44.84H5.19504V5.365L5.04504 5.22Z" fill="#5B9778"/>
<path fill-rule="evenodd" clip-rule="evenodd" d="M5.12 5.29H44.745V44.915H5.12V5.29L5.265 5.435H44.6V44.77H5.265V5.435L5.12 5.29Z" fill="#5B9879"/>
<path fill-rule="evenodd" clip-rule="evenodd" d="M5.19501 5.365H44.67V44.84H5.19501V5.365L5.34001 5.51H44.525V44.695H5.34001V5.51L5.19501 5.365Z" fill="#5C9879"/>
<path fill-rule="evenodd" clip-rule="evenodd" d="M5.26501 5.435H44.6V44.77H5.26501V5.435L5.41001 5.585H44.45V44.625H5.41001V5.585L5.26501 5.435Z" fill="#5C997A"/>
<path fill-rule="evenodd" clip-rule="evenodd" d="M5.33997 5.51H44.525V44.695H5.33997V5.51L5.48497 5.655H44.38V44.55H5.48497V5.655L5.33997 5.51Z" fill="#5C997A"/>
<path fill-rule="evenodd" clip-rule="evenodd" d="M5.41003 5.585H44.45V44.625H5.41003V5.585L5.56003 5.73H44.305V44.475H5.56003V5.73L5.41003 5.585Z" fill="#5D9A7B"/>
<path fill-rule="evenodd" clip-rule="evenodd" d="M5.48499 5.655H44.38V44.55H5.48499V5.655L5.62999 5.8H44.235V44.405H5.62999V5.8L5.48499 5.655Z" fill="#5D9A7B"/>
<path fill-rule="evenodd" clip-rule="evenodd" d="M5.56 5.73H44.305V44.475H5.56V5.73L5.705 5.875H44.16V44.33H5.705V5.875L5.56 5.73Z" fill="#5D9A7B"/>
<path fill-rule="evenodd" clip-rule="evenodd" d="M5.63 5.8H44.235V44.405H5.63V5.8L5.78 5.95H44.085V44.255H5.78V5.95L5.63 5.8Z" fill="#5D9B7C"/>
<path fill-rule="evenodd" clip-rule="evenodd" d="M5.70496 5.875H44.16V44.33H5.70496V5.875L5.84996 6.02H44.015V44.185H5.84996V6.02L5.70496 5.875Z" fill="#5E9B7C"/>
<path fill-rule="evenodd" clip-rule="evenodd" d="M5.77997 5.95H44.085V44.255H5.77997V5.95L5.92497 6.095H43.94V44.11H5.92497V6.095L5.77997 5.95Z" fill="#5E9C7D"/>
<path fill-rule="evenodd" clip-rule="evenodd" d="M5.85004 6.02H44.015V44.185H5.85004V6.02L5.99504 6.17H43.865V44.04H5.99504V6.17L5.85004 6.02Z" fill="#5E9C7D"/>
<path fill-rule="evenodd" clip-rule="evenodd" d="M5.92499 6.095H43.94V44.11H5.92499V6.095L6.06999 6.24H43.795V43.965H6.06999V6.24L5.92499 6.095Z" fill="#5F9D7D"/>
<path fill-rule="evenodd" clip-rule="evenodd" d="M5.995 6.17H43.865V44.04H5.995V6.17L6.145 6.315H43.72V43.89H6.145V6.315L5.995 6.17Z" fill="#5F9D7E"/>
<path fill-rule="evenodd" clip-rule="evenodd" d="M6.07001 6.24H43.795V43.965H6.07001V6.24L6.21501 6.385H43.65V43.82H6.21501V6.385L6.07001 6.24Z" fill="#5F9E7E"/>
<path fill-rule="evenodd" clip-rule="evenodd" d="M6.14496 6.315H43.72V43.89H6.14496V6.315L6.28996 6.46H43.575V43.745H6.28996V6.46L6.14496 6.315Z" fill="#609E7F"/>
<path fill-rule="evenodd" clip-rule="evenodd" d="M6.21497 6.385H43.65V43.82H6.21497V6.385L6.36497 6.535H43.5V43.67H6.36497V6.535L6.21497 6.385Z" fill="#609F7F"/>
<path fill-rule="evenodd" clip-rule="evenodd" d="M6.29004 6.46H43.575V43.745H6.29004V6.46L6.43504 6.605H43.43V43.6H6.43504V6.605L6.29004 6.46Z" fill="#609F80"/>
<path fill-rule="evenodd" clip-rule="evenodd" d="M6.36499 6.535H43.5V43.67H6.36499V6.535L6.50999 6.68H43.355V43.525H6.50999V6.68L6.36499 6.535Z" fill="#60A080"/>
<path fill-rule="evenodd" clip-rule="evenodd" d="M6.435 6.605H43.43V43.6H6.435V6.605L6.58 6.755H43.28V43.455H6.58V6.755L6.435 6.605Z" fill="#61A080"/>
<path fill-rule="evenodd" clip-rule="evenodd" d="M6.51001 6.68H43.355V43.525H6.51001V6.68L6.65501 6.825H43.21V43.38H6.65501V6.825L6.51001 6.68Z" fill="#61A181"/>
<path fill-rule="evenodd" clip-rule="evenodd" d="M6.57996 6.755H43.28V43.455H6.57996V6.755L6.72996 6.9H43.135V43.305H6.72996V6.9L6.57996 6.755Z" fill="#61A181"/>
<path fill-rule="evenodd" clip-rule="evenodd" d="M6.65497 6.825H43.21V43.38H6.65497V6.825L6.79997 6.97H43.065V43.235H6.79997V6.97L6.65497 6.825Z" fill="#62A282"/>
<path fill-rule="evenodd" clip-rule="evenodd" d="M6.73004 6.9H43.135V43.305H6.73004V6.9L6.87504 7.045H42.99V43.16H6.87504V7.045L6.73004 6.9Z" fill="#62A282"/>
<path fill-rule="evenodd" clip-rule="evenodd" d="M6.79999 6.97H43.065V43.235H6.79999V6.97L6.94999 7.12H42.915V43.085H6.94999V7.12L6.79999 6.97Z" fill="#62A383"/>
<path fill-rule="evenodd" clip-rule="evenodd" d="M6.875 7.045H42.99V43.16H6.875V7.045L7.02 7.19H42.845V43.015H7.02V7.19L6.875 7.045Z" fill="#63A383"/>
<path fill-rule="evenodd" clip-rule="evenodd" d="M6.95001 7.12H42.915V43.085H6.95001V7.12L7.09501 7.265H42.77V42.94H7.09501V7.265L6.95001 7.12Z" fill="#63A483"/>
<path fill-rule="evenodd" clip-rule="evenodd" d="M7.01996 7.19H42.845V43.015H7.01996V7.19L7.16496 7.34H42.695V42.87H7.16496V7.34L7.01996 7.19Z" fill="#63A484"/>
<path fill-rule="evenodd" clip-rule="evenodd" d="M7.09503 7.265H42.77V42.94H7.09503V7.265L7.24003 7.41H42.625V42.795H7.24003V7.41L7.09503 7.265Z" fill="#63A584"/>
<path fill-rule="evenodd" clip-rule="evenodd" d="M7.16504 7.34H42.695V42.87H7.16504V7.34L7.31504 7.485H42.55V42.72H7.31504V7.485L7.16504 7.34Z" fill="#64A585"/>
<path fill-rule="evenodd" clip-rule="evenodd" d="M7.23999 7.41H42.625V42.795H7.23999V7.41L7.38499 7.555H42.48V42.65H7.38499V7.555L7.23999 7.41Z" fill="#64A685"/>
<path fill-rule="evenodd" clip-rule="evenodd" d="M7.315 7.485H42.55V42.72H7.315V7.485L7.46 7.63H42.405V42.575H7.46V7.63L7.315 7.485Z" fill="#64A686"/>
<path fill-rule="evenodd" clip-rule="evenodd" d="M7.38501 7.555H42.48V42.65H7.38501V7.555L7.53501 7.705H42.33V42.5H7.53501V7.705L7.38501 7.555Z" fill="#65A786"/>
<path fill-rule="evenodd" clip-rule="evenodd" d="M7.45996 7.63H42.405V42.575H7.45996V7.63L7.60496 7.775H42.26V42.43H7.60496V7.775L7.45996 7.63Z" fill="#65A786"/>
<path fill-rule="evenodd" clip-rule="evenodd" d="M7.53503 7.705H42.33V42.5H7.53503V7.705L7.68003 7.85H42.185V42.355H7.68003V7.85L7.53503 7.705Z" fill="#65A887"/>
<path fill-rule="evenodd" clip-rule="evenodd" d="M7.60504 7.775H42.26V42.43H7.60504V7.775L7.75004 7.925H42.115V42.285H7.75004V7.925L7.60504 7.775Z" fill="#66A887"/>
<path fill-rule="evenodd" clip-rule="evenodd" d="M7.67999 7.85H42.185V42.355H7.67999V7.85L7.82499 7.995H42.04V42.21H7.82499V7.995L7.67999 7.85Z" fill="#66A988"/>
<path fill-rule="evenodd" clip-rule="evenodd" d="M7.75 7.92H42.115V42.285H7.75V7.92L7.9 8.07H41.965V42.135H7.9V8.07L7.75 7.92Z" fill="#66A988"/>
<path fill-rule="evenodd" clip-rule="evenodd" d="M7.82501 7.995H42.04V42.21H7.82501V7.995L7.97001 8.14H41.895V42.065H7.97001V8.14L7.82501 7.995Z" fill="#67AA89"/>
<path fill-rule="evenodd" clip-rule="evenodd" d="M7.89996 8.07H41.965V42.135H7.89996V8.07L8.04496 8.215H41.82V41.99H8.04496V8.215L7.89996 8.07Z" fill="#67AA89"/>
<path fill-rule="evenodd" clip-rule="evenodd" d="M7.97003 8.14H41.895V42.065H7.97003V8.14L8.11503 8.29H41.745V41.92H8.11503V8.29L7.97003 8.14Z" fill="#67AA89"/>
<path fill-rule="evenodd" clip-rule="evenodd" d="M8.04504 8.215H41.82V41.99H8.04504V8.215L8.19004 8.36H41.675V41.845H8.19004V8.36L8.04504 8.215Z" fill="#67AA89"/>
<path fill-rule="evenodd" clip-rule="evenodd" d="M8.11499 8.29H41.745V41.92H8.11499V8.29L8.26499 8.435H41.6V41.77H8.26499V8.435L8.11499 8.29Z" fill="#67AA89"/>
<path fill-rule="evenodd" clip-rule="evenodd" d="M8.18994 8.36H41.6749V41.845H8.18994V8.36L8.33494 8.505H41.5299V41.7H8.33494V8.505L8.18994 8.36Z" fill="#67AA89"/>
<path fill-rule="evenodd" clip-rule="evenodd" d="M8.26501 8.435H41.6V41.77H8.26501V8.435L8.41001 8.58H41.455V41.625H8.41001V8.58L8.26501 8.435Z" fill="#67AA89"/>
<path fill-rule="evenodd" clip-rule="evenodd" d="M8.33496 8.505H41.53V41.7H8.33496V8.505L8.48496 8.655H41.38V41.55H8.48496V8.655L8.33496 8.505Z" fill="#67AA89"/>
<path fill-rule="evenodd" clip-rule="evenodd" d="M8.41003 8.58H41.455V41.625H8.41003V8.58L8.55503 8.725H41.31V41.48H8.55503V8.725L8.41003 8.58Z" fill="#67AA89"/>
<path fill-rule="evenodd" clip-rule="evenodd" d="M8.48499 8.655H41.38V41.55H8.48499V8.655L8.62999 8.8H41.235V41.405H8.62999V8.8L8.48499 8.655Z" fill="#67AA89"/>
<path fill-rule="evenodd" clip-rule="evenodd" d="M8.55505 8.725H41.3101V41.48H8.55505V8.725L8.70005 8.875H41.1601V41.335H8.70005V8.875L8.55505 8.725Z" fill="#67AA89"/>
<path fill-rule="evenodd" clip-rule="evenodd" d="M8.63 8.8H41.235V41.405H8.63V8.8L8.775 8.945H41.09V41.26H8.775V8.945L8.63 8.8Z" fill="#67AA89"/>
<path fill-rule="evenodd" clip-rule="evenodd" d="M8.69995 8.875H41.16V41.335H8.69995V8.875L8.84995 9.02H41.015V41.185H8.84995V9.02L8.69995 8.875Z" fill="#67AA89"/>
<path fill-rule="evenodd" clip-rule="evenodd" d="M8.77502 8.945H41.09V41.26H8.77502V8.945L8.92002 9.09H40.945V41.115H8.92002V9.09L8.77502 8.945Z" fill="#67AA89"/>
<path fill-rule="evenodd" clip-rule="evenodd" d="M8.84998 9.02H41.015V41.185H8.84998V9.02L8.99498 9.165H40.87V41.04H8.99498V9.165L8.84998 9.02Z" fill="#67AA89"/>
<path fill-rule="evenodd" clip-rule="evenodd" d="M8.92004 9.09H40.945V41.115H8.92004V9.09L9.07004 9.24H40.795V40.965H9.07004V9.24L8.92004 9.09Z" fill="#67AA89"/>
<path fill-rule="evenodd" clip-rule="evenodd" d="M8.995 9.165H40.87V41.04H8.995V9.165L9.14 9.31H40.725V40.895H9.14V9.31L8.995 9.165Z" fill="#67AA89"/>
<path fill-rule="evenodd" clip-rule="evenodd" d="M9.06995 9.24H40.7949V40.965H9.06995V9.24L9.21495 9.385H40.6499V40.82H9.21495V9.385L9.06995 9.24Z" fill="#67AA89"/>
<path fill-rule="evenodd" clip-rule="evenodd" d="M9.14001 9.31H40.725V40.895H9.14001V9.31L9.28501 9.46H40.575V40.75H9.28501V9.46L9.14001 9.31Z" fill="#67AA89"/>
<path fill-rule="evenodd" clip-rule="evenodd" d="M9.21497 9.385H40.65V40.82H9.21497V9.385L9.35997 9.53H40.505V40.675H9.35997V9.53L9.21497 9.385Z" fill="#67AA89"/>
<path fill-rule="evenodd" clip-rule="evenodd" d="M9.28503 9.46H40.575V40.75H9.28503V9.46L9.43503 9.605H40.43V40.6H9.43503V9.605L9.28503 9.46Z" fill="#67AA89"/>
<path fill-rule="evenodd" clip-rule="evenodd" d="M9.35999 9.53H40.505V40.675H9.35999V9.53L9.50499 9.675H40.36V40.53H9.50499V9.675L9.35999 9.53Z" fill="#67AA89"/>
<path fill-rule="evenodd" clip-rule="evenodd" d="M9.43506 9.605H40.4301V40.6H9.43506V9.605L9.58006 9.75H40.2851V40.455H9.58006V9.75L9.43506 9.605Z" fill="#67AA89"/>
<path fill-rule="evenodd" clip-rule="evenodd" d="M9.505 9.675H40.36V40.53H9.505V9.675L9.655 9.825H40.21V40.38H9.655V9.825L9.505 9.675Z" fill="#67AA89"/>
<path fill-rule="evenodd" clip-rule="evenodd" d="M9.57996 9.75H40.285V40.455H9.57996V9.75L9.72496 9.895H40.14V40.31H9.72496V9.895L9.57996 9.75Z" fill="#67AA89"/>
<path fill-rule="evenodd" clip-rule="evenodd" d="M9.65503 9.825H40.21V40.38H9.65503V9.825L9.80003 9.97H40.065V40.235H9.80003V9.97L9.65503 9.825Z" fill="#67AA89"/>
<path fill-rule="evenodd" clip-rule="evenodd" d="M9.72498 9.895H40.14V40.31H9.72498V9.895L9.86998 10.045H39.99V40.165H9.86998V10.045L9.72498 9.895Z" fill="#67AA89"/>
<path fill-rule="evenodd" clip-rule="evenodd" d="M9.80005 9.97H40.0651V40.235H9.80005V9.97L9.94505 10.115H39.9201V40.09H9.94505V10.115L9.80005 9.97Z" fill="#67AA89"/>
<path fill-rule="evenodd" clip-rule="evenodd" d="M9.87 10.045H39.99V40.165H9.87V10.045L10.02 10.19H39.845V40.015H10.02V10.19L9.87 10.045Z" fill="#67AA89"/>
<path fill-rule="evenodd" clip-rule="evenodd" d="M9.94495 10.115H39.9199V40.09H9.94495V10.115L10.0899 10.26H39.7749V39.945H10.0899V10.26L9.94495 10.115Z" fill="#67AA89"/>
<path fill-rule="evenodd" clip-rule="evenodd" d="M10.02 10.19H39.845V40.015H10.02V10.19L10.165 10.335H39.7V39.87H10.165V10.335L10.02 10.19Z" fill="#67AA89"/>
<path fill-rule="evenodd" clip-rule="evenodd" d="M10.09 10.26H39.775V39.945H10.09V10.26L10.235 10.41H39.625V39.8H10.235V10.41L10.09 10.26Z" fill="#67AA89"/>
<path fill-rule="evenodd" clip-rule="evenodd" d="M10.165 10.335H39.7V39.87H10.165V10.335L10.31 10.48H39.555V39.725H10.31V10.48L10.165 10.335Z" fill="#67AA89"/>
<path fill-rule="evenodd" clip-rule="evenodd" d="M10.235 10.41H39.625V39.8H10.235V10.41L10.385 10.555H39.48V39.65H10.385V10.555L10.235 10.41Z" fill="#67AA89"/>
<path fill-rule="evenodd" clip-rule="evenodd" d="M10.3101 10.48H39.5551V39.725H10.3101V10.48L10.4551 10.63H39.4051V39.58H10.4551V10.63L10.3101 10.48Z" fill="#67AA89"/>
<path fill-rule="evenodd" clip-rule="evenodd" d="M10.385 10.555H39.48V39.65H10.385V10.555L10.53 10.7H39.335V39.505H10.53V10.7L10.385 10.555Z" fill="#67AA89"/>
<path fill-rule="evenodd" clip-rule="evenodd" d="M10.455 10.63H39.405V39.58H10.455V10.63L10.605 10.775H39.26V39.43H10.605V10.775L10.455 10.63Z" fill="#67AA89"/>
<path fill-rule="evenodd" clip-rule="evenodd" d="M10.53 10.7H39.335V39.505H10.53V10.7L10.675 10.845H39.19V39.36H10.675V10.845L10.53 10.7Z" fill="#67AA89"/>
<path fill-rule="evenodd" clip-rule="evenodd" d="M10.605 10.775H39.26V39.43H10.605V10.775L10.75 10.92H39.115V39.285H10.75V10.92L10.605 10.775Z" fill="#67AA89"/>
<path fill-rule="evenodd" clip-rule="evenodd" d="M10.675 10.845H39.1901V39.36H10.675V10.845L10.82 10.995H39.0401V39.215H10.82V10.995L10.675 10.845Z" fill="#67AA89"/>
<path fill-rule="evenodd" clip-rule="evenodd" d="M10.75 10.92H39.115V39.285H10.75V10.92L10.895 11.065H38.97V39.14H10.895V11.065L10.75 10.92Z" fill="#67AA89"/>
<path fill-rule="evenodd" clip-rule="evenodd" d="M10.8199 10.995H39.0399V39.215H10.8199V10.995L10.9699 11.14H38.8949V39.065H10.9699V11.14L10.8199 10.995Z" fill="#67AA89"/>
<path fill-rule="evenodd" clip-rule="evenodd" d="M10.895 11.065H38.97V39.14H10.895V11.065L11.04 11.21H38.825V38.995H11.04V11.21L10.895 11.065Z" fill="#67AA89"/>
<path fill-rule="evenodd" clip-rule="evenodd" d="M10.97 11.14H38.895V39.065H10.97V11.14L11.115 11.285H38.75V38.92H11.115V11.285L10.97 11.14Z" fill="#67AA89"/>
<path fill-rule="evenodd" clip-rule="evenodd" d="M11.04 11.21H38.825V38.995H11.04V11.21L11.19 11.36H38.675V38.845H11.19V11.36L11.04 11.21Z" fill="#67AA89"/>
<path fill-rule="evenodd" clip-rule="evenodd" d="M11.115 11.285H38.75V38.92H11.115V11.285L11.26 11.43H38.605V38.775H11.26V11.43L11.115 11.285Z" fill="#67AA89"/>
<path fill-rule="evenodd" clip-rule="evenodd" d="M11.1899 11.36H38.6749V38.845H11.1899V11.36L11.3349 11.505H38.5299V38.7H11.3349V11.505L11.1899 11.36Z" fill="#67AA89"/>
<path fill-rule="evenodd" clip-rule="evenodd" d="M11.26 11.43H38.605V38.775H11.26V11.43L11.405 11.58H38.455V38.63H11.405V11.58L11.26 11.43Z" fill="#67AA89"/>
<path fill-rule="evenodd" clip-rule="evenodd" d="M11.335 11.505H38.53V38.7H11.335V11.505L11.48 11.65H38.385V38.555H11.48V11.65L11.335 11.505Z" fill="#67AA89"/>
<path fill-rule="evenodd" clip-rule="evenodd" d="M11.405 11.58H38.455V38.63H11.405V11.58L11.555 11.725H38.31V38.48H11.555V11.725L11.405 11.58Z" fill="#67AA89"/>
<path fill-rule="evenodd" clip-rule="evenodd" d="M11.48 11.65H38.385V38.555H11.48V11.65L11.625 11.795H38.24V38.41H11.625V11.795L11.48 11.65Z" fill="#67AA89"/>
<path fill-rule="evenodd" clip-rule="evenodd" d="M11.5551 11.725H38.3101V38.48H11.5551V11.725L11.7001 11.87H38.1651V38.335H11.7001V11.87L11.5551 11.725Z" fill="#67AA89"/>
<path fill-rule="evenodd" clip-rule="evenodd" d="M11.625 11.795H38.24V38.41H11.625V11.795L11.775 11.945H38.09V38.26H11.775V11.945L11.625 11.795Z" fill="#67AA89"/>
<path fill-rule="evenodd" clip-rule="evenodd" d="M11.7 11.87H38.165V38.335H11.7V11.87L11.845 12.015H38.02V38.19H11.845V12.015L11.7 11.87Z" fill="#67AA89"/>
<path fill-rule="evenodd" clip-rule="evenodd" d="M11.775 11.945H38.09V38.26H11.775V11.945L11.92 12.09H37.945V38.115H11.92V12.09L11.775 11.945Z" fill="#67AA89"/>
<path fill-rule="evenodd" clip-rule="evenodd" d="M11.845 12.015H38.02V38.19H11.845V12.015L11.99 12.165H37.87V38.045H11.99V12.165L11.845 12.015Z" fill="#67AA89"/>
<path fill-rule="evenodd" clip-rule="evenodd" d="M11.92 12.09H37.945V38.115H11.92V12.09L12.065 12.235H37.8V37.97H12.065V12.235L11.92 12.09Z" fill="#67AA89"/>
<path fill-rule="evenodd" clip-rule="evenodd" d="M11.99 12.165H37.87V38.045H11.99V12.165L12.14 12.31H37.725V37.895H12.14V12.31L11.99 12.165Z" fill="#67AA89"/>
<path fill-rule="evenodd" clip-rule="evenodd" d="M12.0649 12.235H37.7999V37.97H12.0649V12.235L12.2099 12.38H37.6549V37.825H12.2099V12.38L12.0649 12.235Z" fill="#67AA89"/>
<path fill-rule="evenodd" clip-rule="evenodd" d="M12.14 12.31H37.725V37.895H12.14V12.31L12.285 12.455H37.58V37.75H12.285V12.455L12.14 12.31Z" fill="#67AA89"/>
<path fill-rule="evenodd" clip-rule="evenodd" d="M12.21 12.38H37.655V37.825H12.21V12.38L12.36 12.53H37.505V37.675H12.36V12.53L12.21 12.38Z" fill="#67AA89"/>
<path fill-rule="evenodd" clip-rule="evenodd" d="M12.285 12.455H37.58V37.75H12.285V12.455L12.43 12.6H37.435V37.605H12.43V12.6L12.285 12.455Z" fill="#67AA89"/>
<path fill-rule="evenodd" clip-rule="evenodd" d="M12.36 12.53H37.505V37.675H12.36V12.53L12.505 12.675H37.36V37.53H12.505V12.675L12.36 12.53Z" fill="#67AA89"/>
<path fill-rule="evenodd" clip-rule="evenodd" d="M12.4301 12.6H37.4351V37.605H12.4301V12.6L12.5751 12.75H37.2851V37.46H12.5751V12.75L12.4301 12.6Z" fill="#67AA89"/>
<path fill-rule="evenodd" clip-rule="evenodd" d="M12.505 12.675H37.36V37.53H12.505V12.675L12.65 12.82H37.215V37.385H12.65V12.82L12.505 12.675Z" fill="#67AA89"/>
<path fill-rule="evenodd" clip-rule="evenodd" d="M12.575 12.75H37.285V37.46H12.575V12.75L12.725 12.895H37.14V37.31H12.725V12.895L12.575 12.75Z" fill="#67AA89"/>
<path fill-rule="evenodd" clip-rule="evenodd" d="M12.65 12.82H37.215V37.385H12.65V12.82L12.795 12.965H37.07V37.24H12.795V12.965L12.65 12.82Z" fill="#67AA89"/>
<path fill-rule="evenodd" clip-rule="evenodd" d="M12.725 12.895H37.14V37.31H12.725V12.895L12.87 13.04H36.995V37.165H12.87V13.04L12.725 12.895Z" fill="#67AA89"/>
<path fill-rule="evenodd" clip-rule="evenodd" d="M12.795 12.965H37.07V37.24H12.795V12.965L12.945 13.115H36.92V37.09H12.945V13.115L12.795 12.965Z" fill="#67AA89"/>
<path fill-rule="evenodd" clip-rule="evenodd" d="M12.87 13.04H36.995V37.165H12.87V13.04L13.015 13.185H36.85V37.02H13.015V13.185L12.87 13.04Z" fill="#67AA89"/>
<path fill-rule="evenodd" clip-rule="evenodd" d="M12.9449 13.115H36.9199V37.09H12.9449V13.115L13.0899 13.26H36.7749V36.945H13.0899V13.26L12.9449 13.115Z" fill="#67AA89"/>
<path fill-rule="evenodd" clip-rule="evenodd" d="M13.015 13.185H36.85V37.02H13.015V13.185L13.16 13.33H36.705V36.875H13.16V13.33L13.015 13.185Z" fill="#67AA89"/>
<path fill-rule="evenodd" clip-rule="evenodd" d="M13.09 13.26H36.775V36.945H13.09V13.26L13.235 13.405H36.63V36.8H13.235V13.405L13.09 13.26Z" fill="#67AA89"/>
<path fill-rule="evenodd" clip-rule="evenodd" d="M13.16 13.33H36.705V36.875H13.16V13.33L13.31 13.48H36.555V36.725H13.31V13.48L13.16 13.33Z" fill="#67AA89"/>
<path fill-rule="evenodd" clip-rule="evenodd" d="M13.235 13.405H36.63V36.8H13.235V13.405L13.38 13.55H36.485V36.655H13.38V13.55L13.235 13.405Z" fill="#67AA89"/>
<path fill-rule="evenodd" clip-rule="evenodd" d="M13.3101 13.48H36.5551V36.725H13.3101V13.48L13.4551 13.625H36.4101V36.58H13.4551V13.625L13.3101 13.48Z" fill="#67AA89"/>
<path fill-rule="evenodd" clip-rule="evenodd" d="M13.38 13.55H36.485V36.655H13.38V13.55L13.525 13.7H36.335V36.51H13.525V13.7L13.38 13.55Z" fill="#67AA89"/>
<path fill-rule="evenodd" clip-rule="evenodd" d="M13.455 13.625H36.41V36.58H13.455V13.625L13.6 13.77H36.265V36.435H13.6V13.77L13.455 13.625Z" fill="#67AA89"/>
<path fill-rule="evenodd" clip-rule="evenodd" d="M13.525 13.7H36.335V36.51H13.525V13.7L13.675 13.845H36.19V36.36H13.675V13.845L13.525 13.7Z" fill="#67AA89"/>
<path fill-rule="evenodd" clip-rule="evenodd" d="M13.6 13.77H36.265V36.435H13.6V13.77L13.745 13.915H36.12V36.29H13.745V13.915L13.6 13.77Z" fill="#67AA89"/>
<path fill-rule="evenodd" clip-rule="evenodd" d="M13.675 13.845H36.19V36.36H13.675V13.845L13.82 13.99H36.045V36.215H13.82V13.99L13.675 13.845Z" fill="#67AA89"/>
<path fill-rule="evenodd" clip-rule="evenodd" d="M13.745 13.915H36.12V36.29H13.745V13.915L13.895 14.065H35.97V36.14H13.895V14.065L13.745 13.915Z" fill="#67AA89"/>
<path fill-rule="evenodd" clip-rule="evenodd" d="M13.8199 13.99H36.0449V36.215H13.8199V13.99L13.9649 14.135H35.8999V36.07H13.9649V14.135L13.8199 13.99Z" fill="#67AA89"/>
<path fill-rule="evenodd" clip-rule="evenodd" d="M13.895 14.065H35.97V36.14H13.895V14.065L14.04 14.21H35.825V35.995H14.04V14.21L13.895 14.065Z" fill="#67AA89"/>
<path fill-rule="evenodd" clip-rule="evenodd" d="M13.965 14.135H35.9V36.07H13.965V14.135L14.11 14.285H35.75V35.925H14.11V14.285L13.965 14.135Z" fill="#67AA89"/>
<path fill-rule="evenodd" clip-rule="evenodd" d="M14.04 14.21H35.825V35.995H14.04V14.21L14.185 14.355H35.68V35.85H14.185V14.355L14.04 14.21Z" fill="#67AA89"/>
<path fill-rule="evenodd" clip-rule="evenodd" d="M14.11 14.285H35.75V35.925H14.11V14.285L14.26 14.43H35.605V35.775H14.26V14.43L14.11 14.285Z" fill="#67AA89"/>
<path fill-rule="evenodd" clip-rule="evenodd" d="M14.1851 14.355H35.6801V35.85H14.1851V14.355L14.3301 14.5H35.5351V35.705H14.3301V14.5L14.1851 14.355Z" fill="#67AA89"/>
<path fill-rule="evenodd" clip-rule="evenodd" d="M14.26 14.43H35.605V35.775H14.26V14.43L14.405 14.575H35.46V35.63H14.405V14.575L14.26 14.43Z" fill="#67AA89"/>
<path fill-rule="evenodd" clip-rule="evenodd" d="M14.33 14.5H35.535V35.705H14.33V14.5L14.48 14.65H35.385V35.555H14.48V14.65L14.33 14.5Z" fill="#67AA89"/>
<path fill-rule="evenodd" clip-rule="evenodd" d="M14.405 14.575H35.46V35.63H14.405V14.575L14.55 14.72H35.315V35.485H14.55V14.72L14.405 14.575Z" fill="#67AA89"/>
<path fill-rule="evenodd" clip-rule="evenodd" d="M14.48 14.65H35.385V35.555H14.48V14.65L14.625 14.795H35.24V35.41H14.625V14.795L14.48 14.65Z" fill="#67AA89"/>
<path fill-rule="evenodd" clip-rule="evenodd" d="M14.55 14.72H35.315V35.485H14.55V14.72L14.695 14.87H35.165V35.34H14.695V14.87L14.55 14.72Z" fill="#67AA89"/>
<path fill-rule="evenodd" clip-rule="evenodd" d="M14.625 14.795H35.24V35.41H14.625V14.795L14.77 14.94H35.095V35.265H14.77V14.94L14.625 14.795Z" fill="#67AA89"/>
<path fill-rule="evenodd" clip-rule="evenodd" d="M14.6949 14.87H35.1649V35.34H14.6949V14.87L14.8449 15.015H35.0199V35.19H14.8449V15.015L14.6949 14.87Z" fill="#67AA89"/>
<path fill-rule="evenodd" clip-rule="evenodd" d="M14.77 14.94H35.095V35.265H14.77V14.94L14.915 15.085H34.95V35.12H14.915V15.085L14.77 14.94Z" fill="#67AA89"/>
<path fill-rule="evenodd" clip-rule="evenodd" d="M14.845 15.015H35.02V35.19H14.845V15.015L14.99 15.16H34.875V35.045H14.99V15.16L14.845 15.015Z" fill="#67AA89"/>
<path fill-rule="evenodd" clip-rule="evenodd" d="M14.915 15.085H34.95V35.12H14.915V15.085L15.065 15.235H34.8V34.97H15.065V15.235L14.915 15.085Z" fill="#67AA89"/>
<path fill-rule="evenodd" clip-rule="evenodd" d="M14.99 15.16H34.875V35.045H14.99V15.16L15.135 15.305H34.73V34.9H15.135V15.305L14.99 15.16Z" fill="#67AA89"/>
<path fill-rule="evenodd" clip-rule="evenodd" d="M15.0649 15.235H34.7999V34.97H15.0649V15.235L15.2099 15.38H34.6549V34.825H15.2099V15.38L15.0649 15.235Z" fill="#67AA89"/>
<path fill-rule="evenodd" clip-rule="evenodd" d="M15.135 15.305H34.73V34.9H15.135V15.305L15.28 15.455H34.58V34.755H15.28V15.455L15.135 15.305Z" fill="#67AA89"/>
<path fill-rule="evenodd" clip-rule="evenodd" d="M15.21 15.38H34.655V34.825H15.21V15.38L15.355 15.525H34.51V34.68H15.355V15.525L15.21 15.38Z" fill="#67AA89"/>
<path fill-rule="evenodd" clip-rule="evenodd" d="M15.28 15.455H34.58V34.755H15.28V15.455L15.43 15.6H34.435V34.605H15.43V15.6L15.28 15.455Z" fill="#67AA89"/>
<path fill-rule="evenodd" clip-rule="evenodd" d="M15.355 15.525H34.51V34.68H15.355V15.525L15.5 15.67H34.365V34.535H15.5V15.67L15.355 15.525Z" fill="#67AA89"/>
<path fill-rule="evenodd" clip-rule="evenodd" d="M15.4301 15.6H34.4351V34.605H15.4301V15.6L15.5751 15.745H34.2901V34.46H15.5751V15.745L15.4301 15.6Z" fill="#67AA89"/>
<path fill-rule="evenodd" clip-rule="evenodd" d="M15.5 15.67H34.365V34.535H15.5V15.67L15.645 15.82H34.215V34.39H15.645V15.82L15.5 15.67Z" fill="#67AA89"/>
<path fill-rule="evenodd" clip-rule="evenodd" d="M15.575 15.745H34.29V34.46H15.575V15.745L15.72 15.89H34.145V34.315H15.72V15.89L15.575 15.745Z" fill="#67AA89"/>
<path fill-rule="evenodd" clip-rule="evenodd" d="M15.645 15.82H34.215V34.39H15.645V15.82L15.795 15.965H34.07V34.24H15.795V15.965L15.645 15.82Z" fill="#67AA89"/>
<path fill-rule="evenodd" clip-rule="evenodd" d="M15.72 15.89H34.145V34.315H15.72V15.89L15.865 16.04H34V34.17H15.865V16.04L15.72 15.89Z" fill="#67AA89"/>
<path fill-rule="evenodd" clip-rule="evenodd" d="M15.795 15.965H34.07V34.24H15.795V15.965L15.94 16.11H33.925V34.095H15.94V16.11L15.795 15.965Z" fill="#67AA89"/>
<path fill-rule="evenodd" clip-rule="evenodd" d="M15.865 16.04H34V34.17H15.865V16.04L16.015 16.185H33.85V34.02H16.015V16.185L15.865 16.04Z" fill="#67AA89"/>
<path fill-rule="evenodd" clip-rule="evenodd" d="M15.9399 16.11H33.9249V34.095H15.9399V16.11L16.0849 16.255H33.7799V33.95H16.0849V16.255L15.9399 16.11Z" fill="#67AA89"/>
<path fill-rule="evenodd" clip-rule="evenodd" d="M16.015 16.185H33.85V34.02H16.015V16.185L16.16 16.33H33.705V33.875H16.16V16.33L16.015 16.185Z" fill="#67AA89"/>
<path fill-rule="evenodd" clip-rule="evenodd" d="M16.085 16.255H33.78V33.95H16.085V16.255L16.23 16.405H33.63V33.805H16.23V16.405L16.085 16.255Z" fill="#67AA89"/>
<path fill-rule="evenodd" clip-rule="evenodd" d="M16.16 16.33H33.705V33.875H16.16V16.33L16.305 16.475H33.56V33.73H16.305V16.475L16.16 16.33Z" fill="#67AA89"/>
<path fill-rule="evenodd" clip-rule="evenodd" d="M16.23 16.405H33.63V33.805H16.23V16.405L16.38 16.55H33.485V33.655H16.38V16.55L16.23 16.405Z" fill="#67AA89"/>
<path fill-rule="evenodd" clip-rule="evenodd" d="M16.3051 16.475H33.56V33.73H16.3051V16.475L16.4501 16.62H33.415V33.585H16.4501V16.62L16.3051 16.475Z" fill="#67AA89"/>
<path fill-rule="evenodd" clip-rule="evenodd" d="M16.38 16.55H33.485V33.655H16.38V16.55L16.525 16.695H33.34V33.51H16.525V16.695L16.38 16.55Z" fill="#67AA89"/>
<path fill-rule="evenodd" clip-rule="evenodd" d="M16.45 16.62H33.4149V33.585H16.45V16.62L16.6 16.77H33.2649V33.435H16.6V16.77L16.45 16.62Z" fill="#67AA89"/>
<path fill-rule="evenodd" clip-rule="evenodd" d="M16.525 16.695H33.34V33.51H16.525V16.695L16.67 16.84H33.195V33.365H16.67V16.84L16.525 16.695Z" fill="#67AA89"/>
<path fill-rule="evenodd" clip-rule="evenodd" d="M16.6 16.77H33.265V33.435H16.6V16.77L16.745 16.915H33.12V33.29H16.745V16.915L16.6 16.77Z" fill="#67AA89"/>
<path fill-rule="evenodd" clip-rule="evenodd" d="M16.67 16.84H33.195V33.365H16.67V16.84L16.815 16.99H33.045V33.22H16.815V16.99L16.67 16.84Z" fill="#67AA89"/>
<path fill-rule="evenodd" clip-rule="evenodd" d="M16.745 16.915H33.12V33.29H16.745V16.915L16.89 17.06H32.975V33.145H16.89V17.06L16.745 16.915Z" fill="#67AA89"/>
<path fill-rule="evenodd" clip-rule="evenodd" d="M16.8149 16.99H33.0449V33.22H16.8149V16.99L16.9649 17.135H32.8999V33.07H16.9649V17.135L16.8149 16.99Z" fill="#67AA89"/>
<path fill-rule="evenodd" clip-rule="evenodd" d="M16.89 17.06H32.975V33.145H16.89V17.06L17.035 17.205H32.83V33H17.035V17.205L16.89 17.06Z" fill="#67AA89"/>
<path fill-rule="evenodd" clip-rule="evenodd" d="M16.965 17.135H32.9V33.07H16.965V17.135L17.11 17.28H32.755V32.925H17.11V17.28L16.965 17.135Z" fill="#67AA89"/>
<path fill-rule="evenodd" clip-rule="evenodd" d="M17.035 17.205H32.83V33H17.035V17.205L17.185 17.355H32.68V32.85H17.185V17.355L17.035 17.205Z" fill="#67AA89"/>
<path fill-rule="evenodd" clip-rule="evenodd" d="M17.11 17.28H32.755V32.925H17.11V17.28L17.255 17.425H32.61V32.78H17.255V17.425L17.11 17.28Z" fill="#67AA89"/>
<path fill-rule="evenodd" clip-rule="evenodd" d="M17.1851 17.355H32.6801V32.85H17.1851V17.355L17.3301 17.5H32.5351V32.705H17.3301V17.5L17.1851 17.355Z" fill="#67AA89"/>
<path fill-rule="evenodd" clip-rule="evenodd" d="M17.255 17.425H32.61V32.78H17.255V17.425L17.4 17.575H32.46V32.635H17.4V17.575L17.255 17.425Z" fill="#67AA89"/>
<path fill-rule="evenodd" clip-rule="evenodd" d="M17.33 17.5H32.535V32.705H17.33V17.5L17.475 17.645H32.39V32.56H17.475V17.645L17.33 17.5Z" fill="#67AA89"/>
<path fill-rule="evenodd" clip-rule="evenodd" d="M17.4 17.575H32.46V32.635H17.4V17.575L17.55 17.72H32.315V32.485H17.55V17.72L17.4 17.575Z" fill="#67AA89"/>
<path fill-rule="evenodd" clip-rule="evenodd" d="M17.475 17.645H32.39V32.56H17.475V17.645L17.62 17.79H32.245V32.415H17.62V17.79L17.475 17.645Z" fill="#67AA89"/>
<path fill-rule="evenodd" clip-rule="evenodd" d="M17.55 17.72H32.315V32.485H17.55V17.72L17.695 17.865H32.17V32.34H17.695V17.865L17.55 17.72Z" fill="#67AA89"/>
<path fill-rule="evenodd" clip-rule="evenodd" d="M17.62 17.79H32.245V32.415H17.62V17.79L17.77 17.94H32.095V32.265H17.77V17.94L17.62 17.79Z" fill="#67AA89"/>
<path fill-rule="evenodd" clip-rule="evenodd" d="M17.6949 17.865H32.1699V32.34H17.6949V17.865L17.8399 18.01H32.0249V32.195H17.8399V18.01L17.6949 17.865Z" fill="#67AA89"/>
<path fill-rule="evenodd" clip-rule="evenodd" d="M17.77 17.94H32.095V32.265H17.77V17.94L17.915 18.085H31.95V32.12H17.915V18.085L17.77 17.94Z" fill="#67AA89"/>
<path fill-rule="evenodd" clip-rule="evenodd" d="M17.84 18.01H32.025V32.195H17.84V18.01L17.985 18.16H31.875V32.05H17.985V18.16L17.84 18.01Z" fill="#67AA89"/>
<path fill-rule="evenodd" clip-rule="evenodd" d="M17.915 18.085H31.95V32.12H17.915V18.085L18.06 18.23H31.805V31.975H18.06V18.23L17.915 18.085Z" fill="#67AA89"/>
<path fill-rule="evenodd" clip-rule="evenodd" d="M17.985 18.16H31.875V32.05H17.985V18.16L18.135 18.305H31.73V31.9H18.135V18.305L17.985 18.16Z" fill="#67AA89"/>
<path fill-rule="evenodd" clip-rule="evenodd" d="M18.0601 18.23H31.8051V31.975H18.0601V18.23L18.2051 18.375H31.6601V31.83H18.2051V18.375L18.0601 18.23Z" fill="#67AA89"/>
<path fill-rule="evenodd" clip-rule="evenodd" d="M18.135 18.305H31.73V31.9H18.135V18.305L18.28 18.45H31.585V31.755H18.28V18.45L18.135 18.305Z" fill="#67AA89"/>
<path fill-rule="evenodd" clip-rule="evenodd" d="M18.205 18.375H31.66V31.83H18.205V18.375L18.355 18.525H31.51V31.685H18.355V18.525L18.205 18.375Z" fill="#67AA89"/>
<path fill-rule="evenodd" clip-rule="evenodd" d="M18.28 18.45H31.585V31.755H18.28V18.45L18.425 18.595H31.44V31.61H18.425V18.595L18.28 18.45Z" fill="#67AA89"/>
<path fill-rule="evenodd" clip-rule="evenodd" d="M18.355 18.525H31.51V31.685H18.355V18.525L18.5 18.67H31.365V31.535H18.5V18.67L18.355 18.525Z" fill="#67AA89"/>
<path fill-rule="evenodd" clip-rule="evenodd" d="M18.425 18.595H31.44V31.61H18.425V18.595L18.57 18.74H31.295V31.465H18.57V18.74L18.425 18.595Z" fill="#67AA89"/>
<path fill-rule="evenodd" clip-rule="evenodd" d="M18.5 18.67H31.365V31.535H18.5V18.67L18.645 18.815H31.22V31.39H18.645V18.815L18.5 18.67Z" fill="#67AA89"/>
<path fill-rule="evenodd" clip-rule="evenodd" d="M18.5699 18.74H31.2949V31.465H18.5699V18.74L18.7199 18.89H31.1449V31.315H18.7199V18.89L18.5699 18.74Z" fill="#67AA89"/>
<path fill-rule="evenodd" clip-rule="evenodd" d="M18.645 18.815H31.22V31.39H18.645V18.815L18.79 18.96H31.075V31.245H18.79V18.96L18.645 18.815Z" fill="#67AA89"/>
<path fill-rule="evenodd" clip-rule="evenodd" d="M18.72 18.89H31.145V31.315H18.72V18.89L18.865 19.035H31V31.17H18.865V19.035L18.72 18.89Z" fill="#67AA89"/>
<path fill-rule="evenodd" clip-rule="evenodd" d="M18.79 18.96H31.075V31.245H18.79V18.96L18.935 19.11H30.925V31.1H18.935V19.11L18.79 18.96Z" fill="#67AA89"/>
<path fill-rule="evenodd" clip-rule="evenodd" d="M18.865 19.035H31V31.17H18.865V19.035L19.01 19.18H30.855V31.025H19.01V19.18L18.865 19.035Z" fill="#67AA89"/>
<path fill-rule="evenodd" clip-rule="evenodd" d="M18.9351 19.11H30.9251V31.1H18.9351V19.11L19.0851 19.255H30.7801V30.95H19.0851V19.255L18.9351 19.11Z" fill="#67AA89"/>
<path fill-rule="evenodd" clip-rule="evenodd" d="M19.01 19.18H30.855V31.025H19.01V19.18L19.155 19.325H30.71V30.88H19.155V19.325L19.01 19.18Z" fill="#67AA89"/>
<path fill-rule="evenodd" clip-rule="evenodd" d="M19.085 19.255H30.78V30.95H19.085V19.255L19.23 19.4H30.635V30.805H19.23V19.4L19.085 19.255Z" fill="#67AA89"/>
<path fill-rule="evenodd" clip-rule="evenodd" d="M19.155 19.325H30.71V30.88H19.155V19.325L19.305 19.475H30.56V30.73H19.305V19.475L19.155 19.325Z" fill="#67AA89"/>
<path fill-rule="evenodd" clip-rule="evenodd" d="M19.23 19.4H30.635V30.805H19.23V19.4L19.375 19.545H30.49V30.66H19.375V19.545L19.23 19.4Z" fill="#67AA89"/>
<path fill-rule="evenodd" clip-rule="evenodd" d="M19.3051 19.475H30.5601V30.73H19.3051V19.475L19.4501 19.62H30.4151V30.585H19.4501V19.62L19.3051 19.475Z" fill="#67AA89"/>
<path fill-rule="evenodd" clip-rule="evenodd" d="M19.375 19.545H30.49V30.66H19.375V19.545L19.52 19.695H30.34V30.515H19.52V19.695L19.375 19.545Z" fill="#67AA89"/>
<path fill-rule="evenodd" clip-rule="evenodd" d="M19.45 19.62H30.4149V30.585H19.45V19.62L19.595 19.765H30.2699V30.44H19.595V19.765L19.45 19.62Z" fill="#67AA89"/>
<path fill-rule="evenodd" clip-rule="evenodd" d="M19.52 19.695H30.34V30.515H19.52V19.695L19.67 19.84H30.195V30.365H19.67V19.84L19.52 19.695Z" fill="#67AA89"/>
<path fill-rule="evenodd" clip-rule="evenodd" d="M19.595 19.765H30.27V30.44H19.595V19.765L19.74 19.91H30.125V30.295H19.74V19.91L19.595 19.765Z" fill="#67AA89"/>
<path fill-rule="evenodd" clip-rule="evenodd" d="M19.67 19.84H30.195V30.365H19.67V19.84L19.815 19.985H30.05V30.22H19.815V19.985L19.67 19.84Z" fill="#67AA89"/>
<path fill-rule="evenodd" clip-rule="evenodd" d="M19.74 19.91H30.125V30.295H19.74V19.91L19.89 20.06H29.975V30.145H19.89V20.06L19.74 19.91Z" fill="#67AA89"/>
<path fill-rule="evenodd" clip-rule="evenodd" d="M19.8149 19.985H30.0499V30.22H19.8149V19.985L19.9599 20.13H29.9049V30.075H19.9599V20.13L19.8149 19.985Z" fill="#67AA89"/>
<path fill-rule="evenodd" clip-rule="evenodd" d="M19.89 20.06H29.975V30.145H19.89V20.06L20.035 20.205H29.83V30H20.035V20.205L19.89 20.06Z" fill="#67AA89"/>
<path fill-rule="evenodd" clip-rule="evenodd" d="M19.96 20.13H29.905V30.075H19.96V20.13L20.105 20.28H29.755V29.93H20.105V20.28L19.96 20.13Z" fill="#67AA89"/>
<path fill-rule="evenodd" clip-rule="evenodd" d="M20.035 20.205H29.83V30H20.035V20.205L20.18 20.35H29.685V29.855H20.18V20.35L20.035 20.205Z" fill="#67AA89"/>
<path fill-rule="evenodd" clip-rule="evenodd" d="M20.105 20.28H29.755V29.93H20.105V20.28L20.255 20.425H29.61V29.78H20.255V20.425L20.105 20.28Z" fill="#67AA89"/>
<path fill-rule="evenodd" clip-rule="evenodd" d="M20.1801 20.35H29.6851V29.855H20.1801V20.35L20.3251 20.495H29.5401V29.71H20.3251V20.495L20.1801 20.35Z" fill="#67AA89"/>
<path fill-rule="evenodd" clip-rule="evenodd" d="M20.255 20.425H29.61V29.78H20.255V20.425L20.4 20.57H29.465V29.635H20.4V20.57L20.255 20.425Z" fill="#67AA89"/>
<path fill-rule="evenodd" clip-rule="evenodd" d="M20.325 20.495H29.54V29.71H20.325V20.495L20.475 20.645H29.39V29.56H20.475V20.645L20.325 20.495Z" fill="#67AA89"/>
<path fill-rule="evenodd" clip-rule="evenodd" d="M20.4 20.57H29.465V29.635H20.4V20.57L20.545 20.715H29.32V29.49H20.545V20.715L20.4 20.57Z" fill="#67AA89"/>
<path fill-rule="evenodd" clip-rule="evenodd" d="M20.475 20.645H29.39V29.56H20.475V20.645L20.62 20.79H29.245V29.415H20.62V20.79L20.475 20.645Z" fill="#67AA89"/>
<path fill-rule="evenodd" clip-rule="evenodd" d="M20.545 20.715H29.32V29.49H20.545V20.715L20.69 20.865H29.17V29.345H20.69V20.865L20.545 20.715Z" fill="#67AA89"/>
<path fill-rule="evenodd" clip-rule="evenodd" d="M20.62 20.79H29.245V29.415H20.62V20.79L20.765 20.935H29.1V29.27H20.765V20.935L20.62 20.79Z" fill="#67AA89"/>
<path fill-rule="evenodd" clip-rule="evenodd" d="M20.6899 20.865H29.1699V29.345H20.6899V20.865L20.8399 21.01H29.0249V29.195H20.8399V21.01L20.6899 20.865Z" fill="#67AA89"/>
<path fill-rule="evenodd" clip-rule="evenodd" d="M20.765 20.935H29.1V29.27H20.765V20.935L20.91 21.08H28.955V29.125H20.91V21.08L20.765 20.935Z" fill="#67AA89"/>
<path fill-rule="evenodd" clip-rule="evenodd" d="M20.84 21.01H29.025V29.195H20.84V21.01L20.985 21.155H28.88V29.05H20.985V21.155L20.84 21.01Z" fill="#67AA89"/>
<path fill-rule="evenodd" clip-rule="evenodd" d="M20.91 21.08H28.955V29.125H20.91V21.08L21.055 21.23H28.805V28.98H21.055V21.23L20.91 21.08Z" fill="#67AA89"/>
<path fill-rule="evenodd" clip-rule="evenodd" d="M20.985 21.155H28.88V29.05H20.985V21.155L21.13 21.3H28.735V28.905H21.13V21.3L20.985 21.155Z" fill="#67AA89"/>
<path fill-rule="evenodd" clip-rule="evenodd" d="M21.0551 21.23H28.8051V28.98H21.0551V21.23L21.2051 21.375H28.6601V28.83H21.2051V21.375L21.0551 21.23Z" fill="#67AA89"/>
<path fill-rule="evenodd" clip-rule="evenodd" d="M21.13 21.3H28.735V28.905H21.13V21.3L21.275 21.445H28.59V28.76H21.275V21.445L21.13 21.3Z" fill="#67AA89"/>
<path fill-rule="evenodd" clip-rule="evenodd" d="M21.205 21.375H28.66V28.83H21.205V21.375L21.35 21.52H28.515V28.685H21.35V21.52L21.205 21.375Z" fill="#67AA89"/>
<path fill-rule="evenodd" clip-rule="evenodd" d="M21.275 21.445H28.59V28.76H21.275V21.445L21.425 21.595H28.44V28.61H21.425V21.595L21.275 21.445Z" fill="#67AA89"/>
<path fill-rule="evenodd" clip-rule="evenodd" d="M21.35 21.52H28.515V28.685H21.35V21.52L21.495 21.665H28.37V28.54H21.495V21.665L21.35 21.52Z" fill="#67AA89"/>
<path fill-rule="evenodd" clip-rule="evenodd" d="M21.425 21.595H28.44V28.61H21.425V21.595L21.57 21.74H28.295V28.465H21.57V21.74L21.425 21.595Z" fill="#67AA89"/>
<path fill-rule="evenodd" clip-rule="evenodd" d="M21.495 21.665H28.37V28.54H21.495V21.665L21.64 21.815H28.22V28.395H21.64V21.815L21.495 21.665Z" fill="#67AA89"/>
<path fill-rule="evenodd" clip-rule="evenodd" d="M21.5699 21.74H28.2949V28.465H21.5699V21.74L21.7149 21.885H28.1499V28.32H21.7149V21.885L21.5699 21.74Z" fill="#67AA89"/>
<path fill-rule="evenodd" clip-rule="evenodd" d="M21.64 21.815H28.22V28.395H21.64V21.815L21.79 21.96H28.075V28.245H21.79V21.96L21.64 21.815Z" fill="#67AA89"/>
<path fill-rule="evenodd" clip-rule="evenodd" d="M21.715 21.885H28.15V28.32H21.715V21.885L21.86 22.03H28.005V28.175H21.86V22.03L21.715 21.885Z" fill="#67AA89"/>
<path fill-rule="evenodd" clip-rule="evenodd" d="M21.79 21.96H28.075V28.245H21.79V21.96L21.935 22.105H27.93V28.1H21.935V22.105L21.79 21.96Z" fill="#67AA89"/>
<path fill-rule="evenodd" clip-rule="evenodd" d="M21.86 22.03H28.005V28.175H21.86V22.03L22.01 22.18H27.855V28.025H22.01V22.18L21.86 22.03Z" fill="#67AA89"/>
<path fill-rule="evenodd" clip-rule="evenodd" d="M21.9351 22.105H27.9301V28.1H21.9351V22.105L22.0801 22.25H27.7851V27.955H22.0801V22.25L21.9351 22.105Z" fill="#67AA89"/>
<path fill-rule="evenodd" clip-rule="evenodd" d="M22.01 22.18H27.855V28.025H22.01V22.18L22.155 22.325H27.71V27.88H22.155V22.325L22.01 22.18Z" fill="#67AA89"/>
<path fill-rule="evenodd" clip-rule="evenodd" d="M22.08 22.25H27.785V27.955H22.08V22.25L22.225 22.4H27.635V27.81H22.225V22.4L22.08 22.25Z" fill="#67AA89"/>
<path fill-rule="evenodd" clip-rule="evenodd" d="M22.155 22.325H27.71V27.88H22.155V22.325L22.3 22.47H27.565V27.735H22.3V22.47L22.155 22.325Z" fill="#67AA89"/>
<path fill-rule="evenodd" clip-rule="evenodd" d="M22.225 22.4H27.635V27.81H22.225V22.4L22.375 22.545H27.49V27.66H22.375V22.545L22.225 22.4Z" fill="#67AA89"/>
<path fill-rule="evenodd" clip-rule="evenodd" d="M22.3 22.47H27.565V27.735H22.3V22.47L22.445 22.615H27.42V27.59H22.445V22.615L22.3 22.47Z" fill="#67AA89"/>
<path fill-rule="evenodd" clip-rule="evenodd" d="M22.375 22.545H27.49V27.66H22.375V22.545L22.52 22.69H27.345V27.515H22.52V22.69L22.375 22.545Z" fill="#67AA89"/>
<path fill-rule="evenodd" clip-rule="evenodd" d="M22.4449 22.615H27.4199V27.59H22.4449V22.615L22.5949 22.765H27.2699V27.44H22.5949V22.765L22.4449 22.615Z" fill="#67AA89"/>
<path fill-rule="evenodd" clip-rule="evenodd" d="M22.52 22.69H27.345V27.515H22.52V22.69L22.665 22.835H27.2V27.37H22.665V22.835L22.52 22.69Z" fill="#67AA89"/>
<path fill-rule="evenodd" clip-rule="evenodd" d="M22.595 22.765H27.27V27.44H22.595V22.765L22.74 22.91H27.125V27.295H22.74V22.91L22.595 22.765Z" fill="#67AA89"/>
<path fill-rule="evenodd" clip-rule="evenodd" d="M22.665 22.835H27.2V27.37H22.665V22.835L22.81 22.985H27.05V27.225H22.81V22.985L22.665 22.835Z" fill="#67AA89"/>
<path fill-rule="evenodd" clip-rule="evenodd" d="M22.74 22.91H27.125V27.295H22.74V22.91L22.885 23.055H26.98V27.15H22.885V23.055L22.74 22.91Z" fill="#67AA89"/>
<path fill-rule="evenodd" clip-rule="evenodd" d="M22.8101 22.985H27.0501V27.225H22.8101V22.985L22.9601 23.13H26.9051V27.075H22.9601V23.13L22.8101 22.985Z" fill="#67AA89"/>
<path fill-rule="evenodd" clip-rule="evenodd" d="M22.885 23.055H26.98V27.15H22.885V23.055L23.03 23.2H26.835V27.005H23.03V23.2L22.885 23.055Z" fill="#67AA89"/>
<path fill-rule="evenodd" clip-rule="evenodd" d="M22.96 23.13H26.905V27.075H22.96V23.13L23.105 23.275H26.76V26.93H23.105V23.275L22.96 23.13Z" fill="#67AA89"/>
<path fill-rule="evenodd" clip-rule="evenodd" d="M23.03 23.2H26.835V27.005H23.03V23.2L23.18 23.35H26.685V26.855H23.18V23.35L23.03 23.2Z" fill="#67AA89"/>
<path fill-rule="evenodd" clip-rule="evenodd" d="M23.105 23.275H26.76V26.93H23.105V23.275L23.25 23.42H26.615V26.785H23.25V23.42L23.105 23.275Z" fill="#67AA89"/>
<path fill-rule="evenodd" clip-rule="evenodd" d="M23.1801 23.35H26.6851V26.855H23.1801V23.35L23.3251 23.495H26.5401V26.71H23.3251V23.495L23.1801 23.35Z" fill="#67AA89"/>
<path fill-rule="evenodd" clip-rule="evenodd" d="M23.25 23.42H26.615V26.785H23.25V23.42L23.395 23.57H26.465V26.64H23.395V23.57L23.25 23.42Z" fill="#67AA89"/>
<path fill-rule="evenodd" clip-rule="evenodd" d="M23.325 23.495H26.54V26.71H23.325V23.495L23.47 23.64H26.395V26.565H23.47V23.64L23.325 23.495Z" fill="#67AA89"/>
<path fill-rule="evenodd" clip-rule="evenodd" d="M23.395 23.57H26.465V26.64H23.395V23.57L23.545 23.715H26.32V26.49H23.545V23.715L23.395 23.57Z" fill="#67AA89"/>
<path fill-rule="evenodd" clip-rule="evenodd" d="M23.47 23.64H26.395V26.565H23.47V23.64L23.615 23.785H26.25V26.42H23.615V23.785L23.47 23.64Z" fill="#67AA89"/>
<path fill-rule="evenodd" clip-rule="evenodd" d="M23.545 23.715H26.32V26.49H23.545V23.715L23.69 23.86H26.175V26.345H23.69V23.86L23.545 23.715Z" fill="#67AA89"/>
<path fill-rule="evenodd" clip-rule="evenodd" d="M23.615 23.785H26.25V26.42H23.615V23.785L23.76 23.935H26.1V26.275H23.76V23.935L23.615 23.785Z" fill="#67AA89"/>
<path fill-rule="evenodd" clip-rule="evenodd" d="M23.6899 23.86H26.1749V26.345H23.6899V23.86L23.8349 24.005H26.0299V26.2H23.8349V24.005L23.6899 23.86Z" fill="#67AA89"/>
<path fill-rule="evenodd" clip-rule="evenodd" d="M23.76 23.935H26.1V26.275H23.76V23.935L23.91 24.08H25.955V26.125H23.91V24.08L23.76 23.935Z" fill="#67AA89"/>
<path fill-rule="evenodd" clip-rule="evenodd" d="M23.835 24.005H26.03V26.2H23.835V24.005L23.98 24.15H25.885V26.055H23.98V24.15L23.835 24.005Z" fill="#67AA89"/>
<path fill-rule="evenodd" clip-rule="evenodd" d="M23.91 24.08H25.955V26.125H23.91V24.08L24.055 24.225H25.81V25.98H24.055V24.225L23.91 24.08Z" fill="#67AA89"/>
<path fill-rule="evenodd" clip-rule="evenodd" d="M23.98 24.15H25.885V26.055H23.98V24.15L24.13 24.3H25.735V25.905H24.13V24.3L23.98 24.15Z" fill="#67AA89"/>
<path fill-rule="evenodd" clip-rule="evenodd" d="M24.0551 24.225H25.8101V25.98H24.0551V24.225L24.2001 24.37H25.6651V25.835H24.2001V24.37L24.0551 24.225Z" fill="#67AA89"/>
<path fill-rule="evenodd" clip-rule="evenodd" d="M24.13 24.3H25.735V25.905H24.13V24.3L24.275 24.445H25.59V25.76H24.275V24.445L24.13 24.3Z" fill="#67AA89"/>
<path fill-rule="evenodd" clip-rule="evenodd" d="M24.2 24.37H25.6649V25.835H24.2V24.37L24.345 24.52H25.5149V25.69H24.345V24.52L24.2 24.37Z" fill="#67AA89"/>
<path fill-rule="evenodd" clip-rule="evenodd" d="M24.275 24.445H25.59V25.76H24.275V24.445L24.42 24.59H25.445V25.615H24.42V24.59L24.275 24.445Z" fill="#67AA89"/>
<path fill-rule="evenodd" clip-rule="evenodd" d="M24.345 24.52H25.515V25.69H24.345V24.52L24.495 24.665H25.37V25.54H24.495V24.665L24.345 24.52Z" fill="#67AA89"/>
<path fill-rule="evenodd" clip-rule="evenodd" d="M24.42 24.59H25.445V25.615H24.42V24.59L24.565 24.735H25.3V25.47H24.565V24.735L24.42 24.59Z" fill="#67AA89"/>
<path fill-rule="evenodd" clip-rule="evenodd" d="M24.495 24.665H25.37V25.54H24.495V24.665L24.64 24.81H25.225V25.395H24.64V24.81L24.495 24.665Z" fill="#67AA89"/>
<path fill-rule="evenodd" clip-rule="evenodd" d="M24.5649 24.735H25.2999V25.47H24.5649V24.735L24.7149 24.885H25.1499V25.32H24.7149V24.885L24.5649 24.735Z" fill="#67AA89"/>
<path fill-rule="evenodd" clip-rule="evenodd" d="M24.64 24.81H25.225V25.395H24.64V24.81L24.785 24.955H25.08V25.25H24.785V24.955L24.64 24.81Z" fill="#67AA89"/>
<path fill-rule="evenodd" clip-rule="evenodd" d="M24.715 24.885H25.15V25.32H24.715V24.885L24.86 25.03H25.005V25.175H24.86V25.03L24.715 24.885Z" fill="#67AA89"/>
<path fill-rule="evenodd" clip-rule="evenodd" d="M24.785 24.955H25.08V25.25H24.785V24.955L24.93 25.105L24.785 24.955Z" fill="#67AA89"/>
<path fill-rule="evenodd" clip-rule="evenodd" d="M24.86 25.03H25.005V25.175H24.86V25.03Z" fill="#67AA89"/>
<path d="M20.6319 35.5903C20.9791 35.9375 21.434 36.1111 21.8888 36.1111C22.3437 36.1111 22.7986 35.9375 23.1458 35.5903L34.1805 24.5556L22.625 13L20.1112 15.5139L22.0417 17.4444L13.5208 25.9653C12.8264 26.6597 12.8264 27.7847 13.5208 28.4791L20.6319 35.5903ZM24.5556 19.9583L29.1528 24.5556L26.4861 27.2222H17.2917L24.5556 19.9583Z" fill="url(#paint0_linear)"/>
<path d="M34.3333 36.1112C35.806 36.1112 37 34.9172 37 33.4445C37 31.9718 34.3333 29.0001 34.3333 29.0001C34.3333 29.0001 31.6666 31.9718 31.6666 33.4445C31.6666 34.9172 32.8606 36.1112 34.3333 36.1112Z" fill="url(#paint1_linear)"/>
</g>
<defs>
<linearGradient id="paint0_linear" x1="23.5902" y1="13" x2="23.5902" y2="36.1111" gradientUnits="userSpaceOnUse">
<stop stop-color="#E6E6E6"/>
<stop offset="1" stop-color="#B3B3B3"/>
</linearGradient>
<linearGradient id="paint1_linear" x1="34.3333" y1="29.0001" x2="34.3333" y2="36.1112" gradientUnits="userSpaceOnUse">
<stop stop-color="#E6E6E6"/>
<stop offset="1" stop-color="#B3B3B3"/>
</linearGradient>
<clipPath id="clip0">
<rect width="50" height="50" fill="white"/>
</clipPath>
</defs>
</svg>
