<?xml version="1.0" standalone="no"?>
<!DOCTYPE svg PUBLIC "-//W3C//DTD SVG 20010904//EN"
 "http://www.w3.org/TR/2001/REC-SVG-20010904/DTD/svg10.dtd">
<svg version="1.0" xmlns="http://www.w3.org/2000/svg"
 width="805.000000pt" height="328.000000pt" viewBox="0 0 805.000000 328.000000"
 preserveAspectRatio="xMidYMid meet">
<metadata>
Created by potrace 1.15, written by Peter Selinger 2001-2017
</metadata>
<g transform="translate(0.000000,328.000000) scale(0.100000,-0.100000)"
fill="#000000" stroke="none">
<path d="M3331 2669 c-206 -4 -395 -10 -420 -13 -78 -10 -463 -36 -516 -34
-28 1 6 7 80 14 l130 13 -135 -5 c-74 -3 -187 -9 -250 -15 -63 -5 -230 -12
-370 -14 -327 -5 -830 -34 -1255 -71 -67 -6 -72 -8 -123 -58 -62 -59 -128
-148 -166 -223 -14 -29 -26 -55 -26 -57 0 -3 37 -7 83 -9 59 -3 50 -3 -32 -3
l-114 1 -28 -42 c-16 -23 -32 -57 -36 -75 -6 -30 -2 -28 43 32 l49 65 135 3
c74 1 141 -2 149 -7 11 -7 11 -26 -2 -117 -42 -288 -47 -650 -13 -879 21 -136
20 -145 -5 -145 -11 0 -17 -4 -14 -10 4 -6 -35 -10 -109 -10 -64 0 -116 -3
-116 -6 0 -3 18 -41 41 -84 62 -119 199 -273 228 -256 5 4 119 -3 253 -14 311
-25 745 -53 760 -48 11 4 -51 14 -512 83 -294 44 -362 56 -357 62 3 2 45 -3
93 -11 132 -23 626 -92 894 -125 223 -28 472 -49 370 -32 -25 4 -40 9 -33 9
12 2 730 -58 943 -78 335 -32 1391 -45 1745 -22 650 43 1048 101 1530 224 555
141 1033 363 1460 676 65 48 135 125 135 149 0 105 -519 453 -951 639 -599
257 -1362 420 -2219 474 -154 10 -864 31 -920 28 -14 -1 -193 -5 -399 -9z
m-1296 -359 c4 -7 -130 -10 -396 -10 -221 0 -400 -2 -398 -4 2 -2 182 -7 399
-11 l395 -7 50 -30 c27 -17 43 -28 34 -25 -9 3 -28 0 -42 -8 -19 -10 -151 -14
-598 -17 -346 -2 -581 -7 -591 -13 -11 -7 212 -10 645 -10 650 0 1071 -7 887
-14 -47 -2 -74 -6 -61 -8 l23 -5 -7 -556 c-4 -307 -9 -559 -11 -561 -2 -3 -13
5 -25 17 -11 13 -24 20 -30 17 -5 -4 -9 -2 -9 4 0 14 -106 6 -168 -13 -9 -3
-35 -8 -57 -11 -22 -4 -53 -16 -69 -27 -28 -20 -34 -21 -415 -13 -357 7 -734
25 -745 36 -31 30 -44 736 -17 959 7 63 17 125 22 138 10 26 3 44 -9 25 -5 -8
-21 -10 -45 -6 -32 5 -35 8 -26 24 7 14 21 19 48 19 24 0 52 9 75 25 43 29 58
33 25 7 -22 -19 -22 -19 47 -25 38 -3 76 -1 86 4 9 5 30 9 46 9 17 0 32 6 36
15 3 8 11 12 19 10 7 -3 26 8 42 25 16 16 25 30 21 30 -4 0 -4 5 -1 10 4 6
152 10 410 10 258 0 406 -4 410 -10z m633 -97 l14 -23 -178 0 -177 0 23 25
c24 25 26 25 163 23 132 -3 140 -4 155 -25z m1412 -130 c25 -66 70 -247 70
-280 0 -23 39 -56 78 -66 15 -4 22 -1 22 10 0 13 3 13 15 3 12 -10 18 -10 30
0 12 10 15 10 15 -3 0 -8 -6 -18 -12 -20 -14 -6 24 -11 55 -8 16 2 17 -12 17
-161 0 -90 -7 -219 -15 -287 -15 -121 -61 -339 -74 -353 -4 -5 -101 25 -216
66 l-210 74 1 39 c0 21 6 133 13 248 13 200 10 614 -5 706 -6 33 -4 37 20 41
26 5 35 -5 16 -17 -15 -10 -12 -25 4 -19 8 3 16 15 18 27 2 16 17 24 63 38 33
10 63 18 67 18 4 1 16 -25 28 -56z m-3238 -1072 c2 -4 199 -12 438 -16 438 -8
839 -20 765 -23 -28 -1 -44 -8 -53 -22 -9 -15 -24 -20 -60 -21 -72 -2 -14 -17
69 -18 53 -1 87 7 178 39 110 39 114 40 244 39 73 -1 158 -4 189 -8 l57 -6
-17 -22 c-21 -28 -128 -45 -267 -42 -65 1 -100 -3 -128 -15 -24 -11 -64 -17
-110 -16 -40 0 -142 -3 -227 -6 -224 -8 -720 5 -720 20 0 25 -83 41 -246 49
-25 1 -56 13 -82 30 -23 15 -56 27 -74 28 -28 0 -30 2 -13 9 27 11 53 12 57 1z"/>
</g>
</svg>
