<?xml version="1.0" encoding="utf-8"?>
<!-- Generator: Adobe Illustrator 21.0.0, SVG Export Plug-In . SVG Version: 6.00 Build 0)  -->
<svg version="1.1" xmlns="http://www.w3.org/2000/svg" xmlns:xlink="http://www.w3.org/1999/xlink" x="0px" y="0px" width="50px"
	 height="50px" viewBox="0 0 50 50" enable-background="new 0 0 50 50" xml:space="preserve">
<g id="Слой_1" display="none">
	
		<image display="inline" overflow="visible" opacity="0.3" width="500" height="1000" xlink:href="персонажи скетч.jpg"  transform="matrix(0.2774 0 0 0.2774 -42.1967 -147.512)">
	</image>
</g>
<g id="Слой_3">
	<path fill="#F9C8A7" d="M16.258,14.984c0.019-1.004-0.513-1.816-1.107-2.419c-1.476-1.499-4.722-1.183-6.732,0.699
		c-2.372,2.222-2.257,5.688-2.215,6.295c0.201,2.861,3.466,4.08,3.526,4.255c0.183,0.527-0.787,4.226,1.049,6.091
		c0.859,0.872,3.862,3.34,3.993,4.051c0.204,1.107,0.417,1.43,0.874,2.39c0.737,1.547,2.807,1.566,3.002,1.137
		c0.279-0.615-0.379-1.328-0.495-2.506c-0.106-1.076-0.146-2.535-0.146-2.535s3.969,0.483,7.152,0.352
		c2.173-0.089,6.282-1.054,6.457-1.08c0.296,0.273,1.157,0.895,1.749,1.457c1.211,1.15,1.448,1.421,2.011,1.778
		c0.672,0.426,1.603,1.016,2.419,0.67c0.325-0.138,0.853-0.352,0.903-0.787c0.059-0.505-0.434-1.045-1.486-1.953
		c-1.69-1.457-1.851-3.153-1.399-3.293c0.634-0.197,2.762-2.626,3.06-2.652c0.104-0.009,1.471,1.163,2.205,0.804
		c0.294-0.144,1.059-1.008,0.184-2.028c-0.186-0.217-0.955-0.711-1.603-1.02c0.108-0.455,0.219-1.122,0.175-1.923
		c-0.095-1.734-0.848-2.956-1.282-3.643c-0.561-0.887-1.314-1.861-2.652-2.681c-0.903-0.554-3.04-0.396-3.206-0.35l-2.331-2.477
		l0.117,2.943c-0.218,0.144-5.911-0.432-8.801-0.321C17.957,16.38,16.199,18.131,16.258,14.984z"/>
	<path fill="#FFFFFF" d="M25.205,32.779c-1.417-0.951-7.441-8.675-1.943-16.585l2.457,0.191c-5.498,7.91,0.857,15.099,2.274,16.05
		L25.205,32.779z"/>
</g>
<g id="Слой_2">
	<path fill="none" stroke="#000000" stroke-linecap="round" stroke-linejoin="round" stroke-miterlimit="10" d="M12.027,14.895
		c-4.157,4.358,5.983,7.619,4.221-0.213c-0.958-4.257-6.667-3.528-8.726-0.603c-2.167,3.079-1.405,8.483,3.462,10.055"/>
	<path fill="none" stroke="#000000" stroke-linecap="round" stroke-linejoin="round" stroke-miterlimit="10" d="M31.338,26.369
		c-1.401-1.227-2.345-2.777-2.591-3.424c-0.137-0.362-0.163-0.532-0.078-0.638c0.364-0.451,1.641-0.045,3.429,0.994"/>
	<path fill="none" stroke="#000000" stroke-linecap="round" stroke-linejoin="round" stroke-miterlimit="10" d="M30.915,19.114
		c-0.551-2.503-1.002-5.212-0.37-5.456c0.052-0.02,1.933,2.275,2.726,3.35"/>
	<path fill="none" stroke="#000000" stroke-linecap="round" stroke-linejoin="round" stroke-miterlimit="10" d="M9.792,23.976
		c-0.09,0.525-0.749,4.509,1.809,6.917c1.206,1.135,3.063,2.351,3.299,3.654c0.391,2.155,2.554,3.689,3.583,3.121
		c0.491-0.271,0.054-0.975-0.177-1.915c-0.111-0.451-0.509-2.118-0.355-3.795c0.101-1.092,0.284-3.405-0.709-4.398"/>
	<path fill="none" stroke="#000000" stroke-linecap="round" stroke-linejoin="round" stroke-miterlimit="10" d="M16.532,16.846
		c0.961-0.217,2.033-0.406,3.205-0.532c2.55-0.273,4.588-0.11,6.371,0.035c1.298,0.106,3.445,0.355,4.169,0.463"/>
	<path fill="none" stroke="#000000" stroke-linecap="round" stroke-linejoin="round" stroke-miterlimit="10" d="M18.199,32.418
		c0.824,0.801,9.613,0.709,13.266-0.674c0.253,0.32,2.401,2.545,3.476,3.157c0.933,0.531,2.66,1.596,3.831,0.248
		c0.293-0.337-0.539-1.316-1.49-2.27c-1.541-1.546-1.676-1.727-1.703-2.27c-0.021-0.439,0.226-1.055,0.513-1.415"/>
	<path fill="none" stroke="#000000" stroke-linecap="round" stroke-linejoin="round" stroke-miterlimit="10" d="M32.721,15.948
		c0.486-0.084,1.701-0.094,2.647,0.178c2.589,0.745,4.134,3.609,4.645,6.147c0.271,1.344-0.912,4.637-2.702,6.116
		c-1.311,1.083-2.422,1.026-3.192,0.94"/>
	<path fill="none" stroke="#000000" stroke-linecap="round" stroke-linejoin="round" stroke-miterlimit="10" d="M39.198,27.168
		c0.045,0.037,1.152,0.806,1.88,0.568c0.05-0.016,0.708-0.243,0.851-0.816c0.144-0.578-0.603-1.454-1.738-2.128"/>
	
		<path fill="#8EE1EF" stroke="#000000" stroke-width="0.75" stroke-linecap="round" stroke-linejoin="round" stroke-miterlimit="10" d="
		M22.491,32.808c-1.417-0.951-7.441-8.675-1.943-16.585l2.617-0.016c-5.498,7.91,0.577,15.633,1.994,16.584L22.491,32.808z"/>
	
		<path fill="#8EE1EF" stroke="#000000" stroke-width="0.75" stroke-linecap="round" stroke-linejoin="round" stroke-miterlimit="10" d="
		M28.273,32.454c-1.417-0.951-8.052-8.158-2.554-16.068l2.235,0.355c-4.115,6.881,1.563,14.159,2.98,15.111L28.273,32.454z"/>
	<path fill="none" stroke="#000000" stroke-width="0.5" stroke-linecap="round" stroke-linejoin="round" stroke-miterlimit="10" d="
		M38.732,19.631c0.284-1.171,0.851-1.703,1.561-1.809"/>
	<path fill="none" stroke="#000000" stroke-width="0.5" stroke-linecap="round" stroke-linejoin="round" stroke-miterlimit="10" d="
		M39.2,19.909c0.674-0.998,1.391-1.3,2.093-1.152"/>
	<path fill="none" stroke="#000000" stroke-width="0.5" stroke-linecap="round" stroke-linejoin="round" stroke-miterlimit="10" d="
		M38.178,25.049c-0.174,1.192,0.154,1.897,0.772,2.261"/>
	<path fill="none" stroke="#000000" stroke-width="0.5" stroke-linecap="round" stroke-linejoin="round" stroke-miterlimit="10" d="
		M38.716,24.966c0.252,1.178,0.805,1.725,1.511,1.851"/>
	
		<path fill="#8EE1EF" stroke="#000000" stroke-width="0.5" stroke-linecap="round" stroke-linejoin="round" stroke-miterlimit="10" d="
		M35.494,18.071c-0.276,0.257-0.181,0.919,0.1,1.294c0.198,0.265,0.571,0.496,0.837,0.332c0.306-0.189,0.324-0.811,0.101-1.217
		C36.296,18.048,35.764,17.819,35.494,18.071z"/>
	
		<path fill="#8EE1EF" stroke="#000000" stroke-width="0.5" stroke-linecap="round" stroke-linejoin="round" stroke-miterlimit="10" d="
		M36.424,23.821c-0.38,0.084-0.697,0.776-0.69,1.299c0.005,0.37,0.174,0.81,0.49,0.808c0.364-0.002,0.75-0.588,0.809-1.108
		C37.097,24.268,36.797,23.738,36.424,23.821z"/>
	
		<path fill="#D18B8B" stroke="#000000" stroke-width="0.5" stroke-linecap="round" stroke-linejoin="round" stroke-miterlimit="10" d="
		M38.328,21.012c-0.002,0.001,0.208,0.651,0.208,0.653c0,0.002-0.231,0.548-0.23,0.549c0.309,0.252,0.676-0.139,0.977-0.426
		C39.282,21.787,38.575,20.895,38.328,21.012z"/>
</g>
</svg>
