<?xml version="1.0" standalone="no"?>
<!DOCTYPE svg PUBLIC "-//W3C//DTD SVG 20010904//EN"
 "http://www.w3.org/TR/2001/REC-SVG-20010904/DTD/svg10.dtd">
<svg version="1.0" xmlns="http://www.w3.org/2000/svg"
 width="857.000000pt" height="767.000000pt" viewBox="0 0 857.000000 767.000000"
 preserveAspectRatio="xMidYMid meet">
<metadata>
Created by potrace 1.15, written by Peter Selinger 2001-2017
</metadata>
<g transform="translate(0.000000,767.000000) scale(0.100000,-0.100000)"
fill="#000000" stroke="none">
<path d="M5478 7335 c-3 -4 -102 -6 -220 -6 -251 2 -529 -13 -793 -41 -176
-19 -374 -36 -437 -37 -15 -1 -40 -13 -55 -27 -21 -19 -23 -24 -8 -18 58 24
477 -20 535 -56 22 -13 7 -22 -95 -59 -160 -58 -219 -85 -256 -118 -22 -20
-57 -38 -92 -47 -75 -20 -94 -31 -113 -69 -16 -31 -16 -32 2 -15 35 31 88 46
159 46 39 0 88 5 110 10 51 11 115 4 115 -13 0 -8 -39 -26 -92 -44 -103 -34
-352 -152 -383 -181 -11 -10 -49 -28 -85 -40 -78 -27 -123 -55 -144 -91 -24
-40 -20 -46 12 -17 15 14 37 31 49 37 32 16 140 26 155 14 7 -6 30 -16 50 -22
51 -17 114 -65 134 -103 14 -27 15 -39 5 -85 -11 -46 -21 -60 -78 -113 -148
-135 -420 -317 -542 -361 -44 -16 -101 -66 -101 -87 0 -13 6 -10 25 10 13 14
32 29 42 31 10 3 40 11 66 17 l49 13 106 -105 c98 -96 178 -165 337 -292 134
-108 585 -553 744 -734 186 -214 211 -246 208 -267 -1 -10 -21 -33 -45 -50
l-44 -30 -169 -3 -169 -3 0 31 c0 24 11 41 49 78 76 74 90 160 35 215 -20 21
-24 31 -19 63 8 54 -21 99 -72 114 -21 5 -106 16 -190 22 -219 17 -256 9 -419
-96 -81 -52 -139 -66 -139 -33 0 10 15 25 35 35 29 14 36 24 42 62 4 25 14 61
22 80 17 44 6 70 -31 70 -26 0 -26 -1 -7 -15 16 -13 17 -16 4 -25 -8 -5 -30
-10 -48 -10 -22 0 -35 -6 -39 -17 -12 -34 -56 -84 -65 -75 -5 5 -3 39 4 79 14
84 7 99 -51 109 -20 4 -47 15 -60 25 -43 34 -57 26 -56 -33 0 -47 3 -54 28
-66 34 -16 34 -32 2 -62 -31 -29 -33 -79 -7 -165 16 -51 17 -71 9 -122 -9 -55
-9 -65 7 -82 26 -29 14 -51 -29 -51 -51 0 -98 -22 -180 -85 -54 -41 -96 -63
-171 -89 -189 -66 -253 -73 -714 -83 -599 -12 -616 -11 -742 21 -232 59 -468
190 -664 369 -80 73 -223 258 -268 346 -23 44 -55 199 -66 321 -26 277 -31
314 -50 369 -21 64 -309 671 -330 695 -25 31 -80 13 -80 -26 0 -10 32 -103 71
-206 39 -103 98 -260 130 -350 l59 -162 5 -202 c2 -111 7 -217 11 -237 44
-264 48 -278 107 -396 132 -265 430 -555 738 -719 159 -84 387 -159 519 -170
36 -3 205 -17 375 -31 543 -45 602 -52 717 -85 121 -35 246 -89 292 -126 17
-14 58 -47 90 -74 69 -56 96 -64 226 -65 174 -2 259 -28 308 -94 12 -17 42
-42 67 -57 54 -31 58 -58 17 -97 -31 -30 -127 -71 -143 -61 -16 9 -78 -16 -94
-39 -32 -46 -6 -97 49 -97 15 0 91 -22 169 -49 78 -27 162 -53 187 -56 25 -4
56 -13 69 -20 23 -12 22 -13 -84 -128 -59 -64 -147 -167 -196 -229 -48 -62
-113 -142 -143 -178 -142 -168 -321 -417 -352 -492 -70 -164 -84 -181 -165
-199 -32 -7 -59 -17 -59 -21 0 -4 57 -8 128 -8 118 0 438 -21 542 -36 55 -8
138 -40 164 -62 35 -33 45 -64 35 -117 -8 -41 -19 -60 -66 -107 -32 -32 -63
-58 -71 -58 -7 0 -26 -7 -43 -15 -35 -19 -71 -22 -118 -11 -25 6 -32 5 -26 -4
15 -24 64 -34 170 -35 104 -1 162 -7 490 -56 77 -11 155 -23 173 -25 18 -3 46
-17 63 -32 l30 -27 -15 -48 c-20 -65 -40 -93 -84 -117 -20 -11 -68 -38 -107
-60 -59 -32 -80 -39 -130 -40 -47 0 -56 -3 -42 -11 47 -27 81 -29 155 -8 56
16 80 18 105 10 18 -5 125 -11 238 -14 117 -3 215 -10 226 -16 11 -5 26 -24
33 -41 35 -83 -27 -234 -163 -395 -78 -93 -117 -125 -152 -125 -8 0 -15 -4
-15 -10 0 -5 15 -10 33 -10 36 0 93 33 166 94 24 20 65 49 90 63 200 115 687
460 852 602 41 36 124 102 183 146 232 173 305 234 451 380 94 95 202 219 238
275 9 14 39 42 66 63 57 44 77 87 67 151 -3 22 -9 58 -12 79 -5 30 -2 45 15
68 24 32 10 39 -23 14 -29 -22 -79 -18 -120 10 -55 37 -125 35 -411 -11 -179
-28 -500 -68 -655 -80 -36 -2 -119 -10 -185 -16 -159 -14 -1042 -20 -1066 -7
-37 20 -17 72 65 174 23 28 104 124 181 215 77 91 159 190 181 220 94 127 254
351 264 370 24 45 85 102 145 135 34 19 65 35 69 35 13 0 46 -65 46 -91 0 -40
48 -79 96 -79 31 0 46 -6 65 -26 66 -72 182 -71 315 3 24 13 57 41 73 61 28
36 87 71 181 108 25 10 66 32 91 50 55 38 174 107 241 141 55 27 75 55 53 73
-15 12 -49 6 -75 -14 -30 -24 -160 -79 -167 -72 -9 9 117 128 159 151 15 9 30
26 34 39 3 14 14 32 25 42 33 29 21 33 -35 10 -32 -13 -86 -51 -135 -94 -105
-93 -126 -97 -71 -15 17 24 30 47 30 51 2 23 77 85 153 126 95 52 196 77 432
110 66 9 170 26 230 37 121 21 245 38 288 39 42 0 37 -14 -45 -114 -32 -39
-39 -83 -10 -71 9 4 35 12 58 18 32 7 46 18 65 49 13 21 34 45 46 54 21 13 23
13 20 -8 -2 -23 -1 -23 93 -20 52 2 99 7 105 11 5 5 28 12 49 16 22 3 56 15
75 26 60 32 240 109 256 109 38 0 190 53 229 80 78 53 79 137 4 176 -18 9 -41
23 -50 31 -10 9 -26 13 -40 10 -35 -10 -214 11 -298 34 -152 41 -186 49 -223
53 -20 2 -46 11 -57 21 -19 17 -21 17 -39 1 -16 -15 -30 -17 -71 -11 -59 8
-86 -5 -70 -35 30 -55 -7 -52 -67 5 -45 43 -49 45 -106 45 -58 0 -59 -1 -44
-18 10 -10 17 -24 17 -32 0 -7 17 -27 37 -45 25 -22 35 -37 30 -48 -5 -14 -23
-17 -114 -17 -59 -1 -146 -3 -193 -5 -47 -2 -184 0 -305 4 l-220 9 -75 35
c-89 42 -150 66 -253 101 -67 22 -157 68 -157 80 0 2 7 20 15 39 8 20 15 49
15 64 0 45 -61 144 -113 183 -25 19 -55 47 -67 62 -19 25 -20 31 -9 63 12 33
11 37 -14 63 -70 73 10 48 88 -28 37 -36 75 -62 100 -70 22 -7 54 -21 71 -31
34 -20 64 -25 64 -10 0 5 -8 12 -17 15 -10 4 -25 21 -33 39 -10 21 -26 36 -47
42 -46 15 -116 86 -100 101 6 6 99 -19 175 -47 66 -24 168 -37 158 -21 -4 7
-16 12 -26 12 -10 0 -27 14 -37 30 -10 17 -29 33 -43 36 -14 2 -38 9 -55 15
-16 6 -52 19 -79 29 -83 28 -71 49 45 81 152 40 181 58 144 89 -16 13 -39 11
-125 -15 -30 -9 -86 -16 -125 -17 -72 0 -391 18 -502 28 -77 7 -156 -9 -205
-41 -30 -20 -41 -36 -53 -79 -16 -56 -49 -97 -64 -80 -5 5 -22 34 -38 64 -36
66 -127 220 -282 475 -198 327 -207 343 -226 398 -12 35 -16 64 -11 83 18 71
200 190 574 374 133 66 245 120 248 120 2 0 92 36 199 80 210 87 313 123 645
231 319 104 361 124 386 184 21 50 37 59 102 51 52 -5 55 -4 38 9 -11 8 -25
15 -31 15 -24 0 -53 47 -64 101 -9 40 -20 64 -42 85 -27 26 -39 30 -122 36
-51 3 -122 13 -160 22 -37 8 -113 20 -170 26 -56 7 -124 15 -152 19 -68 9
-528 15 -537 6z m202 -2443 c47 -47 90 -113 90 -138 0 -2 -17 -4 -37 -4 -43 0
-104 26 -148 63 -29 25 -30 26 -14 54 9 15 19 40 23 56 3 15 11 27 17 27 6 0
37 -26 69 -58z m-912 -1322 c62 -28 58 -39 -42 -129 l-58 -53 -21 21 c-19 19
-20 24 -8 56 7 20 12 52 11 73 -1 20 -2 40 -1 45 2 14 77 6 119 -13z"/>
</g>
</svg>
