<?xml version="1.0" encoding="utf-8"?>
<!-- Generator: Adobe Illustrator 21.0.0, SVG Export Plug-In . SVG Version: 6.00 Build 0)  -->
<svg version="1.1" xmlns="http://www.w3.org/2000/svg" xmlns:xlink="http://www.w3.org/1999/xlink" x="0px" y="0px"
	 viewBox="0 0 200 200" style="enable-background:new 0 0 200 200;" xml:space="preserve">
<style type="text/css">
	.st0{fill:#E0E0E0;stroke:#000000;stroke-width:0.5;stroke-miterlimit:10;}
	.st1{fill:#6896EA;stroke:#000000;stroke-width:0.5;stroke-miterlimit:10;}
	.st2{fill:#80A1FF;stroke:#000000;stroke-width:0.5;stroke-miterlimit:10;}
	.st3{fill:#65845A;stroke:#000000;stroke-width:0.5;stroke-miterlimit:10;}
	.st4{fill:#C19185;stroke:#000000;stroke-width:0.5;stroke-miterlimit:10;}
	.st5{fill:#B5857C;stroke:#000000;stroke-width:0.5;stroke-miterlimit:10;}
	.st6{fill:#C9C9C9;stroke:#000000;stroke-width:0.5;stroke-miterlimit:10;}
	.st7{fill:#966A62;stroke:#000000;stroke-width:0.5;stroke-miterlimit:10;}
	.st8{fill:#686868;stroke:#000000;stroke-width:0.5;stroke-miterlimit:10;}
	.st9{fill:#ADADAD;stroke:#000000;stroke-width:0.5;stroke-miterlimit:10;}
	.st10{fill:#8DB0FF;stroke:#000000;stroke-width:0.5;stroke-miterlimit:10;}
</style>
<g id="Слой_1">
</g>
<g id="Слой_14">
	<path class="st0" d="M161.4,43.8h-17.7c0-3.3,1.8-6.1,4.5-7.6h8.7C159.6,37.7,161.4,40.5,161.4,43.8z"/>
	<path class="st0" d="M118.5,43.8h-17.7c0-3.3,1.8-6.1,4.5-7.6h8.7C116.6,37.7,118.4,40.5,118.5,43.8z"/>
	<path class="st0" d="M75.4,43.8H57.7c0-3.3,1.8-6.1,4.5-7.6h8.7C73.6,37.7,75.4,40.5,75.4,43.8z"/>
	<path class="st0" d="M32.5,43.8H14.7c0-3.3,1.8-6.1,4.5-7.6H28C30.6,37.7,32.4,40.5,32.5,43.8z"/>
	<path class="st0" d="M161.4,155.2h-17.7c0,3.3,1.8,6.1,4.5,7.6h8.7C159.6,161.3,161.4,158.4,161.4,155.2z"/>
	<path class="st0" d="M118.5,155.2h-17.7c0,3.3,1.8,6.1,4.5,7.6h8.7C116.6,161.3,118.4,158.4,118.5,155.2z"/>
	<path class="st0" d="M75.4,155.2H57.7c0,3.3,1.8,6.1,4.5,7.6h8.7C73.6,161.3,75.4,158.4,75.4,155.2z"/>
	<path class="st0" d="M32.5,155.2H14.7c0,3.3,1.8,6.1,4.5,7.6H28C30.6,161.3,32.4,158.4,32.5,155.2z"/>
</g>
<g id="Слой_13">
	
		<rect x="100.7" y="40.3" transform="matrix(-1.836970e-16 1 -1 -1.836970e-16 160.5733 -58.6549)" class="st1" width="17.8" height="21.3"/>
	
		<rect x="108.5" y="22.2" transform="matrix(-1.836970e-16 1 -1 -1.836970e-16 151.2564 -67.9718)" class="st2" width="2.3" height="39"/>
	
		<rect x="108.5" y="39.8" transform="matrix(-1.836970e-16 1 -1 -1.836970e-16 168.9375 -50.2907)" class="st2" width="2.3" height="39"/>
	
		<rect x="143.7" y="40.3" transform="matrix(-1.836970e-16 1 -1 -1.836970e-16 203.5026 -101.5842)" class="st1" width="17.8" height="21.3"/>
	
		<rect x="151.4" y="22.2" transform="matrix(-1.836970e-16 1 -1 -1.836970e-16 194.1857 -110.9011)" class="st2" width="2.3" height="39"/>
	
		<rect x="151.4" y="39.8" transform="matrix(-1.836970e-16 1 -1 -1.836970e-16 211.8668 -93.22)" class="st2" width="2.3" height="39"/>
	
		<rect x="100.7" y="138.5" transform="matrix(-1.836970e-16 1 -1 -1.836970e-16 258.7623 39.5342)" class="st1" width="17.8" height="21.3"/>
	
		<rect x="108.5" y="120.3" transform="matrix(-1.836970e-16 1 -1 -1.836970e-16 249.4454 30.2173)" class="st2" width="2.3" height="39"/>
	
		<rect x="108.5" y="138" transform="matrix(-1.836970e-16 1 -1 -1.836970e-16 267.1265 47.8984)" class="st2" width="2.3" height="39"/>
	
		<rect x="143.7" y="138.5" transform="matrix(-1.836970e-16 1 -1 -1.836970e-16 301.6917 -3.3952)" class="st1" width="17.8" height="21.3"/>
	
		<rect x="151.4" y="120.3" transform="matrix(-1.836970e-16 1 -1 -1.836970e-16 292.3748 -12.7121)" class="st2" width="2.3" height="39"/>
	
		<rect x="151.4" y="138" transform="matrix(-1.836970e-16 1 -1 -1.836970e-16 310.0558 4.969)" class="st2" width="2.3" height="39"/>
	
		<rect x="14.7" y="40.3" transform="matrix(-1.836970e-16 1 -1 -1.836970e-16 74.5733 27.3451)" class="st1" width="17.8" height="21.3"/>
	
		<rect x="22.5" y="22.2" transform="matrix(-1.836970e-16 1 -1 -1.836970e-16 65.2564 18.0282)" class="st2" width="2.3" height="39"/>
	
		<rect x="22.5" y="39.8" transform="matrix(-1.836970e-16 1 -1 -1.836970e-16 82.9375 35.7093)" class="st2" width="2.3" height="39"/>
	
		<rect x="57.7" y="40.3" transform="matrix(-1.836970e-16 1 -1 -1.836970e-16 117.5026 -15.5842)" class="st1" width="17.8" height="21.3"/>
	
		<rect x="65.4" y="22.2" transform="matrix(-1.836970e-16 1 -1 -1.836970e-16 108.1857 -24.9011)" class="st2" width="2.3" height="39"/>
	
		<rect x="65.4" y="39.8" transform="matrix(-1.836970e-16 1 -1 -1.836970e-16 125.8668 -7.22)" class="st2" width="2.3" height="39"/>
	
		<rect x="14.7" y="138.5" transform="matrix(-1.836970e-16 1 -1 -1.836970e-16 172.7623 125.5342)" class="st1" width="17.8" height="21.3"/>
	
		<rect x="22.5" y="120.3" transform="matrix(-1.836970e-16 1 -1 -1.836970e-16 163.4454 116.2173)" class="st2" width="2.3" height="39"/>
	
		<rect x="22.5" y="138" transform="matrix(-1.836970e-16 1 -1 -1.836970e-16 181.1265 133.8984)" class="st2" width="2.3" height="39"/>
	
		<rect x="57.7" y="138.5" transform="matrix(-1.836970e-16 1 -1 -1.836970e-16 215.6917 82.6048)" class="st1" width="17.8" height="21.3"/>
	
		<rect x="65.4" y="120.3" transform="matrix(-1.836970e-16 1 -1 -1.836970e-16 206.3748 73.2879)" class="st2" width="2.3" height="39"/>
	
		<rect x="65.4" y="138" transform="matrix(-1.836970e-16 1 -1 -1.836970e-16 224.0558 90.969)" class="st2" width="2.3" height="39"/>
</g>
<g id="Слой_16">
</g>
<g id="Слой_18">
</g>
<g id="Слой_15">
	<path class="st3" d="M64.9,152.8h86c5.9,0,10.6-4.8,10.6-10.6v0c0-5.9-4.8-10.6-10.6-10.6H81.4V68h47.5c5.9,0,10.6-4.8,10.6-10.6v0
		c0-5.9-4.8-10.6-10.6-10.6h-85c-4.8,0-8.9,3.2-10.2,7.7c-0.4,1.2-0.7,2.4-0.7,3.7v84c0,5.9,4.8,10.6,10.6,10.6h0
		C49.5,152.8,59.1,152.8,64.9,152.8z M59.4,142.8c0-2.1,1.4-3.9,3.4-4.4h2.4c1.9,0.5,3.4,2.3,3.4,4.4c0,2.5-2.1,4.6-4.6,4.6
		C61.5,147.4,59.4,145.3,59.4,142.8z M81.4,143.3c0-2.5,2.1-4.6,4.6-4.6s4.6,2.1,4.6,4.6s-2.1,4.6-4.6,4.6S81.4,145.8,81.4,143.3z
		 M133.2,143.3c0,2.5-2.1,4.6-4.6,4.6s-4.6-2.1-4.6-4.6s2.1-4.6,4.6-4.6S133.2,140.7,133.2,143.3z M111.4,142.8
		c0,2.5-2.1,4.6-4.6,4.6s-4.6-2.1-4.6-4.6s2.1-4.6,4.6-4.6S111.4,140.2,111.4,142.8z M70.1,121.4c0,2.5-2.1,4.6-4.6,4.6
		c-2.5,0-4.6-2.1-4.6-4.6s2.1-4.6,4.6-4.6C68,116.8,70.1,118.9,70.1,121.4z M70.1,100.4c0,2.5-2.1,4.6-4.6,4.6
		c-2.5,0-4.6-2.1-4.6-4.6s2.1-4.6,4.6-4.6C68,95.8,70.1,97.9,70.1,100.4z M70.1,78.7c0,2.5-2.1,4.6-4.6,4.6c-2.5,0-4.6-2.1-4.6-4.6
		s2.1-4.6,4.6-4.6C68,74.1,70.1,76.2,70.1,78.7z M61.5,60.5c-0.7-0.8-1.1-1.8-1.1-2.9c0-2.5,2.1-4.6,4.6-4.6c2.5,0,4.6,2.1,4.6,4.6
		c0,1.1-0.4,2.1-1.1,2.9H61.5z M133.2,57.6c0,2.5-2.1,4.6-4.6,4.6s-4.6-2.1-4.6-4.6s2.1-4.6,4.6-4.6S133.2,55,133.2,57.6z M107,62.2
		c-2.5,0-4.6-2.1-4.6-4.6s2.1-4.6,4.6-4.6s4.6,2.1,4.6,4.6S109.5,62.2,107,62.2z M90.6,57.6c0,2.5-2.1,4.6-4.6,4.6s-4.6-2.1-4.6-4.6
		S83.4,53,86,53S90.6,55,90.6,57.6z M39,57.6C39,55,41,53,43.6,53s4.6,2.1,4.6,4.6s-2.1,4.6-4.6,4.6S39,60.1,39,57.6z M39,100
		c0-2.5,2.1-4.6,4.6-4.6s4.6,2.1,4.6,4.6s-2.1,4.6-4.6,4.6S39,102.6,39,100z M39,143.3c0-2.5,2.1-4.6,4.6-4.6s4.6,2.1,4.6,4.6
		s-2.1,4.6-4.6,4.6S39,145.8,39,143.3z"/>
</g>
<g id="Слой_17">
</g>
<g id="Слой_12">
</g>
<g id="Слой_11">
	<path class="st4" d="M169,46.6h-17.5c-6.7,0-12.2,5.5-12.2,12.2v2H74.7v78.5h64.7v2c0,6.7,5.5,12.2,12.2,12.2H169V46.6z"/>
	<path class="st5" d="M33.2,141.9V58.3c0-6.3-5.1-11.4-11.4-11.4H4.4v106.4h17.3C28.1,153.3,33.2,148.2,33.2,141.9z M16.5,57.6
		c0-2.5,2.1-4.6,4.6-4.6s4.6,2.1,4.6,4.6s-2.1,4.6-4.6,4.6S16.5,60.1,16.5,57.6z M16.5,100c0-2.5,2.1-4.6,4.6-4.6s4.6,2.1,4.6,4.6
		s-2.1,4.6-4.6,4.6S16.5,102.6,16.5,100z M16.5,143.3c0-2.5,2.1-4.6,4.6-4.6s4.6,2.1,4.6,4.6s-2.1,4.6-4.6,4.6
		S16.5,145.8,16.5,143.3z"/>
</g>
<g id="Слой_3">
	<circle class="st6" cx="149.7" cy="78.8" r="7.9"/>
	<circle class="st0" cx="149.7" cy="78.8" r="4.2"/>
	<circle class="st6" cx="149.7" cy="121.4" r="7.9"/>
	<circle class="st0" cx="149.7" cy="121.4" r="4.2"/>
</g>
<g id="Слой_2">
	<circle class="st6" cx="22.3" cy="78.8" r="7.9"/>
	<circle class="st0" cx="22.3" cy="78.8" r="4.2"/>
	<circle class="st6" cx="22.3" cy="121.4" r="7.9"/>
	<circle class="st0" cx="22.3" cy="121.4" r="4.2"/>
	<circle class="st6" cx="43.6" cy="78.8" r="7.9"/>
	<circle class="st0" cx="43.6" cy="78.8" r="4.2"/>
	<circle class="st6" cx="43.6" cy="121.4" r="7.9"/>
	<circle class="st0" cx="43.6" cy="121.4" r="4.2"/>
</g>
<g id="Слой_9">
	<path class="st7" d="M115.3,120.2V80c0-6.6,5.3-11.9,11.9-11.9h18.2v64h-18.2C120.6,132,115.3,126.7,115.3,120.2z"/>
	<path class="st7" d="M98.7,120.2V80c0-6.6-5.3-11.9-11.9-11.9H68.7v64h18.2C93.4,132,98.7,126.7,98.7,120.2z"/>
</g>
<g id="Слой_4">
	<circle class="st6" cx="128" cy="78.5" r="7.9"/>
	<circle class="st0" cx="128" cy="78.5" r="4.2"/>
	<circle class="st6" cx="128" cy="121.3" r="7.9"/>
	<circle class="st0" cx="128" cy="121.3" r="4.2"/>
	<circle class="st6" cx="85.7" cy="121.3" r="7.9"/>
	<circle class="st0" cx="85.7" cy="121.3" r="4.2"/>
	<circle class="st6" cx="85.7" cy="78.5" r="7.9"/>
	<circle class="st0" cx="85.7" cy="78.5" r="4.2"/>
</g>
<g id="Слой_10">
	
		<rect x="168.5" y="76.9" transform="matrix(-1.836970e-16 1 -1 -1.836970e-16 273.0853 -73.2618)" class="st8" width="9.3" height="46"/>
	
		<rect x="142" y="94.7" transform="matrix(-1.836970e-16 1 -1 -1.836970e-16 249.6506 -49.4591)" class="st9" width="15.1" height="10.7"/>
	<path class="st0" d="M146.9,110.2c-5.5-0.1-10-4.6-10-10.1c0-5.6,4.5-10.1,10-10.1V110.2z"/>
</g>
<g id="Слой_8">
	
		<rect x="111.8" y="98.5" transform="matrix(-1.836970e-16 1 -1 -1.836970e-16 243.9067 -43.7204)" class="st4" width="64" height="3.1"/>
	
		<rect x="36.3" y="98.5" transform="matrix(-1.836970e-16 1 -1 -1.836970e-16 168.4285 31.7578)" class="st4" width="64" height="3.1"/>
</g>
<g id="Слой_7">
	<path class="st10" d="M136.1,100.3c0-16.8-13.6-30.4-30.4-30.4s-30.4,13.6-30.4,30.4c0,16.8,13.6,30.4,30.4,30.4
		S136.1,117.1,136.1,100.3z M125.2,85.3c0,2.5-2.1,4.6-4.6,4.6s-4.6-2.1-4.6-4.6s2.1-4.6,4.6-4.6S125.2,82.8,125.2,85.3z
		 M105.6,74.4c2.5,0,4.6,2.1,4.6,4.6s-2.1,4.6-4.6,4.6S101,81.5,101,79S103,74.4,105.6,74.4z M86.2,85.3c0-2.5,2.1-4.6,4.6-4.6
		s4.6,2.1,4.6,4.6s-2.1,4.6-4.6,4.6S86.2,87.8,86.2,85.3z M131.4,100.3c0,2.5-2.1,4.6-4.6,4.6s-4.6-2.1-4.6-4.6s2.1-4.6,4.6-4.6
		S131.4,97.7,131.4,100.3z M79.7,100.4c0-2.5,2.1-4.6,4.6-4.6s4.6,2.1,4.6,4.6s-2.1,4.6-4.6,4.6S79.7,102.9,79.7,100.4z
		 M120.7,110.7c2.5,0,4.6,2.1,4.6,4.6c0,2.5-2.1,4.6-4.6,4.6s-4.6-2.1-4.6-4.6C116.1,112.8,118.2,110.7,120.7,110.7z M101.1,121.8
		c0-2.5,2.1-4.6,4.6-4.6s4.6,2.1,4.6,4.6s-2.1,4.6-4.6,4.6S101.1,124.4,101.1,121.8z"/>
</g>
<g id="Слой_5">
	<circle class="st9" cx="90.6" cy="115.5" r="10.7"/>
	<polygon class="st6" points="90.6,124.1 83.2,119.8 83.2,111.2 90.6,106.9 98.1,111.2 98.1,119.8 	"/>
</g>
<g id="Слой_6">
	<circle class="st6" cx="105.6" cy="100.3" r="7.9"/>
	<circle class="st0" cx="105.6" cy="100.3" r="4.2"/>
</g>
</svg>
