<?xml version="1.0" encoding="utf-8"?>
<!-- Generator: Adobe Illustrator 17.1.0, SVG Export Plug-In . SVG Version: 6.00 Build 0)  -->
<!DOCTYPE svg PUBLIC "-//W3C//DTD SVG 1.1//EN" "http://www.w3.org/Graphics/SVG/1.1/DTD/svg11.dtd">
<svg version="1.1" id="Layer_1" xmlns="http://www.w3.org/2000/svg" xmlns:xlink="http://www.w3.org/1999/xlink" x="0px" y="0px"
	 viewBox="58 84.4 627 670" enable-background="new 58 84.4 627 670" xml:space="preserve">
<g id="Layer_x0020_1">
	<path fill="#1F1F1F" d="M678.8,234.1v370.1c0,17.2-11.2,31-24.9,31H89.5c-13.8,0-24.9-13.9-24.9-31V234.1c0-17.2,11.2-31,24.9-31
		h564.4C667.6,203.1,678.8,217.1,678.8,234.1L678.8,234.1z"/>
	<rect x="86.9" y="225.7" width="569.4" height="387.1"/>
	<rect x="252.7" y="317" fill="#001A42" width="288.8" height="204.4"/>
	<g id="_395079184">
		<path id="_248793704" fill="#222323" d="M420.4,254.8v20.7c0,6.7-5.5,12.2-12.2,12.2h-20.7c-6.7,0-12.2-5.5-12.2-12.2v-20.7
			c0-6.7,5.5-12.2,12.2-12.2h20.7C414.8,242.6,420.4,248.2,420.4,254.8z"/>
		<path id="_248793464" fill="#ACACAC" d="M415,249.4v20.7c0,6.7-5.5,12.2-12.2,12.2h-20.7c-6.7,0-12.2-5.5-12.2-12.2v-20.7
			c0-6.7,5.5-12.2,12.2-12.2h20.7C409.6,237.2,415,242.7,415,249.4z"/>
	</g>
	<path fill="#303030" d="M417.6,253v18.8c0,7.3-5.9,13.1-13.1,13.1h-18.8c-7.3,0-13.1-5.9-13.1-13.1V253c0-7.3,5.9-13.1,13.1-13.1
		h18.8C411.8,239.9,417.6,245.9,417.6,253L417.6,253z"/>
	<g id="_395078896">
		<path id="_248794832" fill="#222323" d="M420.4,568.9v20.7c0,6.7-5.5,12.2-12.2,12.2h-20.7c-6.7,0-12.2-5.5-12.2-12.2v-20.7
			c0-6.7,5.5-12.2,12.2-12.2h20.7C414.8,556.7,420.4,562.1,420.4,568.9z"/>
		<path id="_248795072" fill="#ACACAC" d="M415,563.4v20.7c0,6.7-5.5,12.2-12.2,12.2h-20.7c-6.7,0-12.2-5.5-12.2-12.2v-20.7
			c0-6.7,5.5-12.2,12.2-12.2h20.7C409.6,551.2,415,556.7,415,563.4z"/>
	</g>
	<path fill="#303030" d="M417.6,567.1v18.8c0,7.3-5.9,13.1-13.1,13.1h-18.8c-7.3,0-13.1-5.9-13.1-13.1v-18.8
		c0-7.3,5.9-13.1,13.1-13.1h18.8C411.8,553.9,417.6,559.8,417.6,567.1L417.6,567.1z"/>
	<g id="_395078608">
		<path id="_248794520" fill="#222323" d="M363.9,568.9v20.7c0,6.7-5.5,12.2-12.2,12.2H331c-6.7,0-12.2-5.5-12.2-12.2v-20.7
			c0-6.7,5.5-12.2,12.2-12.2h20.7C358.4,556.7,363.9,562.1,363.9,568.9z"/>
		<path id="_248794760" fill="#ACACAC" d="M358.6,563.4v20.7c0,6.7-5.5,12.2-12.2,12.2h-20.7c-6.7,0-12.2-5.5-12.2-12.2v-20.7
			c0-6.7,5.5-12.2,12.2-12.2h20.8C353.2,551.2,358.6,556.7,358.6,563.4z"/>
	</g>
	<path fill="#303030" d="M361.3,567.1v18.8c0,7.3-5.9,13.1-13.1,13.1h-18.8c-7.3,0-13.1-5.9-13.1-13.1v-18.8
		c0-7.3,5.9-13.1,13.1-13.1h18.8C355.4,553.9,361.3,559.8,361.3,567.1L361.3,567.1z"/>
	<g id="_395078320">
		<path id="_248794208" fill="#222323" d="M307.5,568.9v20.7c0,6.7-5.5,12.2-12.2,12.2h-20.7c-6.7,0-12.2-5.5-12.2-12.2v-20.7
			c0-6.7,5.5-12.2,12.2-12.2h20.7C302.1,556.7,307.5,562.1,307.5,568.9z"/>
		<path id="_248794448" fill="#ACACAC" d="M302.3,563.4v20.7c0,6.7-5.5,12.2-12.2,12.2h-20.7c-6.7,0-12.2-5.5-12.2-12.2v-20.7
			c0-6.7,5.5-12.2,12.2-12.2h20.7C296.8,551.2,302.3,556.7,302.3,563.4z"/>
	</g>
	<path fill="#303030" d="M304.9,567.1v18.8c0,7.3-5.9,13.1-13.1,13.1H273c-7.3,0-13.1-5.9-13.1-13.1v-18.8c0-7.3,5.9-13.1,13.1-13.1
		h18.8C299.1,553.9,304.9,559.8,304.9,567.1L304.9,567.1z"/>
	<g id="_395078032">
		<path id="_248795144" fill="#222323" d="M506.7,568.9v20.7c0,6.7-5.5,12.2-12.2,12.2h-20.7c-6.7,0-12.2-5.5-12.2-12.2v-20.7
			c0-6.7,5.5-12.2,12.2-12.2h20.7C501.3,556.7,506.7,562.1,506.7,568.9z"/>
		<path id="_248795384" fill="#ACACAC" d="M501.5,563.4v20.7c0,6.7-5.5,12.2-12.2,12.2h-20.7c-6.7,0-12.2-5.5-12.2-12.2v-20.7
			c0-6.7,5.5-12.2,12.2-12.2h20.7C496,551.2,501.5,556.7,501.5,563.4z"/>
	</g>
	<path fill="#303030" d="M504.1,567.1v18.8c0,7.3-5.9,13.1-13.1,13.1h-18.8c-7.3,0-13.1-5.9-13.1-13.1v-18.8
		c0-7.3,5.9-13.1,13.1-13.1H491C498.2,553.9,504.1,559.8,504.1,567.1L504.1,567.1z"/>
	<g id="_395077744">
		<path id="_248793320" fill="#222323" d="M307.5,254.8v20.7c0,6.7-5.5,12.2-12.2,12.2h-20.7c-6.7,0-12.2-5.5-12.2-12.2v-20.7
			c0-6.7,5.5-12.2,12.2-12.2h20.7C302.1,242.6,307.5,248.2,307.5,254.8z"/>
		<path id="_248794088" fill="#ACACAC" d="M302.3,249.4v20.7c0,6.7-5.5,12.2-12.2,12.2h-20.7c-6.7,0-12.2-5.5-12.2-12.2v-20.7
			c0-6.7,5.5-12.2,12.2-12.2h20.7C296.8,237.2,302.3,242.7,302.3,249.4z"/>
	</g>
	<path fill="#303030" d="M304.9,253v18.8c0,7.3-5.9,13.1-13.1,13.1H273c-7.3,0-13.1-5.9-13.1-13.1V253c0-7.3,5.9-13.1,13.1-13.1
		h18.8C299.1,239.9,304.9,245.9,304.9,253L304.9,253z"/>
	<g id="_395077456">
		<path id="_248793920" fill="#222323" d="M363.9,254.8v20.7c0,6.7-5.5,12.2-12.2,12.2H331c-6.7,0-12.2-5.5-12.2-12.2v-20.7
			c0-6.7,5.5-12.2,12.2-12.2h20.7C358.4,242.6,363.9,248.2,363.9,254.8z"/>
		<path id="_248793776" fill="#ACACAC" d="M358.6,249.4v20.7c0,6.7-5.5,12.2-12.2,12.2h-20.7c-6.7,0-12.2-5.5-12.2-12.2v-20.7
			c0-6.7,5.5-12.2,12.2-12.2h20.8C353.2,237.2,358.6,242.7,358.6,249.4z"/>
	</g>
	<path fill="#303030" d="M361.3,253v18.8c0,7.3-5.9,13.1-13.1,13.1h-18.8c-7.3,0-13.1-5.9-13.1-13.1V253c0-7.3,5.9-13.1,13.1-13.1
		h18.8C355.4,239.9,361.3,245.9,361.3,253L361.3,253z"/>
	<path fill="#303030" d="M121.6,651.3h145.9c22,0,39.8,17.8,39.8,39.8v18.1c0,22-17.8,39.8-39.8,39.8H121.6
		c-22,0-39.8-17.8-39.8-39.8v-18.1C81.8,669.1,99.7,651.3,121.6,651.3L121.6,651.3z"/>
	<path fill="#303030" d="M121.6,89.5h145.9c22,0,39.8,17.8,39.8,39.8v18.1c0,22-17.8,39.8-39.8,39.8H121.6
		c-22,0-39.8-17.8-39.8-39.8v-18.1C81.8,107.3,99.7,89.5,121.6,89.5L121.6,89.5z"/>
	<rect x="185.1" y="187.1" fill="#2B2A29" width="18.8" height="16.2"/>
	<rect x="185.1" y="635.1" fill="#2B2A29" width="18.8" height="16.2"/>
</g>
<path fill="#99CC00" d="M337.6,385.7h-52.4c-1.5,0-2.7,1.2-2.7,2.7v12.1c0,1.5,1.2,2.7,2.7,2.7h17.4v46.9c0,1.5,1.2,2.7,2.7,2.7
	h12.1c1.5,0,2.7-1.2,2.7-2.7v-46.9h17.5c1.5,0,2.7-1.2,2.7-2.7v-12.1C340.3,386.9,339.1,385.7,337.6,385.7z M511,450.8l-33.1-33.1
	l30.1-30.1c1-1,0.7-1.9-0.8-1.9h-19.4c-1.5,0-3.5,0.9-4.6,1.9L465,405.6v-17.4c0-1.5-1.2-2.7-2.7-2.7h-12.6c-1.5,0-2.7,1.2-2.7,2.7
	V450c0,1.5,1.2,2.7,2.7,2.7h12.6c1.5,0,2.7-1.2,2.7-2.7v-20.4l21.2,21.2c1,1,3.1,1.9,4.6,1.9h19.3C511.7,452.7,512,451.9,511,450.8z
	 M383.6,429.6c5.8-2.9,11.5-9.8,12.4-18.1c0,0,0.1-1.9,0.1-2.3c0,0,0-0.7,0-0.8c-0.2-13.8-10.9-22.4-25.2-22.7h-24.4
	c-1.5,0-2.7,1.2-2.7,2.7v61.7c0,1.5,1.2,2.7,2.7,2.7h12.1c1.5,0,2.7-1.2,2.7-2.7v-17.9l18.6,18.6c1,1,3.1,1.9,4.6,1.9h22.1
	L383.6,429.6z M378,409.7c-0.2,4.2-3.1,6.5-7.7,6.5h-9V403h9c4.5,0,7.5,2.2,7.7,6.5C378,409.7,378,409.7,378,409.7z M440.9,385.7
	h-38.3c-1.5,0-2.7,1.2-2.7,2.7v12.1c0,1.5,1.2,2.7,2.7,2.7h10.3v32.3h-10.3c-1.5,0-2.7,1.2-2.7,2.7v3.2l11.3,11.3h29.6
	c1.5,0,2.7-1.2,2.7-2.7v-11.8c0-1.5-1.2-2.7-2.7-2.7h-10.2v-32.3h10.2c1.5,0,2.7-1.2,2.7-2.7v-12.1
	C443.6,386.9,442.4,385.7,440.9,385.7z"/>
</svg>
