<?xml version="1.0" encoding="utf-8"?>
<!-- Generator: Adobe Illustrator 21.0.0, SVG Export Plug-In . SVG Version: 6.00 Build 0)  -->
<svg version="1.1" id="Слой_2" xmlns="http://www.w3.org/2000/svg" xmlns:xlink="http://www.w3.org/1999/xlink" x="0px" y="0px"
	 width="627px" height="670px" viewBox="0 0 627 670" style="enable-background:new 0 0 627 670;" xml:space="preserve">
<style type="text/css">
	.st0{fill:#54E29E;stroke:#000000;stroke-width:4;stroke-linecap:round;stroke-linejoin:round;stroke-miterlimit:10;}
	.st1{fill:#DFF4F3;stroke:#000000;stroke-width:3;stroke-miterlimit:10;}
	.st2{fill:none;stroke:#446360;stroke-width:5;stroke-linecap:round;stroke-linejoin:round;stroke-miterlimit:10;}
	.st3{fill:#001A42;}
	.st4{fill:#99CC00;}
	.st5{fill:#303030;}
</style>
<path class="st0" d="M485.592,295.475c-7.167-16.615,0.362-26.136,9.467-31.894c23.6-14.924,63.16,7.327,77.684,18.888
	c13.767,10.959,32.145,30.539,32.919,52.492c0.641,18.183-11.382,31.266-24.687,45.743c-11.966,13.02-43.611,42.741-70.832,35.764
	c-12.572-3.222-28.383-12.667-23.437-40.745l-42.233,0.624l-1.452-80.594L485.592,295.475z"/>
<path class="st1" d="M509.164,278.364c-3.399,4.883-1.827,12.562,4.577,17.925c9.319,7.805,26.273,5.839,28.985-0.763
	c2.157-5.251-4.721-13.762-11.823-17.544C524.343,274.489,513.137,272.658,509.164,278.364z"/>
<path class="st1" d="M509.721,395.45c-3.399-4.883-1.827-12.562,4.577-17.925c9.319-7.805,26.273-5.839,28.985,0.763
	c2.157,5.251-4.721,13.762-11.823,17.544C524.9,399.325,513.694,401.157,509.721,395.45z"/>
<line class="st2" x1="574.739" y1="324.209" x2="584.974" y2="326.615"/>
<line class="st2" x1="575.106" y1="343.978" x2="585.571" y2="341.267"/>
<ellipse transform="matrix(0.234 -0.9722 0.9722 0.234 123.7776 737.3734)" cx="529.822" cy="290.138" rx="11.209" ry="13.357"/>
<ellipse cx="529.949" cy="383.231" rx="14.191" ry="10.502"/>
<path class="st0" d="M334.529,181.245c14.767-19.979,45.502-47.177,73.373-63.008c22.687-12.886,44.382,10.818,42.132,28.427
	c-2.822,22.085-60.426,88.458-60.426,88.458L334.529,181.245z"/>
<path class="st0" d="M392.309,428.119c19.336,15.599,45.209,47.458,59.846,75.974c11.914,23.212-12.687,43.884-30.184,40.891
	c-21.946-3.754-85.821-64.116-85.821-64.116L392.309,428.119z"/>
<path class="st0" d="M108.105,238.231c-20.653-13.807-49.272-43.224-66.401-70.318c-13.942-22.053,8.711-44.843,26.407-43.427
	c22.194,1.776,91.211,56.184,91.211,56.184L108.105,238.231z"/>
<path class="st0" d="M173.822,486.591c-13.262,21.007-41.92,50.386-68.556,68.218c-21.681,14.515-45.056-7.535-44.103-25.261
	c1.195-22.233,53.778-92.649,53.778-92.649L173.822,486.591z"/>
<path d="M27.188,335.302c-0.305-59.251,51.937-120.015,79.053-145.526c26.202-24.651,82.488-76.507,132.578-78.025
	c62.8-1.903,120.139,46.391,150.668,75.916c31.884,30.835,82.765,81.397,82.588,144.688
	c-0.167,59.558-42.493,106.135-87.356,151.122c-41.344,41.458-80.792,74.032-130.403,73.258
	c-46.974-0.733-92.906-33.86-132.217-68.183C79.866,451.677,27.489,393.664,27.188,335.302z"/>
<rect x="130.699" y="247.903" class="st3" width="234.447" height="165.931"/>
<path class="st4" d="M195.667,301.25h-46.266c-1.324,0-2.384,1.06-2.384,2.384v10.683c0,1.324,1.06,2.384,2.384,2.384h15.363v41.409
	c0,1.324,1.06,2.384,2.384,2.384h10.683c1.324,0,2.384-1.06,2.384-2.384v-41.409h15.451c1.324,0,2.384-1.06,2.384-2.384v-10.683
	C198.051,302.31,196.991,301.25,195.667,301.25z M348.767,358.729l-29.225-29.225l26.576-26.576
	c0.883-0.883,0.618-1.678-0.706-1.678h-17.129c-1.324,0-3.09,0.795-4.061,1.678l-16.069,15.893v-15.363
	c0-1.324-1.06-2.384-2.384-2.384h-11.125c-1.324,0-2.384,1.06-2.384,2.384v54.565c0,1.324,1.06,2.384,2.384,2.384h11.125
	c1.324,0,2.384-1.06,2.384-2.384v-18.012l18.718,18.718c0.883,0.883,2.737,1.678,4.061,1.678h17.041
	C349.385,360.407,349.65,359.7,348.767,358.729z M236.282,340.011c5.121-2.56,10.154-8.653,10.948-15.981
	c0,0,0.088-1.678,0.088-2.031c0,0,0-0.618,0-0.706c-0.177-12.184-9.624-19.778-22.25-20.043h-21.544
	c-1.324,0-2.384,1.06-2.384,2.384v54.477c0,1.324,1.06,2.384,2.384,2.384h10.683c1.324,0,2.384-1.06,2.384-2.384v-15.804
	l16.423,16.423c0.883,0.883,2.737,1.678,4.061,1.678h19.513L236.282,340.011z M231.337,322.441
	c-0.177,3.708-2.737,5.739-6.799,5.739h-7.946v-11.655h7.946c3.973,0,6.622,1.942,6.799,5.739
	C231.337,322.441,231.337,322.441,231.337,322.441z M286.874,301.25h-33.816c-1.324,0-2.384,1.06-2.384,2.384v10.683
	c0,1.324,1.06,2.384,2.384,2.384h9.094v28.519h-9.094c-1.324,0-2.384,1.06-2.384,2.384v2.825l9.977,9.977h26.135
	c1.324,0,2.384-1.06,2.384-2.384v-10.419c0-1.324-1.06-2.384-2.384-2.384h-9.006v-28.519h9.006c1.324,0,2.384-1.06,2.384-2.384
	v-10.683C289.257,302.31,288.198,301.25,286.874,301.25z"/>
<path class="st5" d="M252.604,204.637v13.926c0,5.407-4.37,9.704-9.704,9.704h-13.926c-5.407,0-9.704-4.37-9.704-9.704v-13.926
	c0-5.407,4.37-9.704,9.704-9.704H242.9C248.307,194.933,252.604,199.378,252.604,204.637L252.604,204.637z"/>
<path class="st5" d="M169.121,204.637v13.926c0,5.407-4.37,9.704-9.704,9.704h-13.926c-5.407,0-9.704-4.37-9.704-9.704v-13.926
	c0-5.407,4.37-9.704,9.704-9.704h13.926C164.825,194.933,169.121,199.378,169.121,204.637L169.121,204.637z"/>
<path class="st5" d="M210.899,204.637v13.926c0,5.407-4.37,9.704-9.704,9.704h-13.926c-5.407,0-9.704-4.37-9.704-9.704v-13.926
	c0-5.407,4.37-9.704,9.704-9.704h13.926C206.529,194.933,210.899,199.378,210.899,204.637L210.899,204.637z"/>
<path class="st5" d="M259.975,442.75v13.926c0,5.407-4.37,9.704-9.704,9.704h-13.926c-5.407,0-9.704-4.37-9.704-9.704V442.75
	c0-5.407,4.37-9.704,9.704-9.704h13.926C255.679,433.047,259.975,437.491,259.975,442.75L259.975,442.75z"/>
<path class="st5" d="M176.493,442.75v13.926c0,5.407-4.37,9.704-9.704,9.704h-13.926c-5.407,0-9.704-4.37-9.704-9.704V442.75
	c0-5.407,4.37-9.704,9.704-9.704h13.926C172.196,433.047,176.493,437.491,176.493,442.75L176.493,442.75z"/>
<path class="st5" d="M218.271,442.75v13.926c0,5.407-4.37,9.704-9.704,9.704h-13.926c-5.407,0-9.704-4.37-9.704-9.704V442.75
	c0-5.407,4.37-9.704,9.704-9.704h13.926C213.901,433.047,218.271,437.491,218.271,442.75L218.271,442.75z"/>
<path class="st5" d="M326.382,443.584v13.926c0,5.407-4.37,9.704-9.704,9.704h-13.926c-5.407,0-9.704-4.37-9.704-9.704v-13.926
	c0-5.407,4.37-9.704,9.704-9.704h13.926C322.085,433.88,326.382,438.324,326.382,443.584L326.382,443.584z"/>
</svg>
